<ttFont>
    <TTGlyph name="A" xMin="0" yMin="0" xMax="1296" yMax="1468">
      <contour>
        <pt x="1296" y="0" on="1"/>
        <pt x="1120" y="0" on="1"/>
        <pt x="938" y="465" on="1"/>
        <pt x="352" y="465" on="1"/>
        <pt x="172" y="0" on="1"/>
        <pt x="0" y="0" on="1"/>
        <pt x="578" y="1468" on="1"/>
        <pt x="721" y="1468" on="1"/>
      </contour>
      <contour>
        <pt x="885" y="618" on="1"/>
        <pt x="715" y="1071" on="1"/>
        <pt x="681" y="1159" on="0"/>
        <pt x="647" y="1282" on="1"/>
        <pt x="625" y="1188" on="0"/>
        <pt x="584" y="1071" on="1"/>
        <pt x="412" y="618" on="1"/>
      </contour>
    </TTGlyph>
    <TTGlyph name="AE" xMin="-2" yMin="0" xMax="1665" yMax="1462">
      <contour>
        <pt x="1665" y="1311" on="1"/>
        <pt x="1085" y="1311" on="1"/>
        <pt x="1085" y="840" on="1"/>
        <pt x="1626" y="840" on="1"/>
        <pt x="1626" y="690" on="1"/>
        <pt x="1085" y="690" on="1"/>
        <pt x="1085" y="152" on="1"/>
        <pt x="1665" y="152" on="1"/>
        <pt x="1665" y="0" on="1"/>
        <pt x="915" y="0" on="1"/>
        <pt x="915" y="465" on="1"/>
        <pt x="401" y="465" on="1"/>
        <pt x="174" y="0" on="1"/>
        <pt x="-2" y="0" on="1"/>
        <pt x="696" y="1462" on="1"/>
        <pt x="1665" y="1462" on="1"/>
      </contour>
      <contour>
        <pt x="915" y="618" on="1"/>
        <pt x="915" y="1311" on="1"/>
        <pt x="797" y="1311" on="1"/>
        <pt x="469" y="618" on="1"/>
      </contour>
    </TTGlyph>
    <TTGlyph name="Aacute" xMin="0" yMin="0" xMax="1296" yMax="1907">
      <contour>
        <pt x="919" y="1907" on="1"/>
        <pt x="919" y="1886" on="1"/>
        <pt x="874" y="1820" on="0"/>
        <pt x="700" y="1630" on="0"/>
        <pt x="637" y="1579" on="1"/>
        <pt x="526" y="1579" on="1"/>
        <pt x="526" y="1604" on="1"/>
        <pt x="574" y="1666" on="0"/>
        <pt x="685" y="1842" on="0"/>
        <pt x="717" y="1907" on="1"/>
      </contour>
      <contour>
        <pt x="1296" y="0" on="1"/>
        <pt x="1120" y="0" on="1"/>
        <pt x="938" y="465" on="1"/>
        <pt x="352" y="465" on="1"/>
        <pt x="172" y="0" on="1"/>
        <pt x="0" y="0" on="1"/>
        <pt x="578" y="1468" on="1"/>
        <pt x="721" y="1468" on="1"/>
      </contour>
      <contour>
        <pt x="885" y="618" on="1"/>
        <pt x="715" y="1071" on="1"/>
        <pt x="681" y="1159" on="0"/>
        <pt x="647" y="1282" on="1"/>
        <pt x="625" y="1188" on="0"/>
        <pt x="584" y="1071" on="1"/>
        <pt x="412" y="618" on="1"/>
      </contour>
    </TTGlyph>
    <TTGlyph name="Acircumflex" xMin="0" yMin="0" xMax="1296" yMax="1907">
      <contour>
        <pt x="977" y="1579" on="1"/>
        <pt x="858" y="1579" on="1"/>
        <pt x="772" y="1633" on="0"/>
        <pt x="637" y="1765" on="1"/>
        <pt x="500" y="1632" on="0"/>
        <pt x="418" y="1579" on="1"/>
        <pt x="303" y="1579" on="1"/>
        <pt x="303" y="1602" on="1"/>
        <pt x="432" y="1741" on="0"/>
        <pt x="534" y="1869" on="0"/>
        <pt x="555" y="1907" on="1"/>
        <pt x="721" y="1907" on="1"/>
        <pt x="745" y="1862" on="0"/>
        <pt x="798" y="1799" on="1"/>
        <pt x="844" y="1741" on="0"/>
        <pt x="977" y="1602" on="1"/>
      </contour>
      <contour>
        <pt x="1296" y="0" on="1"/>
        <pt x="1120" y="0" on="1"/>
        <pt x="938" y="465" on="1"/>
        <pt x="352" y="465" on="1"/>
        <pt x="172" y="0" on="1"/>
        <pt x="0" y="0" on="1"/>
        <pt x="578" y="1468" on="1"/>
        <pt x="721" y="1468" on="1"/>
      </contour>
      <contour>
        <pt x="885" y="618" on="1"/>
        <pt x="715" y="1071" on="1"/>
        <pt x="681" y="1159" on="0"/>
        <pt x="647" y="1282" on="1"/>
        <pt x="625" y="1188" on="0"/>
        <pt x="584" y="1071" on="1"/>
        <pt x="412" y="618" on="1"/>
      </contour>
    </TTGlyph>
    <TTGlyph name="Adieresis" xMin="0" yMin="0" xMax="1296" yMax="1829">
      <contour>
        <pt x="364" y="1780" on="0"/>
        <pt x="414" y="1829" on="0"/>
        <pt x="495" y="1829" on="0"/>
        <pt x="547" y="1780" on="0"/>
        <pt x="547" y="1683" on="0"/>
        <pt x="495" y="1632" on="0"/>
        <pt x="415" y="1632" on="0"/>
        <pt x="364" y="1683" on="0"/>
      </contour>
      <contour>
        <pt x="795" y="1829" on="0"/>
        <pt x="875" y="1829" on="0"/>
        <pt x="927" y="1780" on="0"/>
        <pt x="927" y="1683" on="0"/>
        <pt x="874" y="1632" on="0"/>
        <pt x="796" y="1632" on="0"/>
        <pt x="745" y="1683" on="0"/>
        <pt x="745" y="1780" on="0"/>
      </contour>
      <contour>
        <pt x="1296" y="0" on="1"/>
        <pt x="1120" y="0" on="1"/>
        <pt x="938" y="465" on="1"/>
        <pt x="352" y="465" on="1"/>
        <pt x="172" y="0" on="1"/>
        <pt x="0" y="0" on="1"/>
        <pt x="578" y="1468" on="1"/>
        <pt x="721" y="1468" on="1"/>
      </contour>
      <contour>
        <pt x="885" y="618" on="1"/>
        <pt x="715" y="1071" on="1"/>
        <pt x="681" y="1159" on="0"/>
        <pt x="647" y="1282" on="1"/>
        <pt x="625" y="1188" on="0"/>
        <pt x="584" y="1071" on="1"/>
        <pt x="412" y="618" on="1"/>
      </contour>
    </TTGlyph>
    <TTGlyph name="Agrave" xMin="0" yMin="0" xMax="1296" yMax="1907">
      <contour>
        <pt x="331" y="1907" on="1"/>
        <pt x="534" y="1907" on="1"/>
        <pt x="566" y="1838" on="0"/>
        <pt x="680" y="1657" on="0"/>
        <pt x="724" y="1604" on="1"/>
        <pt x="724" y="1579" on="1"/>
        <pt x="614" y="1579" on="1"/>
        <pt x="548" y="1631" on="0"/>
        <pt x="370" y="1824" on="0"/>
        <pt x="331" y="1886" on="1"/>
      </contour>
      <contour>
        <pt x="1296" y="0" on="1"/>
        <pt x="1120" y="0" on="1"/>
        <pt x="938" y="465" on="1"/>
        <pt x="352" y="465" on="1"/>
        <pt x="172" y="0" on="1"/>
        <pt x="0" y="0" on="1"/>
        <pt x="578" y="1468" on="1"/>
        <pt x="721" y="1468" on="1"/>
      </contour>
      <contour>
        <pt x="885" y="618" on="1"/>
        <pt x="715" y="1071" on="1"/>
        <pt x="681" y="1159" on="0"/>
        <pt x="647" y="1282" on="1"/>
        <pt x="625" y="1188" on="0"/>
        <pt x="584" y="1071" on="1"/>
        <pt x="412" y="618" on="1"/>
      </contour>
    </TTGlyph>
    <TTGlyph name="Aring" xMin="0" yMin="0" xMax="1296" yMax="1798">
      <contour>
        <pt x="424" y="1585" on="1"/>
        <pt x="424" y="1683" on="0"/>
        <pt x="545" y="1798" on="0"/>
        <pt x="746" y="1798" on="0"/>
        <pt x="870" y="1680" on="0"/>
        <pt x="870" y="1587" on="1"/>
        <pt x="870" y="1518" on="0"/>
        <pt x="807" y="1416" on="0"/>
        <pt x="751" y="1391" on="1"/>
        <pt x="1296" y="0" on="1"/>
        <pt x="1120" y="0" on="1"/>
        <pt x="938" y="465" on="1"/>
        <pt x="352" y="465" on="1"/>
        <pt x="172" y="0" on="1"/>
        <pt x="0" y="0" on="1"/>
        <pt x="546" y="1388" on="1"/>
        <pt x="488" y="1411" on="0"/>
        <pt x="424" y="1514" on="0"/>
      </contour>
      <contour>
        <pt x="697" y="1702" on="0"/>
        <pt x="593" y="1702" on="0"/>
        <pt x="528" y="1640" on="0"/>
        <pt x="528" y="1529" on="0"/>
        <pt x="588" y="1468" on="0"/>
        <pt x="698" y="1468" on="0"/>
        <pt x="762" y="1530" on="0"/>
        <pt x="762" y="1640" on="0"/>
      </contour>
      <contour>
        <pt x="885" y="618" on="1"/>
        <pt x="715" y="1071" on="1"/>
        <pt x="681" y="1159" on="0"/>
        <pt x="647" y="1282" on="1"/>
        <pt x="625" y="1188" on="0"/>
        <pt x="584" y="1071" on="1"/>
        <pt x="412" y="618" on="1"/>
      </contour>
    </TTGlyph>
    <TTGlyph name="Atilde" xMin="0" yMin="0" xMax="1296" yMax="1839">
      <contour>
        <pt x="792" y="1581" on="1"/>
        <pt x="732" y="1581" on="0"/>
        <pt x="628" y="1641" on="1"/>
        <pt x="590" y="1663" on="0"/>
        <pt x="574" y="1672" on="1"/>
        <pt x="520" y="1700" on="0"/>
        <pt x="432" y="1700" on="0"/>
        <pt x="381" y="1642" on="0"/>
        <pt x="366" y="1579" on="1"/>
        <pt x="268" y="1579" on="1"/>
        <pt x="281" y="1700" on="0"/>
        <pt x="396" y="1837" on="0"/>
        <pt x="487" y="1837" on="1"/>
        <pt x="556" y="1837" on="0"/>
        <pt x="658" y="1778" on="1"/>
        <pt x="673" y="1768" on="0"/>
        <pt x="693" y="1758" on="0"/>
        <pt x="714" y="1746" on="0"/>
        <pt x="723" y="1742" on="0"/>
        <pt x="742" y="1732" on="0"/>
        <pt x="753" y="1728" on="0"/>
        <pt x="769" y="1722" on="0"/>
        <pt x="775" y="1721" on="1"/>
        <pt x="793" y="1718" on="0"/>
        <pt x="801" y="1718" on="1"/>
        <pt x="848" y="1718" on="0"/>
        <pt x="897" y="1774" on="0"/>
        <pt x="913" y="1839" on="1"/>
        <pt x="1012" y="1839" on="1"/>
        <pt x="999" y="1717" on="0"/>
        <pt x="885" y="1581" on="0"/>
      </contour>
      <contour>
        <pt x="1296" y="0" on="1"/>
        <pt x="1120" y="0" on="1"/>
        <pt x="938" y="465" on="1"/>
        <pt x="352" y="465" on="1"/>
        <pt x="172" y="0" on="1"/>
        <pt x="0" y="0" on="1"/>
        <pt x="578" y="1468" on="1"/>
        <pt x="721" y="1468" on="1"/>
      </contour>
      <contour>
        <pt x="885" y="618" on="1"/>
        <pt x="715" y="1071" on="1"/>
        <pt x="681" y="1159" on="0"/>
        <pt x="647" y="1282" on="1"/>
        <pt x="625" y="1188" on="0"/>
        <pt x="584" y="1071" on="1"/>
        <pt x="412" y="618" on="1"/>
      </contour>
    </TTGlyph>
    <TTGlyph name="B" xMin="201" yMin="0" xMax="1214" yMax="1462">
      <contour>
        <pt x="201" y="1462" on="1"/>
        <pt x="614" y="1462" on="1"/>
        <pt x="904" y="1462" on="0"/>
        <pt x="1165" y="1288" on="0"/>
        <pt x="1165" y="1100" on="1"/>
        <pt x="1165" y="969" on="0"/>
        <pt x="1019" y="801" on="0"/>
        <pt x="881" y="776" on="1"/>
        <pt x="881" y="766" on="1"/>
        <pt x="1214" y="709" on="0"/>
        <pt x="1214" y="416" on="1"/>
        <pt x="1214" y="219" on="0"/>
        <pt x="947" y="0" on="0"/>
        <pt x="711" y="0" on="1"/>
        <pt x="201" y="0" on="1"/>
      </contour>
      <contour>
        <pt x="371" y="1315" on="1"/>
        <pt x="371" y="836" on="1"/>
        <pt x="651" y="836" on="1"/>
        <pt x="830" y="836" on="0"/>
        <pt x="910" y="892" on="1"/>
        <pt x="988" y="948" on="0"/>
        <pt x="988" y="1206" on="0"/>
        <pt x="814" y="1315" on="0"/>
        <pt x="621" y="1315" on="1"/>
      </contour>
      <contour>
        <pt x="371" y="692" on="1"/>
        <pt x="371" y="145" on="1"/>
        <pt x="676" y="145" on="1"/>
        <pt x="855" y="145" on="0"/>
        <pt x="1032" y="283" on="0"/>
        <pt x="1032" y="563" on="0"/>
        <pt x="850" y="692" on="0"/>
        <pt x="662" y="692" on="1"/>
      </contour>
    </TTGlyph>
    <TTGlyph name="C" xMin="125" yMin="-20" xMax="1231" yMax="1483">
      <contour>
        <pt x="799" y="-20" on="1"/>
        <pt x="475" y="-20" on="0"/>
        <pt x="125" y="372" on="0"/>
        <pt x="125" y="733" on="1"/>
        <pt x="125" y="738" on="0"/>
        <pt x="125" y="743" on="1"/>
        <pt x="125" y="961" on="0"/>
        <pt x="294" y="1299" on="0"/>
        <pt x="613" y="1483" on="0"/>
        <pt x="820" y="1483" on="1"/>
        <pt x="825" y="1483" on="0"/>
        <pt x="829" y="1483" on="1"/>
        <pt x="1058" y="1483" on="0"/>
        <pt x="1231" y="1399" on="1"/>
        <pt x="1159" y="1253" on="1"/>
        <pt x="992" y="1331" on="0"/>
        <pt x="827" y="1331" on="1"/>
        <pt x="586" y="1331" on="0"/>
        <pt x="307" y="1010" on="0"/>
        <pt x="307" y="445" on="0"/>
        <pt x="441" y="287" on="1"/>
        <pt x="576" y="131" on="0"/>
        <pt x="825" y="131" on="1"/>
        <pt x="979" y="131" on="0"/>
        <pt x="1174" y="186" on="1"/>
        <pt x="1174" y="37" on="1"/>
        <pt x="1018" y="-20" on="0"/>
      </contour>
    </TTGlyph>
    <TTGlyph name="Ccedilla" xMin="125" yMin="-492" xMax="1231" yMax="1483">
      <contour>
        <pt x="827" y="1331" on="1"/>
        <pt x="586" y="1331" on="0"/>
        <pt x="307" y="1010" on="0"/>
        <pt x="307" y="443" on="0"/>
        <pt x="576" y="131" on="0"/>
        <pt x="825" y="131" on="1"/>
        <pt x="979" y="131" on="0"/>
        <pt x="1174" y="186" on="1"/>
        <pt x="1174" y="37" on="1"/>
        <pt x="1029" y="-18" on="0"/>
        <pt x="815" y="-20" on="1"/>
        <pt x="770" y="-115" on="1"/>
        <pt x="950" y="-154" on="0"/>
        <pt x="950" y="-289" on="1"/>
        <pt x="950" y="-387" on="0"/>
        <pt x="796" y="-492" on="0"/>
        <pt x="647" y="-492" on="1"/>
        <pt x="596" y="-492" on="0"/>
        <pt x="551" y="-483" on="1"/>
        <pt x="551" y="-377" on="1"/>
        <pt x="599" y="-385" on="0"/>
        <pt x="737" y="-385" on="0"/>
        <pt x="815" y="-343" on="0"/>
        <pt x="815" y="-248" on="0"/>
        <pt x="776" y="-221" on="1"/>
        <pt x="733" y="-194" on="0"/>
        <pt x="627" y="-178" on="1"/>
        <pt x="707" y="-16" on="1"/>
        <pt x="427" y="12" on="0"/>
        <pt x="125" y="399" on="0"/>
        <pt x="125" y="733" on="1"/>
        <pt x="125" y="959" on="0"/>
        <pt x="295" y="1299" on="0"/>
        <pt x="454" y="1391" on="1"/>
        <pt x="614" y="1483" on="0"/>
        <pt x="1058" y="1483" on="0"/>
        <pt x="1231" y="1399" on="1"/>
        <pt x="1159" y="1253" on="1"/>
        <pt x="992" y="1331" on="0"/>
      </contour>
    </TTGlyph>
    <TTGlyph name="D" xMin="201" yMin="0" xMax="1368" yMax="1462">
      <contour>
        <pt x="201" y="1462" on="1"/>
        <pt x="649" y="1462" on="1"/>
        <pt x="990" y="1462" on="0"/>
        <pt x="1368" y="1084" on="0"/>
        <pt x="1368" y="745" on="1"/>
        <pt x="1368" y="383" on="0"/>
        <pt x="974" y="0" on="0"/>
        <pt x="606" y="0" on="1"/>
        <pt x="201" y="0" on="1"/>
      </contour>
      <contour>
        <pt x="371" y="1315" on="1"/>
        <pt x="371" y="147" on="1"/>
        <pt x="578" y="147" on="1"/>
        <pt x="881" y="147" on="0"/>
        <pt x="1188" y="446" on="0"/>
        <pt x="1188" y="1025" on="0"/>
        <pt x="900" y="1315" on="0"/>
        <pt x="618" y="1315" on="1"/>
      </contour>
    </TTGlyph>
    <TTGlyph name="E" xMin="201" yMin="0" xMax="1016" yMax="1462">
      <contour>
        <pt x="1016" y="1311" on="1"/>
        <pt x="371" y="1311" on="1"/>
        <pt x="371" y="840" on="1"/>
        <pt x="976" y="840" on="1"/>
        <pt x="976" y="690" on="1"/>
        <pt x="371" y="690" on="1"/>
        <pt x="371" y="152" on="1"/>
        <pt x="1016" y="152" on="1"/>
        <pt x="1016" y="0" on="1"/>
        <pt x="201" y="0" on="1"/>
        <pt x="201" y="1462" on="1"/>
        <pt x="1016" y="1462" on="1"/>
      </contour>
    </TTGlyph>
    <TTGlyph name="Eacute" xMin="201" yMin="0" xMax="1016" yMax="1907">
      <contour>
        <pt x="849" y="1907" on="1"/>
        <pt x="849" y="1886" on="1"/>
        <pt x="804" y="1820" on="0"/>
        <pt x="630" y="1630" on="0"/>
        <pt x="567" y="1579" on="1"/>
        <pt x="456" y="1579" on="1"/>
        <pt x="456" y="1604" on="1"/>
        <pt x="504" y="1666" on="0"/>
        <pt x="615" y="1842" on="0"/>
        <pt x="647" y="1907" on="1"/>
      </contour>
      <contour>
        <pt x="1016" y="1311" on="1"/>
        <pt x="371" y="1311" on="1"/>
        <pt x="371" y="840" on="1"/>
        <pt x="977" y="840" on="1"/>
        <pt x="977" y="690" on="1"/>
        <pt x="371" y="690" on="1"/>
        <pt x="371" y="152" on="1"/>
        <pt x="1016" y="152" on="1"/>
        <pt x="1016" y="0" on="1"/>
        <pt x="201" y="0" on="1"/>
        <pt x="201" y="1462" on="1"/>
        <pt x="1016" y="1462" on="1"/>
      </contour>
    </TTGlyph>
    <TTGlyph name="Ecircumflex" xMin="201" yMin="0" xMax="1016" yMax="1907">
      <contour>
        <pt x="937" y="1579" on="1"/>
        <pt x="818" y="1579" on="1"/>
        <pt x="732" y="1633" on="0"/>
        <pt x="597" y="1765" on="1"/>
        <pt x="460" y="1632" on="0"/>
        <pt x="378" y="1579" on="1"/>
        <pt x="263" y="1579" on="1"/>
        <pt x="263" y="1602" on="1"/>
        <pt x="392" y="1741" on="0"/>
        <pt x="494" y="1869" on="0"/>
        <pt x="515" y="1907" on="1"/>
        <pt x="681" y="1907" on="1"/>
        <pt x="705" y="1862" on="0"/>
        <pt x="758" y="1799" on="1"/>
        <pt x="804" y="1741" on="0"/>
        <pt x="937" y="1602" on="1"/>
      </contour>
      <contour>
        <pt x="1016" y="1311" on="1"/>
        <pt x="371" y="1311" on="1"/>
        <pt x="371" y="840" on="1"/>
        <pt x="977" y="840" on="1"/>
        <pt x="977" y="690" on="1"/>
        <pt x="371" y="690" on="1"/>
        <pt x="371" y="152" on="1"/>
        <pt x="1016" y="152" on="1"/>
        <pt x="1016" y="0" on="1"/>
        <pt x="201" y="0" on="1"/>
        <pt x="201" y="1462" on="1"/>
        <pt x="1016" y="1462" on="1"/>
      </contour>
    </TTGlyph>
    <TTGlyph name="Edieresis" xMin="201" yMin="0" xMax="1016" yMax="1829">
      <contour>
        <pt x="327" y="1780" on="0"/>
        <pt x="377" y="1829" on="0"/>
        <pt x="458" y="1829" on="0"/>
        <pt x="510" y="1780" on="0"/>
        <pt x="510" y="1683" on="0"/>
        <pt x="458" y="1632" on="0"/>
        <pt x="378" y="1632" on="0"/>
        <pt x="327" y="1683" on="0"/>
      </contour>
      <contour>
        <pt x="758" y="1829" on="0"/>
        <pt x="838" y="1829" on="0"/>
        <pt x="890" y="1780" on="0"/>
        <pt x="890" y="1683" on="0"/>
        <pt x="837" y="1632" on="0"/>
        <pt x="759" y="1632" on="0"/>
        <pt x="708" y="1683" on="0"/>
        <pt x="708" y="1780" on="0"/>
      </contour>
      <contour>
        <pt x="1016" y="1311" on="1"/>
        <pt x="371" y="1311" on="1"/>
        <pt x="371" y="840" on="1"/>
        <pt x="977" y="840" on="1"/>
        <pt x="977" y="690" on="1"/>
        <pt x="371" y="690" on="1"/>
        <pt x="371" y="152" on="1"/>
        <pt x="1016" y="152" on="1"/>
        <pt x="1016" y="0" on="1"/>
        <pt x="201" y="0" on="1"/>
        <pt x="201" y="1462" on="1"/>
        <pt x="1016" y="1462" on="1"/>
      </contour>
    </TTGlyph>
    <TTGlyph name="Egrave" xMin="201" yMin="0" xMax="1016" yMax="1907">
      <contour>
        <pt x="320" y="1907" on="1"/>
        <pt x="523" y="1907" on="1"/>
        <pt x="555" y="1838" on="0"/>
        <pt x="669" y="1657" on="0"/>
        <pt x="713" y="1604" on="1"/>
        <pt x="713" y="1579" on="1"/>
        <pt x="603" y="1579" on="1"/>
        <pt x="537" y="1631" on="0"/>
        <pt x="359" y="1824" on="0"/>
        <pt x="320" y="1886" on="1"/>
      </contour>
      <contour>
        <pt x="1016" y="1311" on="1"/>
        <pt x="371" y="1311" on="1"/>
        <pt x="371" y="840" on="1"/>
        <pt x="977" y="840" on="1"/>
        <pt x="977" y="690" on="1"/>
        <pt x="371" y="690" on="1"/>
        <pt x="371" y="152" on="1"/>
        <pt x="1016" y="152" on="1"/>
        <pt x="1016" y="0" on="1"/>
        <pt x="201" y="0" on="1"/>
        <pt x="201" y="1462" on="1"/>
        <pt x="1016" y="1462" on="1"/>
      </contour>
    </TTGlyph>
    <TTGlyph name="Eth" xMin="47" yMin="0" xMax="1352" yMax="1462">
      <contour>
        <pt x="201" y="1462" on="1"/>
        <pt x="635" y="1462" on="1"/>
        <pt x="973" y="1462" on="0"/>
        <pt x="1352" y="1086" on="0"/>
        <pt x="1352" y="745" on="1"/>
        <pt x="1352" y="383" on="0"/>
        <pt x="959" y="0" on="0"/>
        <pt x="590" y="0" on="1"/>
        <pt x="201" y="0" on="1"/>
        <pt x="201" y="649" on="1"/>
        <pt x="47" y="649" on="1"/>
        <pt x="47" y="799" on="1"/>
        <pt x="201" y="799" on="1"/>
      </contour>
      <contour>
        <pt x="371" y="1315" on="1"/>
        <pt x="371" y="799" on="1"/>
        <pt x="750" y="799" on="1"/>
        <pt x="750" y="649" on="1"/>
        <pt x="371" y="649" on="1"/>
        <pt x="371" y="147" on="1"/>
        <pt x="561" y="147" on="1"/>
        <pt x="1171" y="147" on="0"/>
        <pt x="1171" y="739" on="1"/>
        <pt x="1171" y="1315" on="0"/>
        <pt x="602" y="1315" on="1"/>
      </contour>
    </TTGlyph>
    <TTGlyph name="Euro" xMin="63" yMin="-20" xMax="1161" yMax="1483">
      <contour>
        <pt x="63" y="930" on="1"/>
        <pt x="227" y="930" on="1"/>
        <pt x="266" y="1191" on="0"/>
        <pt x="558" y="1483" on="0"/>
        <pt x="795" y="1483" on="1"/>
        <pt x="997" y="1483" on="0"/>
        <pt x="1161" y="1386" on="1"/>
        <pt x="1090" y="1247" on="1"/>
        <pt x="921" y="1333" on="0"/>
        <pt x="795" y="1333" on="1"/>
        <pt x="476" y="1333" on="0"/>
        <pt x="397" y="930" on="1"/>
        <pt x="907" y="930" on="1"/>
        <pt x="907" y="801" on="1"/>
        <pt x="383" y="801" on="1"/>
        <pt x="381" y="744" on="1"/>
        <pt x="381" y="680" on="1"/>
        <pt x="383" y="635" on="1"/>
        <pt x="846" y="635" on="1"/>
        <pt x="846" y="506" on="1"/>
        <pt x="399" y="506" on="1"/>
        <pt x="436" y="323" on="0"/>
        <pt x="641" y="129" on="0"/>
        <pt x="965" y="129" on="0"/>
        <pt x="1118" y="195" on="1"/>
        <pt x="1118" y="45" on="1"/>
        <pt x="971" y="-20" on="0"/>
        <pt x="801" y="-20" on="1"/>
        <pt x="565" y="-20" on="0"/>
        <pt x="275" y="248" on="0"/>
        <pt x="229" y="506" on="1"/>
        <pt x="63" y="506" on="1"/>
        <pt x="63" y="635" on="1"/>
        <pt x="215" y="635" on="1"/>
        <pt x="213" y="677" on="1"/>
        <pt x="213" y="721" on="1"/>
        <pt x="215" y="801" on="1"/>
        <pt x="63" y="801" on="1"/>
      </contour>
    </TTGlyph>
    <TTGlyph name="F" xMin="201" yMin="0" xMax="1016" yMax="1462">
      <contour>
        <pt x="1016" y="1311" on="1"/>
        <pt x="371" y="1311" on="1"/>
        <pt x="371" y="776" on="1"/>
        <pt x="976" y="776" on="1"/>
        <pt x="976" y="625" on="1"/>
        <pt x="371" y="625" on="1"/>
        <pt x="371" y="0" on="1"/>
        <pt x="201" y="0" on="1"/>
        <pt x="201" y="1462" on="1"/>
        <pt x="1016" y="1462" on="1"/>
      </contour>
    </TTGlyph>
    <TTGlyph name="G" xMin="125" yMin="-20" xMax="1341" yMax="1483">
      <contour>
        <pt x="1341" y="55" on="1"/>
        <pt x="1108" y="-20" on="0"/>
        <pt x="827" y="-20" on="1"/>
        <pt x="495" y="-20" on="0"/>
        <pt x="310" y="177" on="1"/>
        <pt x="125" y="376" on="0"/>
        <pt x="125" y="731" on="1"/>
        <pt x="125" y="960" on="0"/>
        <pt x="307" y="1302" on="0"/>
        <pt x="652" y="1483" on="0"/>
        <pt x="1115" y="1483" on="0"/>
        <pt x="1319" y="1397" on="1"/>
        <pt x="1253" y="1247" on="1"/>
        <pt x="1055" y="1331" on="0"/>
        <pt x="872" y="1331" on="1"/>
        <pt x="605" y="1331" on="0"/>
        <pt x="305" y="1013" on="0"/>
        <pt x="305" y="435" on="0"/>
        <pt x="594" y="129" on="0"/>
        <pt x="874" y="129" on="1"/>
        <pt x="1023" y="129" on="0"/>
        <pt x="1171" y="164" on="1"/>
        <pt x="1171" y="614" on="1"/>
        <pt x="844" y="614" on="1"/>
        <pt x="844" y="766" on="1"/>
        <pt x="1341" y="766" on="1"/>
      </contour>
    </TTGlyph>
    <TTGlyph name="H" xMin="201" yMin="0" xMax="1311" yMax="1462">
      <contour>
        <pt x="1311" y="0" on="1"/>
        <pt x="1141" y="0" on="1"/>
        <pt x="1141" y="688" on="1"/>
        <pt x="371" y="688" on="1"/>
        <pt x="371" y="0" on="1"/>
        <pt x="201" y="0" on="1"/>
        <pt x="201" y="1462" on="1"/>
        <pt x="371" y="1462" on="1"/>
        <pt x="371" y="840" on="1"/>
        <pt x="1141" y="840" on="1"/>
        <pt x="1141" y="1462" on="1"/>
        <pt x="1311" y="1462" on="1"/>
      </contour>
    </TTGlyph>
    <TTGlyph name="I" xMin="201" yMin="0" xMax="371" yMax="1462">
      <contour>
        <pt x="371" y="0" on="1"/>
        <pt x="201" y="0" on="1"/>
        <pt x="201" y="1462" on="1"/>
        <pt x="371" y="1462" on="1"/>
      </contour>
    </TTGlyph>
    <TTGlyph name="Iacute" xMin="179" yMin="0" xMax="572" yMax="1907">
      <contour>
        <pt x="572" y="1907" on="1"/>
        <pt x="572" y="1886" on="1"/>
        <pt x="527" y="1820" on="0"/>
        <pt x="353" y="1630" on="0"/>
        <pt x="290" y="1579" on="1"/>
        <pt x="179" y="1579" on="1"/>
        <pt x="179" y="1604" on="1"/>
        <pt x="227" y="1666" on="0"/>
        <pt x="338" y="1842" on="0"/>
        <pt x="370" y="1907" on="1"/>
      </contour>
      <contour>
        <pt x="371" y="0" on="1"/>
        <pt x="201" y="0" on="1"/>
        <pt x="201" y="1462" on="1"/>
        <pt x="371" y="1462" on="1"/>
      </contour>
    </TTGlyph>
    <TTGlyph name="Icircumflex" xMin="-57" yMin="0" xMax="617" yMax="1907">
      <contour>
        <pt x="617" y="1579" on="1"/>
        <pt x="498" y="1579" on="1"/>
        <pt x="412" y="1633" on="0"/>
        <pt x="277" y="1765" on="1"/>
        <pt x="140" y="1632" on="0"/>
        <pt x="58" y="1579" on="1"/>
        <pt x="-57" y="1579" on="1"/>
        <pt x="-57" y="1602" on="1"/>
        <pt x="72" y="1741" on="0"/>
        <pt x="174" y="1869" on="0"/>
        <pt x="195" y="1907" on="1"/>
        <pt x="361" y="1907" on="1"/>
        <pt x="385" y="1862" on="0"/>
        <pt x="438" y="1799" on="1"/>
        <pt x="484" y="1741" on="0"/>
        <pt x="617" y="1602" on="1"/>
      </contour>
      <contour>
        <pt x="371" y="0" on="1"/>
        <pt x="201" y="0" on="1"/>
        <pt x="201" y="1462" on="1"/>
        <pt x="371" y="1462" on="1"/>
      </contour>
    </TTGlyph>
    <TTGlyph name="Idieresis" xMin="5" yMin="0" xMax="568" yMax="1829">
      <contour>
        <pt x="5" y="1780" on="0"/>
        <pt x="55" y="1829" on="0"/>
        <pt x="136" y="1829" on="0"/>
        <pt x="188" y="1780" on="0"/>
        <pt x="188" y="1683" on="0"/>
        <pt x="136" y="1632" on="0"/>
        <pt x="56" y="1632" on="0"/>
        <pt x="5" y="1683" on="0"/>
      </contour>
      <contour>
        <pt x="436" y="1829" on="0"/>
        <pt x="516" y="1829" on="0"/>
        <pt x="568" y="1780" on="0"/>
        <pt x="568" y="1683" on="0"/>
        <pt x="515" y="1632" on="0"/>
        <pt x="437" y="1632" on="0"/>
        <pt x="386" y="1683" on="0"/>
        <pt x="386" y="1780" on="0"/>
      </contour>
      <contour>
        <pt x="371" y="0" on="1"/>
        <pt x="201" y="0" on="1"/>
        <pt x="201" y="1462" on="1"/>
        <pt x="371" y="1462" on="1"/>
      </contour>
    </TTGlyph>
    <TTGlyph name="Igrave" xMin="5" yMin="0" xMax="398" yMax="1907">
      <contour>
        <pt x="5" y="1907" on="1"/>
        <pt x="208" y="1907" on="1"/>
        <pt x="240" y="1838" on="0"/>
        <pt x="354" y="1657" on="0"/>
        <pt x="398" y="1604" on="1"/>
        <pt x="398" y="1579" on="1"/>
        <pt x="288" y="1579" on="1"/>
        <pt x="222" y="1631" on="0"/>
        <pt x="44" y="1824" on="0"/>
        <pt x="5" y="1886" on="1"/>
      </contour>
      <contour>
        <pt x="371" y="0" on="1"/>
        <pt x="201" y="0" on="1"/>
        <pt x="201" y="1462" on="1"/>
        <pt x="371" y="1462" on="1"/>
      </contour>
    </TTGlyph>
    <TTGlyph name="J" xMin="-160" yMin="-385" xMax="360" yMax="1462">
      <contour>
        <pt x="360" y="1462" on="1"/>
        <pt x="360" y="14" on="1"/>
        <pt x="360" y="-177" on="0"/>
        <pt x="167" y="-385" on="0"/>
        <pt x="-12" y="-385" on="1"/>
        <pt x="-106" y="-385" on="0"/>
        <pt x="-160" y="-358" on="1"/>
        <pt x="-160" y="-213" on="1"/>
        <pt x="-88" y="-233" on="0"/>
        <pt x="-12" y="-233" on="1"/>
        <pt x="87" y="-233" on="0"/>
        <pt x="190" y="-113" on="0"/>
        <pt x="190" y="0" on="1"/>
        <pt x="190" y="1462" on="1"/>
      </contour>
    </TTGlyph>
    <TTGlyph name="K" xMin="201" yMin="0" xMax="1257" yMax="1462">
      <contour>
        <pt x="371" y="0" on="1"/>
        <pt x="201" y="0" on="1"/>
        <pt x="201" y="1462" on="1"/>
        <pt x="371" y="1462" on="1"/>
        <pt x="371" y="737" on="1"/>
        <pt x="1034" y="1462" on="1"/>
        <pt x="1235" y="1462" on="1"/>
        <pt x="647" y="827" on="1"/>
        <pt x="1257" y="0" on="1"/>
        <pt x="1057" y="0" on="1"/>
        <pt x="524" y="709" on="1"/>
        <pt x="371" y="573" on="1"/>
      </contour>
    </TTGlyph>
    <TTGlyph name="L" xMin="201" yMin="0" xMax="1016" yMax="1462">
      <contour>
        <pt x="371" y="154" on="1"/>
        <pt x="1016" y="154" on="1"/>
        <pt x="1016" y="0" on="1"/>
        <pt x="201" y="0" on="1"/>
        <pt x="201" y="1462" on="1"/>
        <pt x="371" y="1462" on="1"/>
      </contour>
    </TTGlyph>
    <TTGlyph name="M" xMin="201" yMin="0" xMax="1649" yMax="1462">
      <contour>
        <pt x="1649" y="0" on="1"/>
        <pt x="1479" y="0" on="1"/>
        <pt x="1479" y="942" on="1"/>
        <pt x="1479" y="1096" on="0"/>
        <pt x="1493" y="1294" on="1"/>
        <pt x="1485" y="1294" on="1"/>
        <pt x="984" y="0" on="1"/>
        <pt x="848" y="0" on="1"/>
        <pt x="352" y="1296" on="1"/>
        <pt x="344" y="1296" on="1"/>
        <pt x="358" y="1136" on="0"/>
        <pt x="358" y="930" on="1"/>
        <pt x="358" y="0" on="1"/>
        <pt x="201" y="0" on="1"/>
        <pt x="201" y="1462" on="1"/>
        <pt x="457" y="1462" on="1"/>
        <pt x="920" y="256" on="1"/>
        <pt x="928" y="256" on="1"/>
        <pt x="1395" y="1462" on="1"/>
        <pt x="1649" y="1462" on="1"/>
      </contour>
    </TTGlyph>
    <TTGlyph name="N" xMin="201" yMin="0" xMax="1343" yMax="1462">
      <contour>
        <pt x="1343" y="0" on="1"/>
        <pt x="1149" y="0" on="1"/>
        <pt x="350" y="1227" on="1"/>
        <pt x="342" y="1227" on="1"/>
        <pt x="358" y="1018" on="0"/>
        <pt x="358" y="831" on="1"/>
        <pt x="358" y="0" on="1"/>
        <pt x="201" y="0" on="1"/>
        <pt x="201" y="1462" on="1"/>
        <pt x="393" y="1462" on="1"/>
        <pt x="1190" y="240" on="1"/>
        <pt x="1198" y="240" on="1"/>
        <pt x="1189" y="413" on="1"/>
        <pt x="1184" y="517" on="0"/>
        <pt x="1184" y="606" on="0"/>
        <pt x="1184" y="623" on="1"/>
        <pt x="1184" y="1462" on="1"/>
        <pt x="1343" y="1462" on="1"/>
      </contour>
    </TTGlyph>
    <TTGlyph name="Ntilde" xMin="201" yMin="0" xMax="1343" yMax="1839">
      <contour>
        <pt x="935" y="1581" on="1"/>
        <pt x="875" y="1581" on="0"/>
        <pt x="771" y="1641" on="1"/>
        <pt x="733" y="1663" on="0"/>
        <pt x="717" y="1672" on="1"/>
        <pt x="663" y="1700" on="0"/>
        <pt x="575" y="1700" on="0"/>
        <pt x="524" y="1642" on="0"/>
        <pt x="509" y="1579" on="1"/>
        <pt x="411" y="1579" on="1"/>
        <pt x="424" y="1700" on="0"/>
        <pt x="539" y="1837" on="0"/>
        <pt x="630" y="1837" on="1"/>
        <pt x="699" y="1837" on="0"/>
        <pt x="801" y="1778" on="1"/>
        <pt x="816" y="1768" on="0"/>
        <pt x="836" y="1758" on="0"/>
        <pt x="857" y="1746" on="0"/>
        <pt x="866" y="1742" on="0"/>
        <pt x="885" y="1732" on="0"/>
        <pt x="896" y="1728" on="0"/>
        <pt x="912" y="1722" on="0"/>
        <pt x="918" y="1721" on="1"/>
        <pt x="936" y="1718" on="0"/>
        <pt x="944" y="1718" on="1"/>
        <pt x="991" y="1718" on="0"/>
        <pt x="1040" y="1774" on="0"/>
        <pt x="1056" y="1839" on="1"/>
        <pt x="1155" y="1839" on="1"/>
        <pt x="1142" y="1717" on="0"/>
        <pt x="1028" y="1581" on="0"/>
      </contour>
      <contour>
        <pt x="1343" y="0" on="1"/>
        <pt x="1149" y="0" on="1"/>
        <pt x="350" y="1227" on="1"/>
        <pt x="342" y="1227" on="1"/>
        <pt x="358" y="1018" on="0"/>
        <pt x="358" y="831" on="1"/>
        <pt x="358" y="0" on="1"/>
        <pt x="201" y="0" on="1"/>
        <pt x="201" y="1462" on="1"/>
        <pt x="393" y="1462" on="1"/>
        <pt x="1190" y="240" on="1"/>
        <pt x="1198" y="240" on="1"/>
        <pt x="1194" y="283" on="0"/>
        <pt x="1184" y="532" on="0"/>
        <pt x="1184" y="609" on="0"/>
        <pt x="1184" y="623" on="1"/>
        <pt x="1184" y="1462" on="1"/>
        <pt x="1343" y="1462" on="1"/>
      </contour>
    </TTGlyph>
    <TTGlyph name="O" xMin="125" yMin="-20" xMax="1470" yMax="1485">
      <contour>
        <pt x="125" y="1091" on="0"/>
        <pt x="477" y="1485" on="0"/>
        <pt x="1116" y="1485" on="0"/>
        <pt x="1470" y="1085" on="0"/>
        <pt x="1470" y="381" on="0"/>
        <pt x="1115" y="-20" on="0"/>
        <pt x="476" y="-20" on="0"/>
        <pt x="300" y="177" on="1"/>
        <pt x="125" y="374" on="0"/>
      </contour>
      <contour>
        <pt x="1290" y="1028" on="0"/>
        <pt x="1043" y="1333" on="0"/>
        <pt x="558" y="1333" on="0"/>
        <pt x="305" y="1026" on="0"/>
        <pt x="305" y="437" on="0"/>
        <pt x="558" y="129" on="0"/>
        <pt x="1042" y="129" on="0"/>
        <pt x="1290" y="435" on="0"/>
      </contour>
    </TTGlyph>
    <TTGlyph name="OE" xMin="125" yMin="-20" xMax="1767" yMax="1485">
      <contour>
        <pt x="1767" y="0" on="1"/>
        <pt x="999" y="0" on="1"/>
        <pt x="894" y="-20" on="0"/>
        <pt x="805" y="-20" on="1"/>
        <pt x="478" y="-20" on="0"/>
        <pt x="125" y="373" on="0"/>
        <pt x="125" y="1095" on="0"/>
        <pt x="473" y="1485" on="0"/>
        <pt x="793" y="1485" on="1"/>
        <pt x="893" y="1485" on="0"/>
        <pt x="985" y="1462" on="1"/>
        <pt x="1767" y="1462" on="1"/>
        <pt x="1767" y="1311" on="1"/>
        <pt x="1178" y="1311" on="1"/>
        <pt x="1178" y="840" on="1"/>
        <pt x="1729" y="840" on="1"/>
        <pt x="1729" y="690" on="1"/>
        <pt x="1178" y="690" on="1"/>
        <pt x="1178" y="152" on="1"/>
        <pt x="1767" y="152" on="1"/>
      </contour>
      <contour>
        <pt x="811" y="1333" on="1"/>
        <pt x="562" y="1333" on="0"/>
        <pt x="305" y="1028" on="0"/>
        <pt x="305" y="436" on="0"/>
        <pt x="562" y="129" on="0"/>
        <pt x="809" y="129" on="1"/>
        <pt x="921" y="129" on="0"/>
        <pt x="1008" y="162" on="1"/>
        <pt x="1008" y="1303" on="1"/>
        <pt x="921" y="1333" on="0"/>
      </contour>
    </TTGlyph>
    <TTGlyph name="Oacute" xMin="125" yMin="-20" xMax="1470" yMax="1907">
      <contour>
        <pt x="1052" y="1907" on="1"/>
        <pt x="1052" y="1886" on="1"/>
        <pt x="1007" y="1820" on="0"/>
        <pt x="833" y="1630" on="0"/>
        <pt x="770" y="1579" on="1"/>
        <pt x="659" y="1579" on="1"/>
        <pt x="659" y="1604" on="1"/>
        <pt x="707" y="1666" on="0"/>
        <pt x="818" y="1842" on="0"/>
        <pt x="850" y="1907" on="1"/>
      </contour>
      <contour>
        <pt x="125" y="1093" on="0"/>
        <pt x="478" y="1485" on="0"/>
        <pt x="1115" y="1485" on="0"/>
        <pt x="1470" y="1085" on="0"/>
        <pt x="1470" y="381" on="0"/>
        <pt x="1114" y="-20" on="0"/>
        <pt x="476" y="-20" on="0"/>
        <pt x="125" y="374" on="0"/>
      </contour>
      <contour>
        <pt x="1290" y="1028" on="0"/>
        <pt x="1043" y="1333" on="0"/>
        <pt x="558" y="1333" on="0"/>
        <pt x="305" y="1026" on="0"/>
        <pt x="305" y="437" on="0"/>
        <pt x="558" y="129" on="0"/>
        <pt x="1042" y="129" on="0"/>
        <pt x="1290" y="435" on="0"/>
      </contour>
    </TTGlyph>
    <TTGlyph name="Ocircumflex" xMin="125" yMin="-20" xMax="1470" yMax="1907">
      <contour>
        <pt x="1122" y="1579" on="1"/>
        <pt x="1003" y="1579" on="1"/>
        <pt x="917" y="1633" on="0"/>
        <pt x="782" y="1765" on="1"/>
        <pt x="646" y="1632" on="0"/>
        <pt x="563" y="1579" on="1"/>
        <pt x="448" y="1579" on="1"/>
        <pt x="448" y="1602" on="1"/>
        <pt x="577" y="1741" on="0"/>
        <pt x="679" y="1869" on="0"/>
        <pt x="700" y="1907" on="1"/>
        <pt x="866" y="1907" on="1"/>
        <pt x="890" y="1862" on="0"/>
        <pt x="943" y="1799" on="1"/>
        <pt x="989" y="1741" on="0"/>
        <pt x="1122" y="1602" on="1"/>
      </contour>
      <contour>
        <pt x="125" y="1093" on="0"/>
        <pt x="478" y="1485" on="0"/>
        <pt x="1115" y="1485" on="0"/>
        <pt x="1470" y="1085" on="0"/>
        <pt x="1470" y="381" on="0"/>
        <pt x="1114" y="-20" on="0"/>
        <pt x="476" y="-20" on="0"/>
        <pt x="125" y="374" on="0"/>
      </contour>
      <contour>
        <pt x="1290" y="1028" on="0"/>
        <pt x="1043" y="1333" on="0"/>
        <pt x="558" y="1333" on="0"/>
        <pt x="305" y="1026" on="0"/>
        <pt x="305" y="437" on="0"/>
        <pt x="558" y="129" on="0"/>
        <pt x="1042" y="129" on="0"/>
        <pt x="1290" y="435" on="0"/>
      </contour>
    </TTGlyph>
    <TTGlyph name="Odieresis" xMin="125" yMin="-20" xMax="1470" yMax="1829">
      <contour>
        <pt x="522" y="1780" on="0"/>
        <pt x="572" y="1829" on="0"/>
        <pt x="653" y="1829" on="0"/>
        <pt x="705" y="1780" on="0"/>
        <pt x="705" y="1683" on="0"/>
        <pt x="653" y="1632" on="0"/>
        <pt x="573" y="1632" on="0"/>
        <pt x="522" y="1683" on="0"/>
      </contour>
      <contour>
        <pt x="953" y="1829" on="0"/>
        <pt x="1033" y="1829" on="0"/>
        <pt x="1085" y="1780" on="0"/>
        <pt x="1085" y="1683" on="0"/>
        <pt x="1032" y="1632" on="0"/>
        <pt x="954" y="1632" on="0"/>
        <pt x="903" y="1683" on="0"/>
        <pt x="903" y="1780" on="0"/>
      </contour>
      <contour>
        <pt x="125" y="1093" on="0"/>
        <pt x="478" y="1485" on="0"/>
        <pt x="1115" y="1485" on="0"/>
        <pt x="1470" y="1085" on="0"/>
        <pt x="1470" y="381" on="0"/>
        <pt x="1114" y="-20" on="0"/>
        <pt x="476" y="-20" on="0"/>
        <pt x="125" y="374" on="0"/>
      </contour>
      <contour>
        <pt x="1290" y="1028" on="0"/>
        <pt x="1043" y="1333" on="0"/>
        <pt x="558" y="1333" on="0"/>
        <pt x="305" y="1026" on="0"/>
        <pt x="305" y="437" on="0"/>
        <pt x="558" y="129" on="0"/>
        <pt x="1042" y="129" on="0"/>
        <pt x="1290" y="435" on="0"/>
      </contour>
    </TTGlyph>
    <TTGlyph name="Ograve" xMin="125" yMin="-20" xMax="1470" yMax="1907">
      <contour>
        <pt x="514" y="1907" on="1"/>
        <pt x="717" y="1907" on="1"/>
        <pt x="749" y="1838" on="0"/>
        <pt x="863" y="1657" on="0"/>
        <pt x="907" y="1604" on="1"/>
        <pt x="907" y="1579" on="1"/>
        <pt x="797" y="1579" on="1"/>
        <pt x="731" y="1631" on="0"/>
        <pt x="553" y="1824" on="0"/>
        <pt x="514" y="1886" on="1"/>
      </contour>
      <contour>
        <pt x="125" y="1093" on="0"/>
        <pt x="478" y="1485" on="0"/>
        <pt x="1115" y="1485" on="0"/>
        <pt x="1470" y="1085" on="0"/>
        <pt x="1470" y="381" on="0"/>
        <pt x="1114" y="-20" on="0"/>
        <pt x="476" y="-20" on="0"/>
        <pt x="125" y="374" on="0"/>
      </contour>
      <contour>
        <pt x="1290" y="1028" on="0"/>
        <pt x="1043" y="1333" on="0"/>
        <pt x="558" y="1333" on="0"/>
        <pt x="305" y="1026" on="0"/>
        <pt x="305" y="437" on="0"/>
        <pt x="558" y="129" on="0"/>
        <pt x="1042" y="129" on="0"/>
        <pt x="1290" y="435" on="0"/>
      </contour>
    </TTGlyph>
    <TTGlyph name="Oslash" xMin="125" yMin="-61" xMax="1470" yMax="1526">
      <contour>
        <pt x="1278" y="1298" on="1"/>
        <pt x="1470" y="1095" on="0"/>
        <pt x="1470" y="381" on="0"/>
        <pt x="1114" y="-20" on="0"/>
        <pt x="799" y="-20" on="1"/>
        <pt x="564" y="-20" on="0"/>
        <pt x="416" y="80" on="1"/>
        <pt x="315" y="-61" on="1"/>
        <pt x="195" y="18" on="1"/>
        <pt x="303" y="172" on="1"/>
        <pt x="125" y="369" on="0"/>
        <pt x="125" y="1093" on="0"/>
        <pt x="478" y="1485" on="0"/>
        <pt x="801" y="1485" on="1"/>
        <pt x="1010" y="1485" on="0"/>
        <pt x="1167" y="1391" on="1"/>
        <pt x="1264" y="1526" on="1"/>
        <pt x="1384" y="1446" on="1"/>
      </contour>
      <contour>
        <pt x="801" y="1333" on="1"/>
        <pt x="558" y="1333" on="0"/>
        <pt x="305" y="1026" on="0"/>
        <pt x="305" y="733" on="1"/>
        <pt x="305" y="472" on="0"/>
        <pt x="406" y="317" on="1"/>
        <pt x="1075" y="1260" on="1"/>
        <pt x="969" y="1333" on="0"/>
      </contour>
      <contour>
        <pt x="799" y="129" on="1"/>
        <pt x="1042" y="129" on="0"/>
        <pt x="1290" y="435" on="0"/>
        <pt x="1290" y="733" on="1"/>
        <pt x="1290" y="1004" on="0"/>
        <pt x="1180" y="1159" on="1"/>
        <pt x="508" y="211" on="1"/>
        <pt x="623" y="129" on="0"/>
      </contour>
    </TTGlyph>
    <TTGlyph name="Otilde" xMin="125" yMin="-20" xMax="1470" yMax="1839">
      <contour>
        <pt x="942" y="1581" on="1"/>
        <pt x="882" y="1581" on="0"/>
        <pt x="778" y="1641" on="1"/>
        <pt x="740" y="1663" on="0"/>
        <pt x="724" y="1672" on="1"/>
        <pt x="670" y="1700" on="0"/>
        <pt x="582" y="1700" on="0"/>
        <pt x="531" y="1642" on="0"/>
        <pt x="516" y="1579" on="1"/>
        <pt x="418" y="1579" on="1"/>
        <pt x="431" y="1700" on="0"/>
        <pt x="546" y="1837" on="0"/>
        <pt x="637" y="1837" on="1"/>
        <pt x="706" y="1837" on="0"/>
        <pt x="808" y="1778" on="1"/>
        <pt x="823" y="1768" on="0"/>
        <pt x="843" y="1758" on="0"/>
        <pt x="864" y="1746" on="0"/>
        <pt x="873" y="1742" on="0"/>
        <pt x="892" y="1732" on="0"/>
        <pt x="903" y="1728" on="0"/>
        <pt x="919" y="1722" on="0"/>
        <pt x="925" y="1721" on="1"/>
        <pt x="943" y="1718" on="0"/>
        <pt x="951" y="1718" on="1"/>
        <pt x="998" y="1718" on="0"/>
        <pt x="1047" y="1774" on="0"/>
        <pt x="1063" y="1839" on="1"/>
        <pt x="1162" y="1839" on="1"/>
        <pt x="1149" y="1717" on="0"/>
        <pt x="1035" y="1581" on="0"/>
      </contour>
      <contour>
        <pt x="125" y="1093" on="0"/>
        <pt x="478" y="1485" on="0"/>
        <pt x="1115" y="1485" on="0"/>
        <pt x="1470" y="1085" on="0"/>
        <pt x="1470" y="381" on="0"/>
        <pt x="1114" y="-20" on="0"/>
        <pt x="476" y="-20" on="0"/>
        <pt x="125" y="374" on="0"/>
      </contour>
      <contour>
        <pt x="1290" y="1028" on="0"/>
        <pt x="1043" y="1333" on="0"/>
        <pt x="558" y="1333" on="0"/>
        <pt x="305" y="1026" on="0"/>
        <pt x="305" y="437" on="0"/>
        <pt x="558" y="129" on="0"/>
        <pt x="1042" y="129" on="0"/>
        <pt x="1290" y="435" on="0"/>
      </contour>
    </TTGlyph>
    <TTGlyph name="P" xMin="201" yMin="0" xMax="1128" yMax="1462">
      <contour>
        <pt x="201" y="1462" on="1"/>
        <pt x="580" y="1462" on="1"/>
        <pt x="1128" y="1462" on="0"/>
        <pt x="1128" y="1036" on="1"/>
        <pt x="1128" y="814" on="0"/>
        <pt x="825" y="575" on="0"/>
        <pt x="543" y="575" on="1"/>
        <pt x="371" y="575" on="1"/>
        <pt x="371" y="0" on="1"/>
        <pt x="201" y="0" on="1"/>
      </contour>
      <contour>
        <pt x="371" y="1315" on="1"/>
        <pt x="371" y="721" on="1"/>
        <pt x="524" y="721" on="1"/>
        <pt x="751" y="721" on="0"/>
        <pt x="952" y="868" on="0"/>
        <pt x="952" y="1173" on="0"/>
        <pt x="761" y="1315" on="0"/>
        <pt x="561" y="1315" on="1"/>
      </contour>
    </TTGlyph>
    <TTGlyph name="Q" xMin="125" yMin="-348" xMax="1470" yMax="1485">
      <contour>
        <pt x="300" y="177" on="1"/>
        <pt x="125" y="374" on="0"/>
        <pt x="125" y="1091" on="0"/>
        <pt x="477" y="1485" on="0"/>
        <pt x="1116" y="1485" on="0"/>
        <pt x="1470" y="1085" on="0"/>
        <pt x="1470" y="733" on="1"/>
        <pt x="1470" y="453" on="0"/>
        <pt x="1245" y="80" on="0"/>
        <pt x="1038" y="14" on="1"/>
        <pt x="1386" y="-348" on="1"/>
        <pt x="1139" y="-348" on="1"/>
        <pt x="854" y="-18" on="1"/>
        <pt x="799" y="-20" on="1"/>
        <pt x="476" y="-20" on="0"/>
      </contour>
      <contour>
        <pt x="1290" y="1028" on="0"/>
        <pt x="1043" y="1333" on="0"/>
        <pt x="558" y="1333" on="0"/>
        <pt x="305" y="1026" on="0"/>
        <pt x="305" y="437" on="0"/>
        <pt x="558" y="129" on="0"/>
        <pt x="1042" y="129" on="0"/>
        <pt x="1290" y="435" on="0"/>
      </contour>
    </TTGlyph>
    <TTGlyph name="R" xMin="201" yMin="0" xMax="1231" yMax="1462">
      <contour>
        <pt x="201" y="1462" on="1"/>
        <pt x="602" y="1462" on="1"/>
        <pt x="870" y="1462" on="0"/>
        <pt x="1128" y="1257" on="0"/>
        <pt x="1128" y="1049" on="1"/>
        <pt x="1128" y="759" on="0"/>
        <pt x="834" y="657" on="1"/>
        <pt x="1231" y="0" on="1"/>
        <pt x="1030" y="0" on="1"/>
        <pt x="676" y="608" on="1"/>
        <pt x="371" y="608" on="1"/>
        <pt x="371" y="0" on="1"/>
        <pt x="201" y="0" on="1"/>
      </contour>
      <contour>
        <pt x="371" y="1313" on="1"/>
        <pt x="371" y="754" on="1"/>
        <pt x="604" y="754" on="1"/>
        <pt x="783" y="754" on="0"/>
        <pt x="952" y="896" on="0"/>
        <pt x="952" y="1184" on="0"/>
        <pt x="781" y="1313" on="0"/>
        <pt x="592" y="1313" on="1"/>
      </contour>
    </TTGlyph>
    <TTGlyph name="S" xMin="106" yMin="-20" xMax="1026" yMax="1483">
      <contour>
        <pt x="512" y="129" on="1"/>
        <pt x="680" y="129" on="0"/>
        <pt x="854" y="257" on="0"/>
        <pt x="854" y="373" on="1"/>
        <pt x="854" y="448" on="0"/>
        <pt x="793" y="546" on="0"/>
        <pt x="652" y="627" on="0"/>
        <pt x="504" y="680" on="1"/>
        <pt x="299" y="754" on="0"/>
        <pt x="125" y="954" on="0"/>
        <pt x="125" y="1283" on="0"/>
        <pt x="379" y="1483" on="0"/>
        <pt x="805" y="1483" on="0"/>
        <pt x="988" y="1403" on="1"/>
        <pt x="936" y="1255" on="1"/>
        <pt x="756" y="1331" on="0"/>
        <pt x="584" y="1331" on="1"/>
        <pt x="449" y="1331" on="0"/>
        <pt x="297" y="1215" on="0"/>
        <pt x="297" y="1112" on="1"/>
        <pt x="297" y="1037" on="0"/>
        <pt x="353" y="939" on="0"/>
        <pt x="482" y="860" on="0"/>
        <pt x="623" y="809" on="1"/>
        <pt x="855" y="725" on="0"/>
        <pt x="1026" y="537" on="0"/>
        <pt x="1026" y="389" on="1"/>
        <pt x="1026" y="198" on="0"/>
        <pt x="886" y="88" on="1"/>
        <pt x="746" y="-20" on="0"/>
        <pt x="244" y="-20" on="0"/>
        <pt x="106" y="47" on="1"/>
        <pt x="106" y="211" on="1"/>
        <pt x="299" y="129" on="0"/>
      </contour>
    </TTGlyph>
    <TTGlyph name="Scaron" xMin="106" yMin="-20" xMax="1026" yMax="1907">
      <contour>
        <pt x="240" y="1907" on="1"/>
        <pt x="355" y="1907" on="1"/>
        <pt x="469" y="1834" on="0"/>
        <pt x="574" y="1718" on="1"/>
        <pt x="706" y="1850" on="0"/>
        <pt x="795" y="1907" on="1"/>
        <pt x="914" y="1907" on="1"/>
        <pt x="914" y="1882" on="1"/>
        <pt x="848" y="1814" on="1"/>
        <pt x="705" y="1666" on="0"/>
        <pt x="658" y="1579" on="1"/>
        <pt x="492" y="1579" on="1"/>
        <pt x="470" y="1619" on="0"/>
        <pt x="367" y="1746" on="0"/>
        <pt x="240" y="1882" on="1"/>
      </contour>
      <contour>
        <pt x="512" y="129" on="1"/>
        <pt x="680" y="129" on="0"/>
        <pt x="854" y="257" on="0"/>
        <pt x="854" y="373" on="1"/>
        <pt x="854" y="448" on="0"/>
        <pt x="794" y="546" on="0"/>
        <pt x="651" y="627" on="0"/>
        <pt x="504" y="680" on="1"/>
        <pt x="300" y="753" on="0"/>
        <pt x="125" y="953" on="0"/>
        <pt x="125" y="1282" on="0"/>
        <pt x="378" y="1483" on="0"/>
        <pt x="805" y="1483" on="0"/>
        <pt x="989" y="1403" on="1"/>
        <pt x="936" y="1255" on="1"/>
        <pt x="756" y="1331" on="0"/>
        <pt x="584" y="1331" on="1"/>
        <pt x="449" y="1331" on="0"/>
        <pt x="297" y="1215" on="0"/>
        <pt x="297" y="1112" on="1"/>
        <pt x="297" y="1036" on="0"/>
        <pt x="353" y="940" on="0"/>
        <pt x="485" y="859" on="0"/>
        <pt x="623" y="809" on="1"/>
        <pt x="850" y="728" on="0"/>
        <pt x="1026" y="541" on="0"/>
        <pt x="1026" y="389" on="1"/>
        <pt x="1026" y="197" on="0"/>
        <pt x="747" y="-20" on="0"/>
        <pt x="244" y="-20" on="0"/>
        <pt x="106" y="47" on="1"/>
        <pt x="106" y="211" on="1"/>
        <pt x="299" y="129" on="0"/>
      </contour>
    </TTGlyph>
    <TTGlyph name="T" xMin="18" yMin="0" xMax="1114" yMax="1462">
      <contour>
        <pt x="1114" y="1311" on="1"/>
        <pt x="651" y="1311" on="1"/>
        <pt x="651" y="0" on="1"/>
        <pt x="481" y="0" on="1"/>
        <pt x="481" y="1311" on="1"/>
        <pt x="18" y="1311" on="1"/>
        <pt x="18" y="1462" on="1"/>
        <pt x="1114" y="1462" on="1"/>
      </contour>
    </TTGlyph>
    <TTGlyph name="Thorn" xMin="201" yMin="0" xMax="1145" yMax="1462">
      <contour>
        <pt x="371" y="1206" on="1"/>
        <pt x="586" y="1206" on="1"/>
        <pt x="868" y="1206" on="0"/>
        <pt x="1145" y="999" on="0"/>
        <pt x="1145" y="557" on="0"/>
        <pt x="843" y="319" on="0"/>
        <pt x="555" y="319" on="1"/>
        <pt x="371" y="319" on="1"/>
        <pt x="371" y="0" on="1"/>
        <pt x="201" y="0" on="1"/>
        <pt x="201" y="1462" on="1"/>
        <pt x="371" y="1462" on="1"/>
      </contour>
      <contour>
        <pt x="371" y="1059" on="1"/>
        <pt x="371" y="465" on="1"/>
        <pt x="539" y="465" on="1"/>
        <pt x="766" y="465" on="0"/>
        <pt x="967" y="608" on="0"/>
        <pt x="967" y="921" on="0"/>
        <pt x="777" y="1059" on="0"/>
        <pt x="575" y="1059" on="1"/>
      </contour>
    </TTGlyph>
    <TTGlyph name="U" xMin="186" yMin="-20" xMax="1305" yMax="1462">
      <contour>
        <pt x="1305" y="1462" on="1"/>
        <pt x="1305" y="516" on="1"/>
        <pt x="1305" y="265" on="0"/>
        <pt x="1002" y="-20" on="0"/>
        <pt x="476" y="-20" on="0"/>
        <pt x="330" y="124" on="1"/>
        <pt x="186" y="268" on="0"/>
        <pt x="186" y="520" on="1"/>
        <pt x="186" y="1462" on="1"/>
        <pt x="356" y="1462" on="1"/>
        <pt x="356" y="508" on="1"/>
        <pt x="356" y="324" on="0"/>
        <pt x="557" y="129" on="0"/>
        <pt x="935" y="129" on="0"/>
        <pt x="1135" y="327" on="0"/>
        <pt x="1135" y="510" on="1"/>
        <pt x="1135" y="1462" on="1"/>
      </contour>
    </TTGlyph>
    <TTGlyph name="Uacute" xMin="186" yMin="-20" xMax="1305" yMax="1907">
      <contour>
        <pt x="993" y="1907" on="1"/>
        <pt x="993" y="1886" on="1"/>
        <pt x="948" y="1820" on="0"/>
        <pt x="774" y="1630" on="0"/>
        <pt x="711" y="1579" on="1"/>
        <pt x="600" y="1579" on="1"/>
        <pt x="600" y="1604" on="1"/>
        <pt x="648" y="1666" on="0"/>
        <pt x="759" y="1842" on="0"/>
        <pt x="791" y="1907" on="1"/>
      </contour>
      <contour>
        <pt x="1305" y="1462" on="1"/>
        <pt x="1305" y="516" on="1"/>
        <pt x="1305" y="266" on="0"/>
        <pt x="1003" y="-20" on="0"/>
        <pt x="476" y="-20" on="0"/>
        <pt x="186" y="267" on="0"/>
        <pt x="186" y="520" on="1"/>
        <pt x="186" y="1462" on="1"/>
        <pt x="356" y="1462" on="1"/>
        <pt x="356" y="508" on="1"/>
        <pt x="356" y="324" on="0"/>
        <pt x="557" y="129" on="0"/>
        <pt x="935" y="129" on="0"/>
        <pt x="1135" y="326" on="0"/>
        <pt x="1135" y="510" on="1"/>
        <pt x="1135" y="1462" on="1"/>
      </contour>
    </TTGlyph>
    <TTGlyph name="Ucircumflex" xMin="186" yMin="-20" xMax="1305" yMax="1907">
      <contour>
        <pt x="1067" y="1579" on="1"/>
        <pt x="948" y="1579" on="1"/>
        <pt x="862" y="1633" on="0"/>
        <pt x="727" y="1765" on="1"/>
        <pt x="590" y="1632" on="0"/>
        <pt x="508" y="1579" on="1"/>
        <pt x="393" y="1579" on="1"/>
        <pt x="393" y="1602" on="1"/>
        <pt x="522" y="1741" on="0"/>
        <pt x="624" y="1869" on="0"/>
        <pt x="645" y="1907" on="1"/>
        <pt x="811" y="1907" on="1"/>
        <pt x="835" y="1862" on="0"/>
        <pt x="888" y="1799" on="1"/>
        <pt x="934" y="1741" on="0"/>
        <pt x="1067" y="1602" on="1"/>
      </contour>
      <contour>
        <pt x="1305" y="1462" on="1"/>
        <pt x="1305" y="516" on="1"/>
        <pt x="1305" y="266" on="0"/>
        <pt x="1003" y="-20" on="0"/>
        <pt x="476" y="-20" on="0"/>
        <pt x="186" y="267" on="0"/>
        <pt x="186" y="520" on="1"/>
        <pt x="186" y="1462" on="1"/>
        <pt x="356" y="1462" on="1"/>
        <pt x="356" y="508" on="1"/>
        <pt x="356" y="324" on="0"/>
        <pt x="557" y="129" on="0"/>
        <pt x="935" y="129" on="0"/>
        <pt x="1135" y="326" on="0"/>
        <pt x="1135" y="510" on="1"/>
        <pt x="1135" y="1462" on="1"/>
      </contour>
    </TTGlyph>
    <TTGlyph name="Udieresis" xMin="186" yMin="-20" xMax="1305" yMax="1829">
      <contour>
        <pt x="461" y="1780" on="0"/>
        <pt x="511" y="1829" on="0"/>
        <pt x="592" y="1829" on="0"/>
        <pt x="644" y="1780" on="0"/>
        <pt x="644" y="1683" on="0"/>
        <pt x="592" y="1632" on="0"/>
        <pt x="512" y="1632" on="0"/>
        <pt x="461" y="1683" on="0"/>
      </contour>
      <contour>
        <pt x="892" y="1829" on="0"/>
        <pt x="972" y="1829" on="0"/>
        <pt x="1024" y="1780" on="0"/>
        <pt x="1024" y="1683" on="0"/>
        <pt x="971" y="1632" on="0"/>
        <pt x="893" y="1632" on="0"/>
        <pt x="842" y="1683" on="0"/>
        <pt x="842" y="1780" on="0"/>
      </contour>
      <contour>
        <pt x="1305" y="1462" on="1"/>
        <pt x="1305" y="516" on="1"/>
        <pt x="1305" y="266" on="0"/>
        <pt x="1003" y="-20" on="0"/>
        <pt x="476" y="-20" on="0"/>
        <pt x="186" y="267" on="0"/>
        <pt x="186" y="520" on="1"/>
        <pt x="186" y="1462" on="1"/>
        <pt x="356" y="1462" on="1"/>
        <pt x="356" y="508" on="1"/>
        <pt x="356" y="324" on="0"/>
        <pt x="557" y="129" on="0"/>
        <pt x="935" y="129" on="0"/>
        <pt x="1135" y="326" on="0"/>
        <pt x="1135" y="510" on="1"/>
        <pt x="1135" y="1462" on="1"/>
      </contour>
    </TTGlyph>
    <TTGlyph name="Ugrave" xMin="186" yMin="-20" xMax="1305" yMax="1907">
      <contour>
        <pt x="463" y="1907" on="1"/>
        <pt x="666" y="1907" on="1"/>
        <pt x="698" y="1838" on="0"/>
        <pt x="812" y="1657" on="0"/>
        <pt x="856" y="1604" on="1"/>
        <pt x="856" y="1579" on="1"/>
        <pt x="746" y="1579" on="1"/>
        <pt x="680" y="1631" on="0"/>
        <pt x="502" y="1824" on="0"/>
        <pt x="463" y="1886" on="1"/>
      </contour>
      <contour>
        <pt x="1305" y="1462" on="1"/>
        <pt x="1305" y="516" on="1"/>
        <pt x="1305" y="266" on="0"/>
        <pt x="1003" y="-20" on="0"/>
        <pt x="476" y="-20" on="0"/>
        <pt x="186" y="267" on="0"/>
        <pt x="186" y="520" on="1"/>
        <pt x="186" y="1462" on="1"/>
        <pt x="356" y="1462" on="1"/>
        <pt x="356" y="508" on="1"/>
        <pt x="356" y="324" on="0"/>
        <pt x="557" y="129" on="0"/>
        <pt x="935" y="129" on="0"/>
        <pt x="1135" y="326" on="0"/>
        <pt x="1135" y="510" on="1"/>
        <pt x="1135" y="1462" on="1"/>
      </contour>
    </TTGlyph>
    <TTGlyph name="V" xMin="0" yMin="0" xMax="1219" yMax="1462">
      <contour>
        <pt x="692" y="0" on="1"/>
        <pt x="524" y="0" on="1"/>
        <pt x="0" y="1462" on="1"/>
        <pt x="180" y="1462" on="1"/>
        <pt x="516" y="516" on="1"/>
        <pt x="572" y="358" on="0"/>
        <pt x="608" y="199" on="1"/>
        <pt x="645" y="366" on="0"/>
        <pt x="702" y="522" on="1"/>
        <pt x="1036" y="1462" on="1"/>
        <pt x="1219" y="1462" on="1"/>
      </contour>
    </TTGlyph>
    <TTGlyph name="W" xMin="27" yMin="0" xMax="1868" yMax="1462">
      <contour>
        <pt x="1477" y="0" on="1"/>
        <pt x="1309" y="0" on="1"/>
        <pt x="1014" y="978" on="1"/>
        <pt x="990" y="1049" on="0"/>
        <pt x="942" y="1242" on="0"/>
        <pt x="940" y="1262" on="1"/>
        <pt x="917" y="1128" on="0"/>
        <pt x="870" y="972" on="1"/>
        <pt x="584" y="0" on="1"/>
        <pt x="416" y="0" on="1"/>
        <pt x="27" y="1462" on="1"/>
        <pt x="207" y="1462" on="1"/>
        <pt x="438" y="559" on="1"/>
        <pt x="485" y="372" on="0"/>
        <pt x="508" y="215" on="1"/>
        <pt x="534" y="394" on="0"/>
        <pt x="588" y="573" on="1"/>
        <pt x="850" y="1462" on="1"/>
        <pt x="1030" y="1462" on="1"/>
        <pt x="1305" y="565" on="1"/>
        <pt x="1353" y="411" on="0"/>
        <pt x="1386" y="215" on="1"/>
        <pt x="1405" y="356" on="0"/>
        <pt x="1458" y="561" on="1"/>
        <pt x="1688" y="1462" on="1"/>
        <pt x="1868" y="1462" on="1"/>
      </contour>
    </TTGlyph>
    <TTGlyph name="X" xMin="8" yMin="0" xMax="1174" yMax="1462">
      <contour>
        <pt x="686" y="770" on="1"/>
        <pt x="1174" y="0" on="1"/>
        <pt x="980" y="0" on="1"/>
        <pt x="588" y="643" on="1"/>
        <pt x="188" y="0" on="1"/>
        <pt x="8" y="0" on="1"/>
        <pt x="494" y="764" on="1"/>
        <pt x="41" y="1462" on="1"/>
        <pt x="229" y="1462" on="1"/>
        <pt x="592" y="883" on="1"/>
        <pt x="958" y="1462" on="1"/>
        <pt x="1139" y="1462" on="1"/>
      </contour>
    </TTGlyph>
    <TTGlyph name="Y" xMin="0" yMin="0" xMax="1147" yMax="1462">
      <contour>
        <pt x="659" y="0" on="1"/>
        <pt x="487" y="0" on="1"/>
        <pt x="487" y="559" on="1"/>
        <pt x="0" y="1462" on="1"/>
        <pt x="186" y="1462" on="1"/>
        <pt x="573" y="731" on="1"/>
        <pt x="963" y="1462" on="1"/>
        <pt x="1147" y="1462" on="1"/>
        <pt x="659" y="567" on="1"/>
      </contour>
    </TTGlyph>
    <TTGlyph name="Yacute" xMin="0" yMin="0" xMax="1147" yMax="1907">
      <contour>
        <pt x="835" y="1907" on="1"/>
        <pt x="835" y="1886" on="1"/>
        <pt x="790" y="1820" on="0"/>
        <pt x="616" y="1630" on="0"/>
        <pt x="553" y="1579" on="1"/>
        <pt x="442" y="1579" on="1"/>
        <pt x="442" y="1604" on="1"/>
        <pt x="490" y="1666" on="0"/>
        <pt x="601" y="1842" on="0"/>
        <pt x="633" y="1907" on="1"/>
      </contour>
      <contour>
        <pt x="659" y="0" on="1"/>
        <pt x="487" y="0" on="1"/>
        <pt x="487" y="559" on="1"/>
        <pt x="0" y="1462" on="1"/>
        <pt x="186" y="1462" on="1"/>
        <pt x="573" y="731" on="1"/>
        <pt x="963" y="1462" on="1"/>
        <pt x="1147" y="1462" on="1"/>
        <pt x="659" y="567" on="1"/>
      </contour>
    </TTGlyph>
    <TTGlyph name="Ydieresis" xMin="0" yMin="0" xMax="1147" yMax="1829">
      <contour>
        <pt x="294" y="1780" on="0"/>
        <pt x="344" y="1829" on="0"/>
        <pt x="425" y="1829" on="0"/>
        <pt x="477" y="1780" on="0"/>
        <pt x="477" y="1683" on="0"/>
        <pt x="425" y="1632" on="0"/>
        <pt x="345" y="1632" on="0"/>
        <pt x="294" y="1683" on="0"/>
      </contour>
      <contour>
        <pt x="725" y="1829" on="0"/>
        <pt x="805" y="1829" on="0"/>
        <pt x="857" y="1780" on="0"/>
        <pt x="857" y="1683" on="0"/>
        <pt x="804" y="1632" on="0"/>
        <pt x="726" y="1632" on="0"/>
        <pt x="675" y="1683" on="0"/>
        <pt x="675" y="1780" on="0"/>
      </contour>
      <contour>
        <pt x="659" y="0" on="1"/>
        <pt x="487" y="0" on="1"/>
        <pt x="487" y="559" on="1"/>
        <pt x="0" y="1462" on="1"/>
        <pt x="186" y="1462" on="1"/>
        <pt x="573" y="731" on="1"/>
        <pt x="963" y="1462" on="1"/>
        <pt x="1147" y="1462" on="1"/>
        <pt x="659" y="567" on="1"/>
      </contour>
    </TTGlyph>
    <TTGlyph name="Z" xMin="82" yMin="0" xMax="1087" yMax="1462">
      <contour>
        <pt x="1087" y="154" on="1"/>
        <pt x="1087" y="0" on="1"/>
        <pt x="82" y="0" on="1"/>
        <pt x="82" y="133" on="1"/>
        <pt x="858" y="1309" on="1"/>
        <pt x="106" y="1309" on="1"/>
        <pt x="106" y="1462" on="1"/>
        <pt x="1065" y="1462" on="1"/>
        <pt x="1065" y="1329" on="1"/>
        <pt x="289" y="154" on="1"/>
      </contour>
    </TTGlyph>
    <TTGlyph name="Zcaron" xMin="82" yMin="0" xMax="1087" yMax="1907">
      <contour>
        <pt x="249" y="1907" on="1"/>
        <pt x="364" y="1907" on="1"/>
        <pt x="478" y="1834" on="0"/>
        <pt x="583" y="1718" on="1"/>
        <pt x="715" y="1850" on="0"/>
        <pt x="804" y="1907" on="1"/>
        <pt x="923" y="1907" on="1"/>
        <pt x="923" y="1882" on="1"/>
        <pt x="857" y="1814" on="1"/>
        <pt x="714" y="1666" on="0"/>
        <pt x="667" y="1579" on="1"/>
        <pt x="501" y="1579" on="1"/>
        <pt x="479" y="1619" on="0"/>
        <pt x="376" y="1746" on="0"/>
        <pt x="249" y="1882" on="1"/>
      </contour>
      <contour>
        <pt x="1087" y="154" on="1"/>
        <pt x="1087" y="0" on="1"/>
        <pt x="82" y="0" on="1"/>
        <pt x="82" y="133" on="1"/>
        <pt x="858" y="1309" on="1"/>
        <pt x="106" y="1309" on="1"/>
        <pt x="106" y="1462" on="1"/>
        <pt x="1065" y="1462" on="1"/>
        <pt x="1065" y="1329" on="1"/>
        <pt x="289" y="154" on="1"/>
      </contour>
    </TTGlyph>
    <TTGlyph name="a" xMin="93" yMin="-20" xMax="972" yMax="1114">
      <contour>
        <pt x="217" y="1020" on="1"/>
        <pt x="389" y="1114" on="0"/>
        <pt x="785" y="1114" on="0"/>
        <pt x="972" y="939" on="0"/>
        <pt x="972" y="748" on="1"/>
        <pt x="972" y="0" on="1"/>
        <pt x="850" y="0" on="1"/>
        <pt x="817" y="156" on="1"/>
        <pt x="809" y="156" on="1"/>
        <pt x="727" y="53" on="0"/>
        <pt x="564" y="-20" on="0"/>
        <pt x="442" y="-20" on="1"/>
        <pt x="279" y="-20" on="0"/>
        <pt x="93" y="149" on="0"/>
        <pt x="93" y="303" on="1"/>
        <pt x="93" y="634" on="0"/>
        <pt x="625" y="651" on="1"/>
        <pt x="811" y="657" on="1"/>
        <pt x="811" y="725" on="1"/>
        <pt x="811" y="855" on="0"/>
        <pt x="700" y="976" on="0"/>
        <pt x="438" y="976" on="0"/>
        <pt x="268" y="893" on="1"/>
      </contour>
      <contour>
        <pt x="268" y="301" on="1"/>
        <pt x="268" y="212" on="0"/>
        <pt x="376" y="117" on="0"/>
        <pt x="475" y="117" on="1"/>
        <pt x="630" y="117" on="0"/>
        <pt x="807" y="288" on="0"/>
        <pt x="807" y="440" on="1"/>
        <pt x="807" y="539" on="1"/>
        <pt x="641" y="532" on="1"/>
        <pt x="443" y="525" on="0"/>
        <pt x="268" y="416" on="0"/>
      </contour>
    </TTGlyph>
    <TTGlyph name="aacute" xMin="94" yMin="-20" xMax="973" yMax="1569">
      <contour>
        <pt x="829" y="1569" on="1"/>
        <pt x="829" y="1548" on="1"/>
        <pt x="784" y="1482" on="0"/>
        <pt x="610" y="1292" on="0"/>
        <pt x="547" y="1241" on="1"/>
        <pt x="436" y="1241" on="1"/>
        <pt x="436" y="1266" on="1"/>
        <pt x="484" y="1328" on="0"/>
        <pt x="595" y="1504" on="0"/>
        <pt x="627" y="1569" on="1"/>
      </contour>
      <contour>
        <pt x="217" y="1020" on="1"/>
        <pt x="389" y="1114" on="0"/>
        <pt x="785" y="1114" on="0"/>
        <pt x="973" y="939" on="0"/>
        <pt x="973" y="748" on="1"/>
        <pt x="973" y="0" on="1"/>
        <pt x="850" y="0" on="1"/>
        <pt x="817" y="156" on="1"/>
        <pt x="809" y="156" on="1"/>
        <pt x="729" y="55" on="0"/>
        <pt x="567" y="-20" on="0"/>
        <pt x="442" y="-20" on="1"/>
        <pt x="278" y="-20" on="0"/>
        <pt x="94" y="149" on="0"/>
        <pt x="94" y="303" on="1"/>
        <pt x="94" y="634" on="0"/>
        <pt x="625" y="651" on="1"/>
        <pt x="811" y="657" on="1"/>
        <pt x="811" y="725" on="1"/>
        <pt x="811" y="855" on="0"/>
        <pt x="699" y="977" on="0"/>
        <pt x="440" y="977" on="0"/>
        <pt x="268" y="893" on="1"/>
      </contour>
      <contour>
        <pt x="268" y="301" on="1"/>
        <pt x="268" y="212" on="0"/>
        <pt x="376" y="117" on="0"/>
        <pt x="475" y="117" on="1"/>
        <pt x="631" y="117" on="0"/>
        <pt x="807" y="287" on="0"/>
        <pt x="807" y="440" on="1"/>
        <pt x="807" y="539" on="1"/>
        <pt x="641" y="532" on="1"/>
        <pt x="443" y="525" on="0"/>
        <pt x="268" y="416" on="0"/>
      </contour>
    </TTGlyph>
    <TTGlyph name="acircumflex" xMin="94" yMin="-20" xMax="973" yMax="1569">
      <contour>
        <pt x="902" y="1241" on="1"/>
        <pt x="783" y="1241" on="1"/>
        <pt x="697" y="1295" on="0"/>
        <pt x="562" y="1427" on="1"/>
        <pt x="426" y="1294" on="0"/>
        <pt x="343" y="1241" on="1"/>
        <pt x="228" y="1241" on="1"/>
        <pt x="228" y="1264" on="1"/>
        <pt x="357" y="1403" on="0"/>
        <pt x="459" y="1531" on="0"/>
        <pt x="480" y="1569" on="1"/>
        <pt x="646" y="1569" on="1"/>
        <pt x="670" y="1524" on="0"/>
        <pt x="723" y="1461" on="1"/>
        <pt x="769" y="1403" on="0"/>
        <pt x="902" y="1264" on="1"/>
      </contour>
      <contour>
        <pt x="217" y="1020" on="1"/>
        <pt x="389" y="1114" on="0"/>
        <pt x="785" y="1114" on="0"/>
        <pt x="973" y="939" on="0"/>
        <pt x="973" y="748" on="1"/>
        <pt x="973" y="0" on="1"/>
        <pt x="850" y="0" on="1"/>
        <pt x="817" y="156" on="1"/>
        <pt x="809" y="156" on="1"/>
        <pt x="729" y="55" on="0"/>
        <pt x="567" y="-20" on="0"/>
        <pt x="442" y="-20" on="1"/>
        <pt x="278" y="-20" on="0"/>
        <pt x="94" y="149" on="0"/>
        <pt x="94" y="303" on="1"/>
        <pt x="94" y="634" on="0"/>
        <pt x="625" y="651" on="1"/>
        <pt x="811" y="657" on="1"/>
        <pt x="811" y="725" on="1"/>
        <pt x="811" y="855" on="0"/>
        <pt x="699" y="977" on="0"/>
        <pt x="440" y="977" on="0"/>
        <pt x="268" y="893" on="1"/>
      </contour>
      <contour>
        <pt x="268" y="301" on="1"/>
        <pt x="268" y="212" on="0"/>
        <pt x="376" y="117" on="0"/>
        <pt x="475" y="117" on="1"/>
        <pt x="631" y="117" on="0"/>
        <pt x="807" y="287" on="0"/>
        <pt x="807" y="440" on="1"/>
        <pt x="807" y="539" on="1"/>
        <pt x="641" y="532" on="1"/>
        <pt x="443" y="525" on="0"/>
        <pt x="268" y="416" on="0"/>
      </contour>
    </TTGlyph>
    <TTGlyph name="acute" xMin="393" yMin="1241" xMax="786" yMax="1569">
      <contour>
        <pt x="786" y="1569" on="1"/>
        <pt x="786" y="1548" on="1"/>
        <pt x="741" y="1482" on="0"/>
        <pt x="567" y="1292" on="0"/>
        <pt x="504" y="1241" on="1"/>
        <pt x="393" y="1241" on="1"/>
        <pt x="393" y="1266" on="1"/>
        <pt x="441" y="1328" on="0"/>
        <pt x="552" y="1504" on="0"/>
        <pt x="584" y="1569" on="1"/>
      </contour>
    </TTGlyph>
    <TTGlyph name="adieresis" xMin="94" yMin="-20" xMax="973" yMax="1491">
      <contour>
        <pt x="279" y="1442" on="0"/>
        <pt x="329" y="1491" on="0"/>
        <pt x="410" y="1491" on="0"/>
        <pt x="462" y="1442" on="0"/>
        <pt x="462" y="1345" on="0"/>
        <pt x="410" y="1294" on="0"/>
        <pt x="330" y="1294" on="0"/>
        <pt x="279" y="1345" on="0"/>
      </contour>
      <contour>
        <pt x="710" y="1491" on="0"/>
        <pt x="790" y="1491" on="0"/>
        <pt x="842" y="1442" on="0"/>
        <pt x="842" y="1345" on="0"/>
        <pt x="789" y="1294" on="0"/>
        <pt x="711" y="1294" on="0"/>
        <pt x="660" y="1345" on="0"/>
        <pt x="660" y="1442" on="0"/>
      </contour>
      <contour>
        <pt x="217" y="1020" on="1"/>
        <pt x="389" y="1114" on="0"/>
        <pt x="785" y="1114" on="0"/>
        <pt x="973" y="939" on="0"/>
        <pt x="973" y="748" on="1"/>
        <pt x="973" y="0" on="1"/>
        <pt x="850" y="0" on="1"/>
        <pt x="817" y="156" on="1"/>
        <pt x="809" y="156" on="1"/>
        <pt x="729" y="55" on="0"/>
        <pt x="567" y="-20" on="0"/>
        <pt x="442" y="-20" on="1"/>
        <pt x="278" y="-20" on="0"/>
        <pt x="94" y="149" on="0"/>
        <pt x="94" y="303" on="1"/>
        <pt x="94" y="634" on="0"/>
        <pt x="625" y="651" on="1"/>
        <pt x="811" y="657" on="1"/>
        <pt x="811" y="725" on="1"/>
        <pt x="811" y="855" on="0"/>
        <pt x="699" y="977" on="0"/>
        <pt x="440" y="977" on="0"/>
        <pt x="268" y="893" on="1"/>
      </contour>
      <contour>
        <pt x="268" y="301" on="1"/>
        <pt x="268" y="212" on="0"/>
        <pt x="376" y="117" on="0"/>
        <pt x="475" y="117" on="1"/>
        <pt x="631" y="117" on="0"/>
        <pt x="807" y="287" on="0"/>
        <pt x="807" y="440" on="1"/>
        <pt x="807" y="539" on="1"/>
        <pt x="641" y="532" on="1"/>
        <pt x="443" y="525" on="0"/>
        <pt x="268" y="416" on="0"/>
      </contour>
    </TTGlyph>
    <TTGlyph name="ae" xMin="94" yMin="-20" xMax="1651" yMax="1116">
      <contour>
        <pt x="557" y="1114" on="1"/>
        <pt x="688" y="1114" on="0"/>
        <pt x="852" y="1026" on="0"/>
        <pt x="893" y="932" on="1"/>
        <pt x="947" y="1021" on="0"/>
        <pt x="1118" y="1116" on="0"/>
        <pt x="1227" y="1116" on="1"/>
        <pt x="1419" y="1116" on="0"/>
        <pt x="1651" y="849" on="0"/>
        <pt x="1651" y="627" on="1"/>
        <pt x="1651" y="520" on="1"/>
        <pt x="950" y="520" on="1"/>
        <pt x="958" y="125" on="0"/>
        <pt x="1272" y="125" on="1"/>
        <pt x="1445" y="125" on="0"/>
        <pt x="1604" y="199" on="1"/>
        <pt x="1604" y="51" on="1"/>
        <pt x="1516" y="12" on="0"/>
        <pt x="1368" y="-20" on="0"/>
        <pt x="1268" y="-20" on="1"/>
        <pt x="979" y="-20" on="0"/>
        <pt x="854" y="213" on="1"/>
        <pt x="774" y="88" on="0"/>
        <pt x="579" y="-20" on="0"/>
        <pt x="442" y="-20" on="1"/>
        <pt x="279" y="-20" on="0"/>
        <pt x="94" y="150" on="0"/>
        <pt x="94" y="466" on="0"/>
        <pt x="344" y="643" on="0"/>
        <pt x="596" y="651" on="1"/>
        <pt x="780" y="657" on="1"/>
        <pt x="780" y="725" on="1"/>
        <pt x="780" y="854" on="0"/>
        <pt x="665" y="977" on="0"/>
        <pt x="545" y="977" on="1"/>
        <pt x="402" y="977" on="0"/>
        <pt x="238" y="893" on="1"/>
        <pt x="186" y="1020" on="1"/>
        <pt x="262" y="1062" on="0"/>
        <pt x="461" y="1114" on="0"/>
      </contour>
      <contour>
        <pt x="1473" y="653" on="1"/>
        <pt x="1473" y="809" on="0"/>
        <pt x="1345" y="977" on="0"/>
        <pt x="1104" y="977" on="0"/>
        <pt x="965" y="811" on="0"/>
        <pt x="954" y="653" on="1"/>
      </contour>
      <contour>
        <pt x="268" y="301" on="1"/>
        <pt x="268" y="209" on="0"/>
        <pt x="372" y="117" on="0"/>
        <pt x="463" y="117" on="1"/>
        <pt x="609" y="117" on="0"/>
        <pt x="776" y="287" on="0"/>
        <pt x="776" y="440" on="1"/>
        <pt x="776" y="539" on="1"/>
        <pt x="618" y="532" on="1"/>
        <pt x="432" y="524" on="0"/>
        <pt x="268" y="415" on="0"/>
      </contour>
    </TTGlyph>
    <TTGlyph name="agrave" xMin="94" yMin="-20" xMax="973" yMax="1569">
      <contour>
        <pt x="279" y="1569" on="1"/>
        <pt x="482" y="1569" on="1"/>
        <pt x="514" y="1500" on="0"/>
        <pt x="628" y="1319" on="0"/>
        <pt x="672" y="1266" on="1"/>
        <pt x="672" y="1241" on="1"/>
        <pt x="562" y="1241" on="1"/>
        <pt x="496" y="1293" on="0"/>
        <pt x="318" y="1486" on="0"/>
        <pt x="279" y="1548" on="1"/>
      </contour>
      <contour>
        <pt x="217" y="1020" on="1"/>
        <pt x="389" y="1114" on="0"/>
        <pt x="785" y="1114" on="0"/>
        <pt x="973" y="939" on="0"/>
        <pt x="973" y="748" on="1"/>
        <pt x="973" y="0" on="1"/>
        <pt x="850" y="0" on="1"/>
        <pt x="817" y="156" on="1"/>
        <pt x="809" y="156" on="1"/>
        <pt x="729" y="55" on="0"/>
        <pt x="567" y="-20" on="0"/>
        <pt x="442" y="-20" on="1"/>
        <pt x="278" y="-20" on="0"/>
        <pt x="94" y="149" on="0"/>
        <pt x="94" y="303" on="1"/>
        <pt x="94" y="634" on="0"/>
        <pt x="625" y="651" on="1"/>
        <pt x="811" y="657" on="1"/>
        <pt x="811" y="725" on="1"/>
        <pt x="811" y="855" on="0"/>
        <pt x="699" y="977" on="0"/>
        <pt x="440" y="977" on="0"/>
        <pt x="268" y="893" on="1"/>
      </contour>
      <contour>
        <pt x="268" y="301" on="1"/>
        <pt x="268" y="212" on="0"/>
        <pt x="376" y="117" on="0"/>
        <pt x="475" y="117" on="1"/>
        <pt x="631" y="117" on="0"/>
        <pt x="807" y="287" on="0"/>
        <pt x="807" y="440" on="1"/>
        <pt x="807" y="539" on="1"/>
        <pt x="641" y="532" on="1"/>
        <pt x="443" y="525" on="0"/>
        <pt x="268" y="416" on="0"/>
      </contour>
    </TTGlyph>
    <TTGlyph name="alefdageshhb" xMin="92" yMin="0" xMax="1065" yMax="1290">
      <contour>
        <pt x="1043" y="1290" on="1"/>
        <pt x="1043" y="871" on="1"/>
        <pt x="1043" y="789" on="0"/>
        <pt x="1029" y="670" on="0"/>
        <pt x="1007" y="604" on="1"/>
        <pt x="962" y="470" on="0"/>
        <pt x="816" y="413" on="1"/>
        <pt x="1065" y="0" on="1"/>
        <pt x="878" y="0" on="1"/>
        <pt x="563" y="539" on="1"/>
        <pt x="411" y="767" on="1"/>
        <pt x="371" y="752" on="0"/>
        <pt x="353" y="737" on="1"/>
        <pt x="258" y="660" on="0"/>
        <pt x="258" y="479" on="1"/>
        <pt x="258" y="0" on="1"/>
        <pt x="92" y="0" on="1"/>
        <pt x="92" y="419" on="1"/>
        <pt x="92" y="638" on="0"/>
        <pt x="157" y="744" on="1"/>
        <pt x="183" y="787" on="0"/>
        <pt x="276" y="862" on="0"/>
        <pt x="341" y="884" on="1"/>
        <pt x="93" y="1290" on="1"/>
        <pt x="281" y="1290" on="1"/>
        <pt x="577" y="791" on="1"/>
        <pt x="744" y="532" on="1"/>
        <pt x="795" y="562" on="0"/>
        <pt x="844" y="626" on="0"/>
        <pt x="877" y="736" on="0"/>
        <pt x="877" y="811" on="1"/>
        <pt x="877" y="1290" on="1"/>
      </contour>
      <contour>
        <pt x="465" y="461" on="1"/>
        <pt x="538" y="461" on="0"/>
        <pt x="538" y="288" on="0"/>
        <pt x="465" y="288" on="1"/>
        <pt x="395" y="288" on="0"/>
        <pt x="395" y="461" on="0"/>
      </contour>
    </TTGlyph>
    <TTGlyph name="alefpatahhb" xMin="92" yMin="-225" xMax="1065" yMax="1290">
      <contour>
        <pt x="1043" y="1290" on="1"/>
        <pt x="1043" y="871" on="1"/>
        <pt x="1043" y="789" on="0"/>
        <pt x="1029" y="670" on="0"/>
        <pt x="1007" y="604" on="1"/>
        <pt x="962" y="470" on="0"/>
        <pt x="816" y="413" on="1"/>
        <pt x="1065" y="0" on="1"/>
        <pt x="878" y="0" on="1"/>
        <pt x="563" y="539" on="1"/>
        <pt x="411" y="767" on="1"/>
        <pt x="371" y="752" on="0"/>
        <pt x="353" y="737" on="1"/>
        <pt x="258" y="660" on="0"/>
        <pt x="258" y="479" on="1"/>
        <pt x="258" y="0" on="1"/>
        <pt x="92" y="0" on="1"/>
        <pt x="92" y="419" on="1"/>
        <pt x="92" y="638" on="0"/>
        <pt x="157" y="744" on="1"/>
        <pt x="183" y="787" on="0"/>
        <pt x="276" y="862" on="0"/>
        <pt x="341" y="884" on="1"/>
        <pt x="93" y="1290" on="1"/>
        <pt x="281" y="1290" on="1"/>
        <pt x="577" y="791" on="1"/>
        <pt x="744" y="532" on="1"/>
        <pt x="795" y="562" on="0"/>
        <pt x="844" y="626" on="0"/>
        <pt x="877" y="736" on="0"/>
        <pt x="877" y="811" on="1"/>
        <pt x="877" y="1290" on="1"/>
      </contour>
      <contour>
        <pt x="782" y="-225" on="1"/>
        <pt x="372" y="-225" on="1"/>
        <pt x="372" y="-143" on="1"/>
        <pt x="782" y="-143" on="1"/>
      </contour>
    </TTGlyph>
    <TTGlyph name="alefqamatshb" xMin="92" yMin="-457" xMax="1065" yMax="1290">
      <contour>
        <pt x="1043" y="1290" on="1"/>
        <pt x="1043" y="871" on="1"/>
        <pt x="1043" y="789" on="0"/>
        <pt x="1029" y="670" on="0"/>
        <pt x="1007" y="604" on="1"/>
        <pt x="962" y="470" on="0"/>
        <pt x="816" y="413" on="1"/>
        <pt x="1065" y="0" on="1"/>
        <pt x="878" y="0" on="1"/>
        <pt x="563" y="539" on="1"/>
        <pt x="411" y="767" on="1"/>
        <pt x="371" y="752" on="0"/>
        <pt x="353" y="737" on="1"/>
        <pt x="258" y="660" on="0"/>
        <pt x="258" y="479" on="1"/>
        <pt x="258" y="0" on="1"/>
        <pt x="92" y="0" on="1"/>
        <pt x="92" y="419" on="1"/>
        <pt x="92" y="638" on="0"/>
        <pt x="157" y="744" on="1"/>
        <pt x="183" y="787" on="0"/>
        <pt x="276" y="862" on="0"/>
        <pt x="341" y="884" on="1"/>
        <pt x="93" y="1290" on="1"/>
        <pt x="281" y="1290" on="1"/>
        <pt x="577" y="791" on="1"/>
        <pt x="744" y="532" on="1"/>
        <pt x="795" y="562" on="0"/>
        <pt x="844" y="626" on="0"/>
        <pt x="877" y="736" on="0"/>
        <pt x="877" y="811" on="1"/>
        <pt x="877" y="1290" on="1"/>
      </contour>
      <contour>
        <pt x="782" y="-225" on="1"/>
        <pt x="618" y="-225" on="1"/>
        <pt x="618" y="-457" on="1"/>
        <pt x="536" y="-457" on="1"/>
        <pt x="536" y="-225" on="1"/>
        <pt x="372" y="-225" on="1"/>
        <pt x="372" y="-143" on="1"/>
        <pt x="782" y="-143" on="1"/>
      </contour>
    </TTGlyph>
    <TTGlyph name="ampersand" xMin="113" yMin="-20" xMax="1491" yMax="1485">
      <contour>
        <pt x="565" y="-20" on="1"/>
        <pt x="349" y="-20" on="0"/>
        <pt x="113" y="192" on="0"/>
        <pt x="113" y="379" on="1"/>
        <pt x="113" y="508" on="0"/>
        <pt x="182" y="609" on="1"/>
        <pt x="252" y="709" on="0"/>
        <pt x="432" y="811" on="1"/>
        <pt x="350" y="902" on="0"/>
        <pt x="318" y="952" on="1"/>
        <pt x="250" y="1059" on="0"/>
        <pt x="250" y="1167" on="1"/>
        <pt x="250" y="1317" on="0"/>
        <pt x="446" y="1485" on="0"/>
        <pt x="783" y="1485" on="0"/>
        <pt x="968" y="1319" on="0"/>
        <pt x="968" y="1169" on="1"/>
        <pt x="968" y="1062" on="0"/>
        <pt x="901" y="970" on="1"/>
        <pt x="833" y="881" on="0"/>
        <pt x="676" y="788" on="1"/>
        <pt x="1083" y="397" on="1"/>
        <pt x="1176" y="500" on="0"/>
        <pt x="1229" y="725" on="1"/>
        <pt x="1397" y="725" on="1"/>
        <pt x="1330" y="441" on="0"/>
        <pt x="1192" y="291" on="1"/>
        <pt x="1491" y="0" on="1"/>
        <pt x="1262" y="0" on="1"/>
        <pt x="1077" y="178" on="1"/>
        <pt x="958" y="72" on="0"/>
        <pt x="717" y="-20" on="0"/>
      </contour>
      <contour>
        <pt x="803" y="1252" on="0"/>
        <pt x="700" y="1348" on="0"/>
        <pt x="524" y="1348" on="0"/>
        <pt x="414" y="1252" on="0"/>
        <pt x="414" y="1102" on="0"/>
        <pt x="484" y="980" on="0"/>
        <pt x="573" y="889" on="1"/>
        <pt x="705" y="966" on="0"/>
        <pt x="803" y="1092" on="0"/>
      </contour>
      <contour>
        <pt x="362" y="197" on="1"/>
        <pt x="441" y="129" on="0"/>
        <pt x="569" y="129" on="1"/>
        <pt x="811" y="129" on="0"/>
        <pt x="968" y="283" on="1"/>
        <pt x="532" y="707" on="1"/>
        <pt x="424" y="641" on="0"/>
        <pt x="378" y="596" on="1"/>
        <pt x="285" y="508" on="0"/>
        <pt x="285" y="266" on="0"/>
      </contour>
    </TTGlyph>
    <TTGlyph name="aring" xMin="94" yMin="-20" xMax="973" yMax="1669">
      <contour>
        <pt x="358" y="1554" on="0"/>
        <pt x="479" y="1669" on="0"/>
        <pt x="680" y="1669" on="0"/>
        <pt x="804" y="1551" on="0"/>
        <pt x="804" y="1360" on="0"/>
        <pt x="681" y="1241" on="0"/>
        <pt x="478" y="1241" on="0"/>
        <pt x="358" y="1358" on="0"/>
      </contour>
      <contour>
        <pt x="631" y="1573" on="0"/>
        <pt x="527" y="1573" on="0"/>
        <pt x="462" y="1511" on="0"/>
        <pt x="462" y="1400" on="0"/>
        <pt x="522" y="1339" on="0"/>
        <pt x="632" y="1339" on="0"/>
        <pt x="696" y="1401" on="0"/>
        <pt x="696" y="1511" on="0"/>
      </contour>
      <contour>
        <pt x="217" y="1020" on="1"/>
        <pt x="389" y="1114" on="0"/>
        <pt x="785" y="1114" on="0"/>
        <pt x="973" y="939" on="0"/>
        <pt x="973" y="748" on="1"/>
        <pt x="973" y="0" on="1"/>
        <pt x="850" y="0" on="1"/>
        <pt x="817" y="156" on="1"/>
        <pt x="809" y="156" on="1"/>
        <pt x="729" y="55" on="0"/>
        <pt x="567" y="-20" on="0"/>
        <pt x="442" y="-20" on="1"/>
        <pt x="278" y="-20" on="0"/>
        <pt x="94" y="149" on="0"/>
        <pt x="94" y="303" on="1"/>
        <pt x="94" y="634" on="0"/>
        <pt x="625" y="651" on="1"/>
        <pt x="811" y="657" on="1"/>
        <pt x="811" y="725" on="1"/>
        <pt x="811" y="855" on="0"/>
        <pt x="699" y="977" on="0"/>
        <pt x="440" y="977" on="0"/>
        <pt x="268" y="893" on="1"/>
      </contour>
      <contour>
        <pt x="268" y="301" on="1"/>
        <pt x="268" y="212" on="0"/>
        <pt x="376" y="117" on="0"/>
        <pt x="475" y="117" on="1"/>
        <pt x="631" y="117" on="0"/>
        <pt x="807" y="287" on="0"/>
        <pt x="807" y="440" on="1"/>
        <pt x="807" y="539" on="1"/>
        <pt x="641" y="532" on="1"/>
        <pt x="443" y="525" on="0"/>
        <pt x="268" y="416" on="0"/>
      </contour>
    </TTGlyph>
    <TTGlyph name="asciicircum" xMin="49" yMin="551" xMax="1059" yMax="1473">
      <contour>
        <pt x="1059" y="551" on="1"/>
        <pt x="907" y="551" on="1"/>
        <pt x="535" y="1296" on="1"/>
        <pt x="201" y="551" on="1"/>
        <pt x="49" y="551" on="1"/>
        <pt x="483" y="1473" on="1"/>
        <pt x="582" y="1473" on="1"/>
      </contour>
    </TTGlyph>
    <TTGlyph name="asciitilde" xMin="104" yMin="592" xMax="1065" yMax="852">
      <contour>
        <pt x="1065" y="702" on="1"/>
        <pt x="961" y="592" on="0"/>
        <pt x="696" y="592" on="0"/>
        <pt x="551" y="657" on="1"/>
        <pt x="473" y="690" on="0"/>
        <pt x="386" y="713" on="0"/>
        <pt x="285" y="713" on="0"/>
        <pt x="159" y="647" on="0"/>
        <pt x="104" y="592" on="1"/>
        <pt x="104" y="743" on="1"/>
        <pt x="204" y="852" on="0"/>
        <pt x="348" y="852" on="1"/>
        <pt x="414" y="852" on="0"/>
        <pt x="525" y="825" on="0"/>
        <pt x="749" y="731" on="0"/>
        <pt x="829" y="731" on="1"/>
        <pt x="884" y="731" on="0"/>
        <pt x="1011" y="796" on="0"/>
        <pt x="1065" y="852" on="1"/>
      </contour>
    </TTGlyph>
    <TTGlyph name="asterisk" xMin="86" yMin="639" xMax="1038" yMax="1556">
      <contour>
        <pt x="614" y="1161" on="1"/>
        <pt x="1012" y="1272" on="1"/>
        <pt x="1038" y="1090" on="1"/>
        <pt x="657" y="1059" on="1"/>
        <pt x="905" y="733" on="1"/>
        <pt x="733" y="639" on="1"/>
        <pt x="557" y="1001" on="1"/>
        <pt x="397" y="639" on="1"/>
        <pt x="221" y="733" on="1"/>
        <pt x="463" y="1059" on="1"/>
        <pt x="86" y="1090" on="1"/>
        <pt x="115" y="1272" on="1"/>
        <pt x="506" y="1161" on="1"/>
        <pt x="463" y="1556" on="1"/>
        <pt x="657" y="1556" on="1"/>
      </contour>
    </TTGlyph>
    <TTGlyph name="at" xMin="121" yMin="-186" xMax="1720" yMax="1460">
      <contour>
        <pt x="885" y="-186" on="1"/>
        <pt x="521" y="-186" on="0"/>
        <pt x="121" y="213" on="0"/>
        <pt x="121" y="571" on="1"/>
        <pt x="121" y="831" on="0"/>
        <pt x="335" y="1237" on="0"/>
        <pt x="533" y="1348" on="1"/>
        <pt x="730" y="1460" on="0"/>
        <pt x="986" y="1460" on="1"/>
        <pt x="1203" y="1460" on="0"/>
        <pt x="1369" y="1369" on="1"/>
        <pt x="1536" y="1280" on="0"/>
        <pt x="1720" y="945" on="0"/>
        <pt x="1720" y="729" on="1"/>
        <pt x="1720" y="589" on="0"/>
        <pt x="1633" y="352" on="0"/>
        <pt x="1472" y="221" on="0"/>
        <pt x="1281" y="221" on="0"/>
        <pt x="1163" y="327" on="0"/>
        <pt x="1153" y="406" on="1"/>
        <pt x="1145" y="406" on="1"/>
        <pt x="1105" y="318" on="0"/>
        <pt x="954" y="221" on="0"/>
        <pt x="854" y="221" on="1"/>
        <pt x="704" y="221" on="0"/>
        <pt x="619" y="323" on="1"/>
        <pt x="535" y="426" on="0"/>
        <pt x="535" y="602" on="1"/>
        <pt x="535" y="806" on="0"/>
        <pt x="772" y="1061" on="0"/>
        <pt x="963" y="1061" on="1"/>
        <pt x="1035" y="1061" on="0"/>
        <pt x="1206" y="1035" on="0"/>
        <pt x="1272" y="1014" on="1"/>
        <pt x="1247" y="544" on="1"/>
        <pt x="1247" y="522" on="1"/>
        <pt x="1247" y="344" on="0"/>
        <pt x="1380" y="344" on="1"/>
        <pt x="1471" y="344" on="0"/>
        <pt x="1585" y="559" on="0"/>
        <pt x="1585" y="731" on="1"/>
        <pt x="1585" y="736" on="0"/>
        <pt x="1585" y="740" on="1"/>
        <pt x="1585" y="913" on="0"/>
        <pt x="1436" y="1184" on="0"/>
        <pt x="1166" y="1331" on="0"/>
        <pt x="995" y="1331" on="1"/>
        <pt x="991" y="1331" on="0"/>
        <pt x="979" y="1331" on="0"/>
        <pt x="973" y="1331" on="1"/>
        <pt x="762" y="1331" on="0"/>
        <pt x="434" y="1145" on="0"/>
        <pt x="260" y="806" on="0"/>
        <pt x="260" y="588" on="1"/>
        <pt x="260" y="583" on="0"/>
        <pt x="260" y="578" on="1"/>
        <pt x="260" y="273" on="0"/>
        <pt x="582" y="-55" on="0"/>
        <pt x="885" y="-55" on="1"/>
        <pt x="1093" y="-55" on="0"/>
        <pt x="1321" y="31" on="1"/>
        <pt x="1321" y="-102" on="1"/>
        <pt x="1129" y="-186" on="0"/>
      </contour>
      <contour>
        <pt x="963" y="938" on="1"/>
        <pt x="833" y="938" on="0"/>
        <pt x="686" y="758" on="0"/>
        <pt x="686" y="598" on="1"/>
        <pt x="686" y="344" on="0"/>
        <pt x="881" y="344" on="1"/>
        <pt x="1088" y="344" on="0"/>
        <pt x="1106" y="657" on="1"/>
        <pt x="1120" y="918" on="1"/>
        <pt x="1046" y="938" on="0"/>
      </contour>
    </TTGlyph>
    <TTGlyph name="atilde" xMin="94" yMin="-20" xMax="973" yMax="1501">
      <contour>
        <pt x="721" y="1243" on="1"/>
        <pt x="661" y="1243" on="0"/>
        <pt x="557" y="1303" on="1"/>
        <pt x="519" y="1325" on="0"/>
        <pt x="503" y="1334" on="1"/>
        <pt x="449" y="1362" on="0"/>
        <pt x="361" y="1362" on="0"/>
        <pt x="310" y="1304" on="0"/>
        <pt x="295" y="1241" on="1"/>
        <pt x="197" y="1241" on="1"/>
        <pt x="210" y="1362" on="0"/>
        <pt x="325" y="1499" on="0"/>
        <pt x="416" y="1499" on="1"/>
        <pt x="485" y="1499" on="0"/>
        <pt x="587" y="1440" on="1"/>
        <pt x="602" y="1430" on="0"/>
        <pt x="622" y="1420" on="0"/>
        <pt x="643" y="1408" on="0"/>
        <pt x="652" y="1404" on="0"/>
        <pt x="671" y="1394" on="0"/>
        <pt x="682" y="1390" on="0"/>
        <pt x="698" y="1384" on="0"/>
        <pt x="704" y="1383" on="1"/>
        <pt x="722" y="1380" on="0"/>
        <pt x="730" y="1380" on="1"/>
        <pt x="777" y="1380" on="0"/>
        <pt x="826" y="1436" on="0"/>
        <pt x="842" y="1501" on="1"/>
        <pt x="941" y="1501" on="1"/>
        <pt x="928" y="1379" on="0"/>
        <pt x="814" y="1243" on="0"/>
      </contour>
      <contour>
        <pt x="217" y="1020" on="1"/>
        <pt x="389" y="1114" on="0"/>
        <pt x="785" y="1114" on="0"/>
        <pt x="973" y="939" on="0"/>
        <pt x="973" y="748" on="1"/>
        <pt x="973" y="0" on="1"/>
        <pt x="850" y="0" on="1"/>
        <pt x="817" y="156" on="1"/>
        <pt x="809" y="156" on="1"/>
        <pt x="729" y="55" on="0"/>
        <pt x="567" y="-20" on="0"/>
        <pt x="442" y="-20" on="1"/>
        <pt x="278" y="-20" on="0"/>
        <pt x="94" y="149" on="0"/>
        <pt x="94" y="303" on="1"/>
        <pt x="94" y="634" on="0"/>
        <pt x="625" y="651" on="1"/>
        <pt x="811" y="657" on="1"/>
        <pt x="811" y="725" on="1"/>
        <pt x="811" y="855" on="0"/>
        <pt x="699" y="977" on="0"/>
        <pt x="440" y="977" on="0"/>
        <pt x="268" y="893" on="1"/>
      </contour>
      <contour>
        <pt x="268" y="301" on="1"/>
        <pt x="268" y="212" on="0"/>
        <pt x="376" y="117" on="0"/>
        <pt x="475" y="117" on="1"/>
        <pt x="631" y="117" on="0"/>
        <pt x="807" y="287" on="0"/>
        <pt x="807" y="440" on="1"/>
        <pt x="807" y="539" on="1"/>
        <pt x="641" y="532" on="1"/>
        <pt x="443" y="525" on="0"/>
        <pt x="268" y="416" on="0"/>
      </contour>
    </TTGlyph>
    <TTGlyph name="b" xMin="176" yMin="-20" xMax="1141" yMax="1556">
      <contour>
        <pt x="342" y="1556" on="1"/>
        <pt x="342" y="1178" on="1"/>
        <pt x="342" y="1057" on="0"/>
        <pt x="334" y="950" on="1"/>
        <pt x="342" y="950" on="1"/>
        <pt x="458" y="1114" on="0"/>
        <pt x="903" y="1114" on="0"/>
        <pt x="1021" y="966" on="1"/>
        <pt x="1141" y="819" on="0"/>
        <pt x="1141" y="278" on="0"/>
        <pt x="900" y="-20" on="0"/>
        <pt x="460" y="-20" on="0"/>
        <pt x="342" y="141" on="1"/>
        <pt x="330" y="141" on="1"/>
        <pt x="295" y="0" on="1"/>
        <pt x="176" y="0" on="1"/>
        <pt x="176" y="1556" on="1"/>
      </contour>
      <contour>
        <pt x="968" y="765" on="0"/>
        <pt x="818" y="974" on="0"/>
        <pt x="492" y="974" on="0"/>
        <pt x="342" y="780" on="0"/>
        <pt x="342" y="319" on="0"/>
        <pt x="419" y="218" on="1"/>
        <pt x="496" y="119" on="0"/>
        <pt x="666" y="119" on="1"/>
        <pt x="817" y="119" on="0"/>
        <pt x="968" y="339" on="0"/>
      </contour>
    </TTGlyph>
    <TTGlyph name="backslash" xMin="23" yMin="0" xMax="733" yMax="1462">
      <contour>
        <pt x="733" y="0" on="1"/>
        <pt x="567" y="0" on="1"/>
        <pt x="23" y="1462" on="1"/>
        <pt x="186" y="1462" on="1"/>
      </contour>
    </TTGlyph>
    <TTGlyph name="bar" xMin="494" yMin="-496" xMax="635" yMax="1556">
      <contour>
        <pt x="635" y="-496" on="1"/>
        <pt x="494" y="-496" on="1"/>
        <pt x="494" y="1556" on="1"/>
        <pt x="635" y="1556" on="1"/>
      </contour>
    </TTGlyph>
    <TTGlyph name="betdageshhb" xMin="102" yMin="0" xMax="1045" yMax="1310">
      <contour>
        <pt x="102" y="1295" on="1"/>
        <pt x="262" y="1310" on="0"/>
        <pt x="692" y="1310" on="0"/>
        <pt x="898" y="1123" on="0"/>
        <pt x="898" y="900" on="1"/>
        <pt x="898" y="129" on="1"/>
        <pt x="1045" y="129" on="1"/>
        <pt x="1045" y="0" on="1"/>
        <pt x="102" y="0" on="1"/>
        <pt x="102" y="129" on="1"/>
        <pt x="732" y="129" on="1"/>
        <pt x="732" y="902" on="1"/>
        <pt x="732" y="1056" on="0"/>
        <pt x="593" y="1169" on="0"/>
        <pt x="448" y="1169" on="1"/>
        <pt x="293" y="1169" on="0"/>
        <pt x="153" y="1158" on="1"/>
        <pt x="102" y="1154" on="1"/>
      </contour>
      <contour>
        <pt x="395" y="752" on="1"/>
        <pt x="468" y="752" on="0"/>
        <pt x="468" y="579" on="0"/>
        <pt x="395" y="579" on="1"/>
        <pt x="325" y="579" on="0"/>
        <pt x="325" y="752" on="0"/>
      </contour>
    </TTGlyph>
    <TTGlyph name="braceleft" xMin="61" yMin="-324" xMax="705" yMax="1462">
      <contour>
        <pt x="705" y="1462" on="1"/>
        <pt x="705" y="1323" on="1"/>
        <pt x="475" y="1317" on="0"/>
        <pt x="475" y="1124" on="1"/>
        <pt x="475" y="829" on="1"/>
        <pt x="475" y="614" on="0"/>
        <pt x="252" y="575" on="1"/>
        <pt x="252" y="563" on="1"/>
        <pt x="475" y="524" on="0"/>
        <pt x="475" y="309" on="1"/>
        <pt x="475" y="12" on="1"/>
        <pt x="475" y="-88" on="0"/>
        <pt x="589" y="-182" on="0"/>
        <pt x="705" y="-184" on="1"/>
        <pt x="705" y="-324" on="1"/>
        <pt x="515" y="-322" on="0"/>
        <pt x="307" y="-152" on="0"/>
        <pt x="307" y="2" on="1"/>
        <pt x="307" y="305" on="1"/>
        <pt x="307" y="407" on="0"/>
        <pt x="184" y="498" on="0"/>
        <pt x="61" y="498" on="1"/>
        <pt x="61" y="639" on="1"/>
        <pt x="190" y="641" on="0"/>
        <pt x="307" y="732" on="0"/>
        <pt x="307" y="829" on="1"/>
        <pt x="307" y="1135" on="1"/>
        <pt x="307" y="1290" on="0"/>
        <pt x="415" y="1376" on="1"/>
        <pt x="524" y="1462" on="0"/>
      </contour>
    </TTGlyph>
    <TTGlyph name="braceright" xMin="72" yMin="-324" xMax="715" yMax="1462">
      <contour>
        <pt x="72" y="1462" on="1"/>
        <pt x="256" y="1462" on="0"/>
        <pt x="467" y="1288" on="0"/>
        <pt x="467" y="1135" on="1"/>
        <pt x="467" y="829" on="1"/>
        <pt x="467" y="732" on="0"/>
        <pt x="585" y="641" on="0"/>
        <pt x="715" y="639" on="1"/>
        <pt x="715" y="498" on="1"/>
        <pt x="590" y="498" on="0"/>
        <pt x="467" y="407" on="0"/>
        <pt x="467" y="305" on="1"/>
        <pt x="467" y="2" on="1"/>
        <pt x="467" y="-151" on="0"/>
        <pt x="261" y="-322" on="0"/>
        <pt x="72" y="-324" on="1"/>
        <pt x="72" y="-184" on="1"/>
        <pt x="186" y="-182" on="0"/>
        <pt x="299" y="-88" on="0"/>
        <pt x="299" y="12" on="1"/>
        <pt x="299" y="309" on="1"/>
        <pt x="299" y="422" on="0"/>
        <pt x="407" y="542" on="0"/>
        <pt x="522" y="563" on="1"/>
        <pt x="522" y="575" on="1"/>
        <pt x="299" y="614" on="0"/>
        <pt x="299" y="829" on="1"/>
        <pt x="299" y="1124" on="1"/>
        <pt x="299" y="1317" on="0"/>
        <pt x="72" y="1323" on="1"/>
      </contour>
    </TTGlyph>
    <TTGlyph name="bracketleft" xMin="166" yMin="-324" xMax="623" yMax="1462">
      <contour>
        <pt x="623" y="1321" on="1"/>
        <pt x="334" y="1321" on="1"/>
        <pt x="334" y="-182" on="1"/>
        <pt x="623" y="-182" on="1"/>
        <pt x="623" y="-324" on="1"/>
        <pt x="166" y="-324" on="1"/>
        <pt x="166" y="1462" on="1"/>
        <pt x="623" y="1462" on="1"/>
      </contour>
    </TTGlyph>
    <TTGlyph name="bracketright" xMin="51" yMin="-324" xMax="508" yMax="1462">
      <contour>
        <pt x="508" y="-324" on="1"/>
        <pt x="51" y="-324" on="1"/>
        <pt x="51" y="-182" on="1"/>
        <pt x="340" y="-182" on="1"/>
        <pt x="340" y="1321" on="1"/>
        <pt x="51" y="1321" on="1"/>
        <pt x="51" y="1462" on="1"/>
        <pt x="508" y="1462" on="1"/>
      </contour>
    </TTGlyph>
    <TTGlyph name="breve" xMin="293" yMin="1241" xMax="913" yMax="1509">
      <contour>
        <pt x="903" y="1383" on="0"/>
        <pt x="736" y="1241" on="0"/>
        <pt x="458" y="1241" on="0"/>
        <pt x="302" y="1378" on="0"/>
        <pt x="293" y="1509" on="1"/>
        <pt x="397" y="1509" on="1"/>
        <pt x="408" y="1416" on="0"/>
        <pt x="481" y="1391" on="1"/>
        <pt x="516" y="1378" on="0"/>
        <pt x="702" y="1378" on="0"/>
        <pt x="799" y="1441" on="0"/>
        <pt x="809" y="1509" on="1"/>
        <pt x="913" y="1509" on="1"/>
      </contour>
    </TTGlyph>
    <TTGlyph name="brokenbar" xMin="494" yMin="-496" xMax="635" yMax="1556">
      <contour>
        <pt x="635" y="780" on="1"/>
        <pt x="494" y="780" on="1"/>
        <pt x="494" y="1556" on="1"/>
        <pt x="635" y="1556" on="1"/>
      </contour>
      <contour>
        <pt x="635" y="-496" on="1"/>
        <pt x="494" y="-496" on="1"/>
        <pt x="494" y="281" on="1"/>
        <pt x="635" y="281" on="1"/>
      </contour>
    </TTGlyph>
    <TTGlyph name="bullet" xMin="164" yMin="500" xMax="606" yMax="994">
      <contour>
        <pt x="164" y="869" on="0"/>
        <pt x="277" y="994" on="0"/>
        <pt x="491" y="994" on="0"/>
        <pt x="606" y="870" on="0"/>
        <pt x="606" y="629" on="0"/>
        <pt x="491" y="500" on="0"/>
        <pt x="278" y="500" on="0"/>
        <pt x="164" y="630" on="0"/>
      </contour>
    </TTGlyph>
    <TTGlyph name="c" xMin="115" yMin="-20" xMax="907" yMax="1116">
      <contour>
        <pt x="614" y="-20" on="1"/>
        <pt x="376" y="-20" on="0"/>
        <pt x="245" y="126" on="1"/>
        <pt x="115" y="272" on="0"/>
        <pt x="115" y="816" on="0"/>
        <pt x="247" y="966" on="1"/>
        <pt x="380" y="1116" on="0"/>
        <pt x="625" y="1116" on="1"/>
        <pt x="701" y="1116" on="0"/>
        <pt x="858" y="1083" on="0"/>
        <pt x="907" y="1059" on="1"/>
        <pt x="856" y="918" on="1"/>
        <pt x="800" y="940" on="0"/>
        <pt x="676" y="968" on="0"/>
        <pt x="621" y="968" on="1"/>
        <pt x="287" y="968" on="0"/>
        <pt x="287" y="543" on="1"/>
        <pt x="287" y="340" on="0"/>
        <pt x="451" y="125" on="0"/>
        <pt x="610" y="125" on="1"/>
        <pt x="746" y="125" on="0"/>
        <pt x="891" y="184" on="1"/>
        <pt x="891" y="37" on="1"/>
        <pt x="779" y="-20" on="0"/>
      </contour>
    </TTGlyph>
    <TTGlyph name="caron" xMin="268" yMin="1241" xMax="942" yMax="1569">
      <contour>
        <pt x="268" y="1569" on="1"/>
        <pt x="383" y="1569" on="1"/>
        <pt x="497" y="1496" on="0"/>
        <pt x="602" y="1380" on="1"/>
        <pt x="734" y="1512" on="0"/>
        <pt x="823" y="1569" on="1"/>
        <pt x="942" y="1569" on="1"/>
        <pt x="942" y="1544" on="1"/>
        <pt x="876" y="1476" on="1"/>
        <pt x="733" y="1328" on="0"/>
        <pt x="686" y="1241" on="1"/>
        <pt x="520" y="1241" on="1"/>
        <pt x="498" y="1281" on="0"/>
        <pt x="395" y="1408" on="0"/>
        <pt x="268" y="1544" on="1"/>
      </contour>
    </TTGlyph>
    <TTGlyph name="ccedilla" xMin="115" yMin="-492" xMax="907" yMax="1116">
      <contour>
        <pt x="621" y="969" on="1"/>
        <pt x="287" y="969" on="0"/>
        <pt x="287" y="543" on="1"/>
        <pt x="287" y="340" on="0"/>
        <pt x="451" y="125" on="0"/>
        <pt x="610" y="125" on="1"/>
        <pt x="746" y="125" on="0"/>
        <pt x="891" y="184" on="1"/>
        <pt x="891" y="37" on="1"/>
        <pt x="786" y="-17" on="0"/>
        <pt x="627" y="-20" on="1"/>
        <pt x="582" y="-115" on="1"/>
        <pt x="762" y="-154" on="0"/>
        <pt x="762" y="-289" on="1"/>
        <pt x="762" y="-387" on="0"/>
        <pt x="608" y="-492" on="0"/>
        <pt x="459" y="-492" on="1"/>
        <pt x="408" y="-492" on="0"/>
        <pt x="363" y="-483" on="1"/>
        <pt x="363" y="-377" on="1"/>
        <pt x="411" y="-385" on="0"/>
        <pt x="549" y="-385" on="0"/>
        <pt x="627" y="-343" on="0"/>
        <pt x="627" y="-248" on="0"/>
        <pt x="588" y="-221" on="1"/>
        <pt x="545" y="-194" on="0"/>
        <pt x="439" y="-178" on="1"/>
        <pt x="520" y="-14" on="1"/>
        <pt x="325" y="15" on="0"/>
        <pt x="115" y="302" on="0"/>
        <pt x="115" y="541" on="1"/>
        <pt x="115" y="817" on="0"/>
        <pt x="380" y="1116" on="0"/>
        <pt x="625" y="1116" on="1"/>
        <pt x="702" y="1116" on="0"/>
        <pt x="861" y="1083" on="0"/>
        <pt x="907" y="1059" on="1"/>
        <pt x="856" y="918" on="1"/>
        <pt x="728" y="969" on="0"/>
      </contour>
    </TTGlyph>
    <TTGlyph name="cedilla" xMin="37" yMin="-492" xMax="436" yMax="0">
      <contour>
        <pt x="436" y="-289" on="1"/>
        <pt x="436" y="-387" on="0"/>
        <pt x="282" y="-492" on="0"/>
        <pt x="133" y="-492" on="1"/>
        <pt x="82" y="-492" on="0"/>
        <pt x="37" y="-483" on="1"/>
        <pt x="37" y="-377" on="1"/>
        <pt x="85" y="-385" on="0"/>
        <pt x="223" y="-385" on="0"/>
        <pt x="301" y="-343" on="0"/>
        <pt x="301" y="-248" on="0"/>
        <pt x="262" y="-221" on="1"/>
        <pt x="219" y="-194" on="0"/>
        <pt x="113" y="-178" on="1"/>
        <pt x="201" y="0" on="1"/>
        <pt x="311" y="0" on="1"/>
        <pt x="256" y="-115" on="1"/>
        <pt x="436" y="-154" on="0"/>
      </contour>
    </TTGlyph>
    <TTGlyph name="cent" xMin="190" yMin="-20" xMax="986" yMax="1483">
      <contour>
        <pt x="721" y="1483" on="1"/>
        <pt x="721" y="1319" on="1"/>
        <pt x="877" y="1313" on="0"/>
        <pt x="986" y="1260" on="1"/>
        <pt x="938" y="1120" on="1"/>
        <pt x="804" y="1171" on="0"/>
        <pt x="696" y="1171" on="1"/>
        <pt x="525" y="1171" on="0"/>
        <pt x="362" y="961" on="0"/>
        <pt x="362" y="531" on="0"/>
        <pt x="521" y="328" on="0"/>
        <pt x="688" y="328" on="1"/>
        <pt x="828" y="328" on="0"/>
        <pt x="970" y="387" on="1"/>
        <pt x="970" y="240" on="1"/>
        <pt x="867" y="186" on="0"/>
        <pt x="719" y="180" on="1"/>
        <pt x="719" y="-20" on="1"/>
        <pt x="586" y="-20" on="1"/>
        <pt x="586" y="186" on="1"/>
        <pt x="383" y="218" on="0"/>
        <pt x="190" y="491" on="0"/>
        <pt x="190" y="741" on="1"/>
        <pt x="190" y="1250" on="0"/>
        <pt x="586" y="1311" on="1"/>
        <pt x="586" y="1483" on="1"/>
      </contour>
    </TTGlyph>
    <TTGlyph name="circumflex" xMin="268" yMin="1241" xMax="942" yMax="1569">
      <contour>
        <pt x="942" y="1241" on="1"/>
        <pt x="823" y="1241" on="1"/>
        <pt x="737" y="1295" on="0"/>
        <pt x="602" y="1427" on="1"/>
        <pt x="466" y="1294" on="0"/>
        <pt x="383" y="1241" on="1"/>
        <pt x="268" y="1241" on="1"/>
        <pt x="268" y="1264" on="1"/>
        <pt x="397" y="1403" on="0"/>
        <pt x="499" y="1531" on="0"/>
        <pt x="520" y="1569" on="1"/>
        <pt x="686" y="1569" on="1"/>
        <pt x="710" y="1524" on="0"/>
        <pt x="763" y="1461" on="1"/>
        <pt x="809" y="1403" on="0"/>
        <pt x="942" y="1264" on="1"/>
      </contour>
    </TTGlyph>
    <TTGlyph name="colon" xMin="152" yMin="-29" xMax="393" yMax="1124">
      <contour>
        <pt x="270" y="1124" on="1"/>
        <pt x="393" y="1124" on="0"/>
        <pt x="393" y="988" on="1"/>
        <pt x="393" y="924" on="0"/>
        <pt x="328" y="854" on="0"/>
        <pt x="216" y="854" on="0"/>
        <pt x="152" y="920" on="0"/>
        <pt x="152" y="988" on="1"/>
        <pt x="152" y="1124" on="0"/>
      </contour>
      <contour>
        <pt x="152" y="172" on="0"/>
        <pt x="213" y="242" on="0"/>
        <pt x="328" y="242" on="0"/>
        <pt x="393" y="172" on="0"/>
        <pt x="393" y="41" on="0"/>
        <pt x="328" y="-29" on="0"/>
        <pt x="216" y="-29" on="0"/>
        <pt x="152" y="37" on="0"/>
      </contour>
    </TTGlyph>
    <TTGlyph name="comma" xMin="63" yMin="-264" xMax="365" yMax="238">
      <contour>
        <pt x="350" y="238" on="1"/>
        <pt x="365" y="215" on="1"/>
        <pt x="340" y="116" on="0"/>
        <pt x="241" y="-148" on="0"/>
        <pt x="188" y="-264" on="1"/>
        <pt x="63" y="-264" on="1"/>
        <pt x="92" y="-153" on="0"/>
        <pt x="122" y="-7" on="1"/>
        <pt x="153" y="133" on="0"/>
        <pt x="168" y="238" on="1"/>
      </contour>
    </TTGlyph>
    <TTGlyph name="copyright" xMin="99" yMin="-20" xMax="1604" yMax="1483">
      <contour>
        <pt x="645" y="-20" on="0"/>
        <pt x="295" y="186" on="0"/>
        <pt x="99" y="533" on="0"/>
        <pt x="99" y="928" on="0"/>
        <pt x="301" y="1282" on="0"/>
        <pt x="651" y="1483" on="0"/>
        <pt x="1052" y="1483" on="0"/>
        <pt x="1403" y="1282" on="0"/>
        <pt x="1604" y="930" on="0"/>
        <pt x="1604" y="533" on="0"/>
        <pt x="1408" y="186" on="0"/>
        <pt x="1059" y="-20" on="0"/>
      </contour>
      <contour>
        <pt x="1176" y="1290" on="1"/>
        <pt x="1028" y="1378" on="0"/>
        <pt x="678" y="1378" on="0"/>
        <pt x="381" y="1204" on="0"/>
        <pt x="292" y="1055" on="1"/>
        <pt x="205" y="906" on="0"/>
        <pt x="205" y="558" on="0"/>
        <pt x="379" y="257" on="0"/>
        <pt x="529" y="170" on="1"/>
        <pt x="681" y="84" on="0"/>
        <pt x="1026" y="84" on="0"/>
        <pt x="1325" y="259" on="0"/>
        <pt x="1411" y="406" on="1"/>
        <pt x="1499" y="554" on="0"/>
        <pt x="1499" y="906" on="0"/>
        <pt x="1325" y="1203" on="0"/>
      </contour>
      <contour>
        <pt x="883" y="274" on="1"/>
        <pt x="688" y="274" on="0"/>
        <pt x="481" y="516" on="0"/>
        <pt x="481" y="938" on="0"/>
        <pt x="591" y="1063" on="1"/>
        <pt x="702" y="1186" on="0"/>
        <pt x="893" y="1186" on="1"/>
        <pt x="1021" y="1186" on="0"/>
        <pt x="1139" y="1126" on="1"/>
        <pt x="1081" y="1008" on="1"/>
        <pt x="973" y="1059" on="0"/>
        <pt x="893" y="1059" on="1"/>
        <pt x="769" y="1059" on="0"/>
        <pt x="633" y="886" on="0"/>
        <pt x="633" y="563" on="0"/>
        <pt x="760" y="401" on="0"/>
        <pt x="891" y="401" on="1"/>
        <pt x="977" y="401" on="0"/>
        <pt x="1102" y="446" on="1"/>
        <pt x="1102" y="322" on="1"/>
        <pt x="988" y="274" on="0"/>
      </contour>
    </TTGlyph>
    <TTGlyph name="d" xMin="115" yMin="-20" xMax="1079" yMax="1556">
      <contour>
        <pt x="1079" y="0" on="1"/>
        <pt x="944" y="0" on="1"/>
        <pt x="922" y="147" on="1"/>
        <pt x="913" y="147" on="1"/>
        <pt x="797" y="-20" on="0"/>
        <pt x="354" y="-20" on="0"/>
        <pt x="234" y="127" on="1"/>
        <pt x="115" y="275" on="0"/>
        <pt x="115" y="816" on="0"/>
        <pt x="355" y="1116" on="0"/>
        <pt x="792" y="1116" on="0"/>
        <pt x="911" y="954" on="1"/>
        <pt x="924" y="954" on="1"/>
        <pt x="917" y="1033" on="1"/>
        <pt x="913" y="1110" on="1"/>
        <pt x="913" y="1556" on="1"/>
        <pt x="1079" y="1556" on="1"/>
      </contour>
      <contour>
        <pt x="913" y="510" on="1"/>
        <pt x="913" y="545" on="1"/>
        <pt x="913" y="778" on="0"/>
        <pt x="835" y="877" on="1"/>
        <pt x="760" y="976" on="0"/>
        <pt x="588" y="976" on="1"/>
        <pt x="442" y="976" on="0"/>
        <pt x="287" y="751" on="0"/>
        <pt x="287" y="333" on="0"/>
        <pt x="441" y="119" on="0"/>
        <pt x="590" y="119" on="1"/>
        <pt x="760" y="119" on="0"/>
        <pt x="913" y="304" on="0"/>
      </contour>
    </TTGlyph>
    <TTGlyph name="dagger" xMin="123" yMin="0" xMax="905" yMax="1556">
      <contour>
        <pt x="553" y="1139" on="1"/>
        <pt x="905" y="1169" on="1"/>
        <pt x="905" y="998" on="1"/>
        <pt x="553" y="1030" on="1"/>
        <pt x="602" y="0" on="1"/>
        <pt x="406" y="0" on="1"/>
        <pt x="455" y="1030" on="1"/>
        <pt x="123" y="998" on="1"/>
        <pt x="123" y="1169" on="1"/>
        <pt x="455" y="1139" on="1"/>
        <pt x="406" y="1556" on="1"/>
        <pt x="602" y="1556" on="1"/>
      </contour>
    </TTGlyph>
    <TTGlyph name="daggerdbl" xMin="123" yMin="0" xMax="922" yMax="1556">
      <contour>
        <pt x="569" y="1176" on="1"/>
        <pt x="922" y="1206" on="1"/>
        <pt x="922" y="1038" on="1"/>
        <pt x="569" y="1069" on="1"/>
        <pt x="612" y="786" on="1"/>
        <pt x="569" y="487" on="1"/>
        <pt x="922" y="518" on="1"/>
        <pt x="922" y="350" on="1"/>
        <pt x="569" y="379" on="1"/>
        <pt x="618" y="0" on="1"/>
        <pt x="420" y="0" on="1"/>
        <pt x="469" y="379" on="1"/>
        <pt x="123" y="350" on="1"/>
        <pt x="123" y="518" on="1"/>
        <pt x="469" y="487" on="1"/>
        <pt x="426" y="786" on="1"/>
        <pt x="469" y="1069" on="1"/>
        <pt x="123" y="1038" on="1"/>
        <pt x="123" y="1206" on="1"/>
        <pt x="469" y="1176" on="1"/>
        <pt x="420" y="1556" on="1"/>
        <pt x="618" y="1556" on="1"/>
      </contour>
    </TTGlyph>
    <TTGlyph name="daletdageshhb" xMin="43" yMin="0" xMax="985" yMax="1290">
      <contour>
        <pt x="985" y="1290" on="1"/>
        <pt x="985" y="1176" on="1"/>
        <pt x="779" y="1117" on="0"/>
        <pt x="779" y="888" on="1"/>
        <pt x="779" y="0" on="1"/>
        <pt x="613" y="0" on="1"/>
        <pt x="613" y="888" on="1"/>
        <pt x="613" y="947" on="0"/>
        <pt x="641" y="1046" on="0"/>
        <pt x="661" y="1074" on="1"/>
        <pt x="702" y="1132" on="0"/>
        <pt x="735" y="1149" on="1"/>
        <pt x="749" y="1156" on="1"/>
        <pt x="749" y="1161" on="1"/>
        <pt x="43" y="1161" on="1"/>
        <pt x="43" y="1290" on="1"/>
      </contour>
      <contour>
        <pt x="337" y="752" on="1"/>
        <pt x="410" y="752" on="0"/>
        <pt x="410" y="579" on="0"/>
        <pt x="337" y="579" on="1"/>
        <pt x="267" y="579" on="0"/>
        <pt x="267" y="752" on="0"/>
      </contour>
    </TTGlyph>
    <TTGlyph name="degree" xMin="127" yMin="860" xMax="750" yMax="1483">
      <contour>
        <pt x="308" y="1483" on="0"/>
        <pt x="568" y="1483" on="0"/>
        <pt x="750" y="1302" on="0"/>
        <pt x="750" y="1171" on="1"/>
        <pt x="750" y="1087" on="0"/>
        <pt x="668" y="944" on="0"/>
        <pt x="522" y="860" on="0"/>
        <pt x="438" y="860" on="1"/>
        <pt x="308" y="860" on="0"/>
        <pt x="217" y="950" on="1"/>
        <pt x="127" y="1040" on="0"/>
        <pt x="127" y="1300" on="0"/>
        <pt x="217" y="1392" on="1"/>
      </contour>
      <contour>
        <pt x="522" y="1368" on="0"/>
        <pt x="358" y="1368" on="0"/>
        <pt x="242" y="1254" on="0"/>
        <pt x="242" y="1089" on="0"/>
        <pt x="358" y="974" on="0"/>
        <pt x="520" y="974" on="0"/>
        <pt x="635" y="1088" on="0"/>
        <pt x="635" y="1256" on="0"/>
        <pt x="578" y="1311" on="1"/>
      </contour>
    </TTGlyph>
    <TTGlyph name="dieresis" xMin="309" yMin="1294" xMax="872" yMax="1491">
      <contour>
        <pt x="309" y="1442" on="0"/>
        <pt x="359" y="1491" on="0"/>
        <pt x="440" y="1491" on="0"/>
        <pt x="492" y="1442" on="0"/>
        <pt x="492" y="1345" on="0"/>
        <pt x="440" y="1294" on="0"/>
        <pt x="360" y="1294" on="0"/>
        <pt x="309" y="1345" on="0"/>
      </contour>
      <contour>
        <pt x="740" y="1491" on="0"/>
        <pt x="820" y="1491" on="0"/>
        <pt x="872" y="1442" on="0"/>
        <pt x="872" y="1345" on="0"/>
        <pt x="819" y="1294" on="0"/>
        <pt x="741" y="1294" on="0"/>
        <pt x="690" y="1345" on="0"/>
        <pt x="690" y="1442" on="0"/>
      </contour>
    </TTGlyph>
    <TTGlyph name="divide" xMin="104" yMin="252" xMax="1065" yMax="1192">
      <contour>
        <pt x="471" y="1130" on="0"/>
        <pt x="529" y="1192" on="0"/>
        <pt x="636" y="1192" on="0"/>
        <pt x="694" y="1129" on="0"/>
        <pt x="694" y="1014" on="0"/>
        <pt x="635" y="950" on="0"/>
        <pt x="532" y="950" on="0"/>
        <pt x="471" y="1013" on="0"/>
      </contour>
      <contour>
        <pt x="1065" y="653" on="1"/>
        <pt x="104" y="653" on="1"/>
        <pt x="104" y="791" on="1"/>
        <pt x="1065" y="791" on="1"/>
      </contour>
      <contour>
        <pt x="471" y="432" on="0"/>
        <pt x="529" y="494" on="0"/>
        <pt x="636" y="494" on="0"/>
        <pt x="694" y="431" on="0"/>
        <pt x="694" y="316" on="0"/>
        <pt x="635" y="252" on="0"/>
        <pt x="532" y="252" on="0"/>
        <pt x="471" y="316" on="0"/>
      </contour>
    </TTGlyph>
    <TTGlyph name="dollar" xMin="131" yMin="-119" xMax="1036" yMax="1554">
      <contour>
        <pt x="649" y="1554" on="1"/>
        <pt x="649" y="1374" on="1"/>
        <pt x="832" y="1370" on="0"/>
        <pt x="1004" y="1300" on="1"/>
        <pt x="952" y="1169" on="1"/>
        <pt x="800" y="1229" on="0"/>
        <pt x="649" y="1239" on="1"/>
        <pt x="649" y="805" on="1"/>
        <pt x="804" y="756" on="0"/>
        <pt x="959" y="662" on="0"/>
        <pt x="998" y="598" on="1"/>
        <pt x="1036" y="538" on="0"/>
        <pt x="1036" y="449" on="1"/>
        <pt x="1036" y="312" on="0"/>
        <pt x="832" y="136" on="0"/>
        <pt x="649" y="113" on="1"/>
        <pt x="649" y="-119" on="1"/>
        <pt x="520" y="-119" on="1"/>
        <pt x="520" y="104" on="1"/>
        <pt x="411" y="104" on="0"/>
        <pt x="197" y="139" on="0"/>
        <pt x="131" y="170" on="1"/>
        <pt x="131" y="326" on="1"/>
        <pt x="211" y="290" on="0"/>
        <pt x="322" y="265" on="1"/>
        <pt x="434" y="242" on="0"/>
        <pt x="520" y="242" on="1"/>
        <pt x="520" y="682" on="1"/>
        <pt x="316" y="746" on="0"/>
        <pt x="150" y="918" on="0"/>
        <pt x="150" y="1186" on="0"/>
        <pt x="251" y="1270" on="1"/>
        <pt x="353" y="1354" on="0"/>
        <pt x="520" y="1372" on="1"/>
        <pt x="520" y="1554" on="1"/>
      </contour>
      <contour>
        <pt x="422" y="1219" on="0"/>
        <pt x="319" y="1127" on="0"/>
        <pt x="319" y="982" on="0"/>
        <pt x="409" y="888" on="0"/>
        <pt x="520" y="848" on="1"/>
        <pt x="520" y="1235" on="1"/>
      </contour>
      <contour>
        <pt x="866" y="436" on="1"/>
        <pt x="866" y="508" on="0"/>
        <pt x="777" y="597" on="0"/>
        <pt x="649" y="641" on="1"/>
        <pt x="649" y="252" on="1"/>
        <pt x="866" y="282" on="0"/>
      </contour>
    </TTGlyph>
    <TTGlyph name="dotaccent" xMin="162" yMin="1282" xMax="358" yMax="1503">
      <contour>
        <pt x="162" y="1448" on="0"/>
        <pt x="216" y="1503" on="0"/>
        <pt x="302" y="1503" on="0"/>
        <pt x="358" y="1447" on="0"/>
        <pt x="358" y="1339" on="0"/>
        <pt x="302" y="1282" on="0"/>
        <pt x="216" y="1282" on="0"/>
        <pt x="162" y="1339" on="0"/>
      </contour>
    </TTGlyph>
    <TTGlyph name="dotlessi" xMin="176" yMin="0" xMax="342" yMax="1096">
      <contour>
        <pt x="342" y="0" on="1"/>
        <pt x="176" y="0" on="1"/>
        <pt x="176" y="1096" on="1"/>
        <pt x="342" y="1096" on="1"/>
      </contour>
    </TTGlyph>
    <TTGlyph name="e" xMin="115" yMin="-20" xMax="1042" yMax="1116">
      <contour>
        <pt x="639" y="-20" on="1"/>
        <pt x="396" y="-20" on="0"/>
        <pt x="255" y="128" on="1"/>
        <pt x="115" y="277" on="0"/>
        <pt x="115" y="805" on="0"/>
        <pt x="376" y="1116" on="0"/>
        <pt x="803" y="1116" on="0"/>
        <pt x="922" y="979" on="1"/>
        <pt x="1042" y="846" on="0"/>
        <pt x="1042" y="623" on="1"/>
        <pt x="1042" y="518" on="1"/>
        <pt x="287" y="518" on="1"/>
        <pt x="292" y="326" on="0"/>
        <pt x="476" y="125" on="0"/>
        <pt x="822" y="125" on="0"/>
        <pt x="994" y="199" on="1"/>
        <pt x="994" y="51" on="1"/>
        <pt x="907" y="13" on="0"/>
        <pt x="748" y="-20" on="0"/>
      </contour>
      <contour>
        <pt x="864" y="653" on="1"/>
        <pt x="864" y="809" on="0"/>
        <pt x="724" y="976" on="0"/>
        <pt x="463" y="976" on="0"/>
        <pt x="305" y="806" on="0"/>
        <pt x="291" y="653" on="1"/>
      </contour>
    </TTGlyph>
    <TTGlyph name="eacute" xMin="115" yMin="-20" xMax="1042" yMax="1569">
      <contour>
        <pt x="864" y="1569" on="1"/>
        <pt x="864" y="1548" on="1"/>
        <pt x="819" y="1482" on="0"/>
        <pt x="645" y="1292" on="0"/>
        <pt x="582" y="1241" on="1"/>
        <pt x="471" y="1241" on="1"/>
        <pt x="471" y="1266" on="1"/>
        <pt x="519" y="1328" on="0"/>
        <pt x="630" y="1504" on="0"/>
        <pt x="662" y="1569" on="1"/>
      </contour>
      <contour>
        <pt x="639" y="-20" on="1"/>
        <pt x="395" y="-20" on="0"/>
        <pt x="115" y="277" on="0"/>
        <pt x="115" y="803" on="0"/>
        <pt x="376" y="1116" on="0"/>
        <pt x="801" y="1116" on="0"/>
        <pt x="1042" y="846" on="0"/>
        <pt x="1042" y="623" on="1"/>
        <pt x="1042" y="518" on="1"/>
        <pt x="287" y="518" on="1"/>
        <pt x="292" y="326" on="0"/>
        <pt x="476" y="125" on="0"/>
        <pt x="821" y="125" on="0"/>
        <pt x="995" y="199" on="1"/>
        <pt x="995" y="51" on="1"/>
        <pt x="906" y="12" on="0"/>
        <pt x="748" y="-20" on="0"/>
      </contour>
      <contour>
        <pt x="864" y="653" on="1"/>
        <pt x="864" y="809" on="0"/>
        <pt x="724" y="977" on="0"/>
        <pt x="463" y="977" on="0"/>
        <pt x="305" y="806" on="0"/>
        <pt x="291" y="653" on="1"/>
      </contour>
    </TTGlyph>
    <TTGlyph name="ecircumflex" xMin="115" yMin="-20" xMax="1042" yMax="1569">
      <contour>
        <pt x="933" y="1241" on="1"/>
        <pt x="814" y="1241" on="1"/>
        <pt x="728" y="1295" on="0"/>
        <pt x="593" y="1427" on="1"/>
        <pt x="456" y="1294" on="0"/>
        <pt x="374" y="1241" on="1"/>
        <pt x="259" y="1241" on="1"/>
        <pt x="259" y="1264" on="1"/>
        <pt x="388" y="1403" on="0"/>
        <pt x="490" y="1531" on="0"/>
        <pt x="511" y="1569" on="1"/>
        <pt x="677" y="1569" on="1"/>
        <pt x="701" y="1524" on="0"/>
        <pt x="754" y="1461" on="1"/>
        <pt x="800" y="1403" on="0"/>
        <pt x="933" y="1264" on="1"/>
      </contour>
      <contour>
        <pt x="639" y="-20" on="1"/>
        <pt x="395" y="-20" on="0"/>
        <pt x="115" y="277" on="0"/>
        <pt x="115" y="803" on="0"/>
        <pt x="376" y="1116" on="0"/>
        <pt x="801" y="1116" on="0"/>
        <pt x="1042" y="846" on="0"/>
        <pt x="1042" y="623" on="1"/>
        <pt x="1042" y="518" on="1"/>
        <pt x="287" y="518" on="1"/>
        <pt x="292" y="326" on="0"/>
        <pt x="476" y="125" on="0"/>
        <pt x="821" y="125" on="0"/>
        <pt x="995" y="199" on="1"/>
        <pt x="995" y="51" on="1"/>
        <pt x="906" y="12" on="0"/>
        <pt x="748" y="-20" on="0"/>
      </contour>
      <contour>
        <pt x="864" y="653" on="1"/>
        <pt x="864" y="809" on="0"/>
        <pt x="724" y="977" on="0"/>
        <pt x="463" y="977" on="0"/>
        <pt x="305" y="806" on="0"/>
        <pt x="291" y="653" on="1"/>
      </contour>
    </TTGlyph>
    <TTGlyph name="edieresis" xMin="115" yMin="-20" xMax="1042" yMax="1491">
      <contour>
        <pt x="319" y="1442" on="0"/>
        <pt x="369" y="1491" on="0"/>
        <pt x="450" y="1491" on="0"/>
        <pt x="502" y="1442" on="0"/>
        <pt x="502" y="1345" on="0"/>
        <pt x="450" y="1294" on="0"/>
        <pt x="370" y="1294" on="0"/>
        <pt x="319" y="1345" on="0"/>
      </contour>
      <contour>
        <pt x="750" y="1491" on="0"/>
        <pt x="830" y="1491" on="0"/>
        <pt x="882" y="1442" on="0"/>
        <pt x="882" y="1345" on="0"/>
        <pt x="829" y="1294" on="0"/>
        <pt x="751" y="1294" on="0"/>
        <pt x="700" y="1345" on="0"/>
        <pt x="700" y="1442" on="0"/>
      </contour>
      <contour>
        <pt x="639" y="-20" on="1"/>
        <pt x="395" y="-20" on="0"/>
        <pt x="115" y="277" on="0"/>
        <pt x="115" y="803" on="0"/>
        <pt x="376" y="1116" on="0"/>
        <pt x="801" y="1116" on="0"/>
        <pt x="1042" y="846" on="0"/>
        <pt x="1042" y="623" on="1"/>
        <pt x="1042" y="518" on="1"/>
        <pt x="287" y="518" on="1"/>
        <pt x="292" y="326" on="0"/>
        <pt x="476" y="125" on="0"/>
        <pt x="821" y="125" on="0"/>
        <pt x="995" y="199" on="1"/>
        <pt x="995" y="51" on="1"/>
        <pt x="906" y="12" on="0"/>
        <pt x="748" y="-20" on="0"/>
      </contour>
      <contour>
        <pt x="864" y="653" on="1"/>
        <pt x="864" y="809" on="0"/>
        <pt x="724" y="977" on="0"/>
        <pt x="463" y="977" on="0"/>
        <pt x="305" y="806" on="0"/>
        <pt x="291" y="653" on="1"/>
      </contour>
    </TTGlyph>
    <TTGlyph name="egrave" xMin="115" yMin="-20" xMax="1042" yMax="1569">
      <contour>
        <pt x="318" y="1569" on="1"/>
        <pt x="521" y="1569" on="1"/>
        <pt x="553" y="1500" on="0"/>
        <pt x="667" y="1319" on="0"/>
        <pt x="711" y="1266" on="1"/>
        <pt x="711" y="1241" on="1"/>
        <pt x="601" y="1241" on="1"/>
        <pt x="535" y="1293" on="0"/>
        <pt x="357" y="1486" on="0"/>
        <pt x="318" y="1548" on="1"/>
      </contour>
      <contour>
        <pt x="639" y="-20" on="1"/>
        <pt x="395" y="-20" on="0"/>
        <pt x="115" y="277" on="0"/>
        <pt x="115" y="803" on="0"/>
        <pt x="376" y="1116" on="0"/>
        <pt x="801" y="1116" on="0"/>
        <pt x="1042" y="846" on="0"/>
        <pt x="1042" y="623" on="1"/>
        <pt x="1042" y="518" on="1"/>
        <pt x="287" y="518" on="1"/>
        <pt x="292" y="326" on="0"/>
        <pt x="476" y="125" on="0"/>
        <pt x="821" y="125" on="0"/>
        <pt x="995" y="199" on="1"/>
        <pt x="995" y="51" on="1"/>
        <pt x="906" y="12" on="0"/>
        <pt x="748" y="-20" on="0"/>
      </contour>
      <contour>
        <pt x="864" y="653" on="1"/>
        <pt x="864" y="809" on="0"/>
        <pt x="724" y="977" on="0"/>
        <pt x="463" y="977" on="0"/>
        <pt x="305" y="806" on="0"/>
        <pt x="291" y="653" on="1"/>
      </contour>
    </TTGlyph>
    <TTGlyph name="eight" xMin="104" yMin="-20" xMax="1065" yMax="1483">
      <contour>
        <pt x="152" y="1135" on="1"/>
        <pt x="152" y="1294" on="0"/>
        <pt x="388" y="1483" on="0"/>
        <pt x="784" y="1483" on="0"/>
        <pt x="1018" y="1296" on="0"/>
        <pt x="1018" y="1133" on="1"/>
        <pt x="1018" y="1023" on="0"/>
        <pt x="882" y="846" on="0"/>
        <pt x="737" y="774" on="1"/>
        <pt x="917" y="688" on="0"/>
        <pt x="989" y="595" on="1"/>
        <pt x="1065" y="503" on="0"/>
        <pt x="1065" y="379" on="1"/>
        <pt x="1065" y="197" on="0"/>
        <pt x="938" y="88" on="1"/>
        <pt x="810" y="-20" on="0"/>
        <pt x="356" y="-20" on="0"/>
        <pt x="104" y="185" on="0"/>
        <pt x="104" y="373" on="1"/>
        <pt x="104" y="624" on="0"/>
        <pt x="410" y="764" on="1"/>
        <pt x="274" y="841" on="0"/>
        <pt x="152" y="1020" on="0"/>
      </contour>
      <contour>
        <pt x="781" y="1288" on="1"/>
        <pt x="709" y="1348" on="0"/>
        <pt x="456" y="1348" on="0"/>
        <pt x="315" y="1228" on="0"/>
        <pt x="315" y="1037" on="0"/>
        <pt x="374" y="969" on="1"/>
        <pt x="433" y="904" on="0"/>
        <pt x="592" y="838" on="1"/>
        <pt x="736" y="899" on="0"/>
        <pt x="854" y="1036" on="0"/>
        <pt x="854" y="1230" on="0"/>
      </contour>
      <contour>
        <pt x="402" y="632" on="0"/>
        <pt x="268" y="477" on="0"/>
        <pt x="268" y="249" on="0"/>
        <pt x="435" y="115" on="0"/>
        <pt x="735" y="115" on="0"/>
        <pt x="901" y="254" on="0"/>
        <pt x="901" y="377" on="1"/>
        <pt x="901" y="474" on="0"/>
        <pt x="745" y="625" on="0"/>
        <pt x="551" y="696" on="1"/>
      </contour>
    </TTGlyph>
    <TTGlyph name="ellipsis" xMin="152" yMin="-29" xMax="1454" yMax="242">
      <contour>
        <pt x="152" y="172" on="0"/>
        <pt x="213" y="242" on="0"/>
        <pt x="328" y="242" on="0"/>
        <pt x="393" y="172" on="0"/>
        <pt x="393" y="41" on="0"/>
        <pt x="328" y="-29" on="0"/>
        <pt x="216" y="-29" on="0"/>
        <pt x="152" y="37" on="0"/>
      </contour>
      <contour>
        <pt x="682" y="172" on="0"/>
        <pt x="743" y="242" on="0"/>
        <pt x="858" y="242" on="0"/>
        <pt x="923" y="172" on="0"/>
        <pt x="923" y="41" on="0"/>
        <pt x="858" y="-29" on="0"/>
        <pt x="746" y="-29" on="0"/>
        <pt x="682" y="37" on="0"/>
      </contour>
      <contour>
        <pt x="1213" y="172" on="0"/>
        <pt x="1274" y="242" on="0"/>
        <pt x="1389" y="242" on="0"/>
        <pt x="1454" y="172" on="0"/>
        <pt x="1454" y="41" on="0"/>
        <pt x="1389" y="-29" on="0"/>
        <pt x="1277" y="-29" on="0"/>
        <pt x="1213" y="37" on="0"/>
      </contour>
    </TTGlyph>
    <TTGlyph name="emdash" xMin="82" yMin="473" xMax="1966" yMax="625">
      <contour>
        <pt x="1966" y="473" on="1"/>
        <pt x="82" y="473" on="1"/>
        <pt x="82" y="625" on="1"/>
        <pt x="1966" y="625" on="1"/>
      </contour>
    </TTGlyph>
    <TTGlyph name="endash" xMin="82" yMin="473" xMax="942" yMax="625">
      <contour>
        <pt x="942" y="473" on="1"/>
        <pt x="82" y="473" on="1"/>
        <pt x="82" y="625" on="1"/>
        <pt x="942" y="625" on="1"/>
      </contour>
    </TTGlyph>
    <TTGlyph name="equal" xMin="119" yMin="449" xMax="1049" yMax="994">
      <contour>
        <pt x="1049" y="858" on="1"/>
        <pt x="119" y="858" on="1"/>
        <pt x="119" y="994" on="1"/>
        <pt x="1049" y="994" on="1"/>
      </contour>
      <contour>
        <pt x="1049" y="449" on="1"/>
        <pt x="119" y="449" on="1"/>
        <pt x="119" y="586" on="1"/>
        <pt x="1049" y="586" on="1"/>
      </contour>
    </TTGlyph>
    <TTGlyph name="eth" xMin="113" yMin="-20" xMax="1122" yMax="1569">
      <contour>
        <pt x="1122" y="563" on="1"/>
        <pt x="1122" y="281" on="0"/>
        <pt x="860" y="-20" on="0"/>
        <pt x="614" y="-20" on="1"/>
        <pt x="390" y="-20" on="0"/>
        <pt x="113" y="251" on="0"/>
        <pt x="113" y="704" on="0"/>
        <pt x="375" y="967" on="0"/>
        <pt x="822" y="967" on="0"/>
        <pt x="922" y="846" on="1"/>
        <pt x="930" y="850" on="1"/>
        <pt x="873" y="1065" on="0"/>
        <pt x="668" y="1255" on="1"/>
        <pt x="397" y="1100" on="1"/>
        <pt x="324" y="1208" on="1"/>
        <pt x="557" y="1341" on="1"/>
        <pt x="466" y="1402" on="0"/>
        <pt x="371" y="1452" on="1"/>
        <pt x="440" y="1569" on="1"/>
        <pt x="598" y="1495" on="0"/>
        <pt x="698" y="1421" on="1"/>
        <pt x="936" y="1559" on="1"/>
        <pt x="1012" y="1452" on="1"/>
        <pt x="805" y="1333" on="1"/>
        <pt x="958" y="1189" on="0"/>
        <pt x="1122" y="791" on="0"/>
      </contour>
      <contour>
        <pt x="618" y="829" on="1"/>
        <pt x="281" y="829" on="0"/>
        <pt x="281" y="469" on="1"/>
        <pt x="281" y="302" on="0"/>
        <pt x="456" y="119" on="0"/>
        <pt x="623" y="119" on="1"/>
        <pt x="954" y="119" on="0"/>
        <pt x="954" y="512" on="1"/>
        <pt x="954" y="659" on="0"/>
        <pt x="774" y="829" on="0"/>
      </contour>
    </TTGlyph>
    <TTGlyph name="exclam" xMin="152" yMin="-29" xMax="393" yMax="1462">
      <contour>
        <pt x="326" y="403" on="1"/>
        <pt x="221" y="403" on="1"/>
        <pt x="170" y="1462" on="1"/>
        <pt x="377" y="1462" on="1"/>
      </contour>
      <contour>
        <pt x="272" y="242" on="1"/>
        <pt x="330" y="242" on="0"/>
        <pt x="393" y="172" on="0"/>
        <pt x="393" y="42" on="0"/>
        <pt x="329" y="-29" on="0"/>
        <pt x="217" y="-29" on="0"/>
        <pt x="152" y="37" on="0"/>
        <pt x="152" y="106" on="1"/>
        <pt x="152" y="242" on="0"/>
      </contour>
    </TTGlyph>
    <TTGlyph name="exclamdown" xMin="152" yMin="-373" xMax="393" yMax="1118">
      <contour>
        <pt x="152" y="1046" on="0"/>
        <pt x="215" y="1118" on="0"/>
        <pt x="326" y="1118" on="0"/>
        <pt x="393" y="1051" on="0"/>
        <pt x="393" y="982" on="1"/>
        <pt x="393" y="848" on="0"/>
        <pt x="272" y="848" on="1"/>
        <pt x="213" y="848" on="0"/>
        <pt x="152" y="918" on="0"/>
      </contour>
      <contour>
        <pt x="375" y="-373" on="1"/>
        <pt x="168" y="-373" on="1"/>
        <pt x="219" y="684" on="1"/>
        <pt x="324" y="684" on="1"/>
      </contour>
    </TTGlyph>
    <TTGlyph name="f" xMin="29" yMin="0" xMax="782" yMax="1567">
      <contour>
        <pt x="225" y="1163" on="1"/>
        <pt x="225" y="1567" on="0"/>
        <pt x="578" y="1567" on="1"/>
        <pt x="663" y="1567" on="0"/>
        <pt x="782" y="1532" on="1"/>
        <pt x="739" y="1399" on="1"/>
        <pt x="645" y="1430" on="0"/>
        <pt x="575" y="1430" on="1"/>
        <pt x="481" y="1430" on="0"/>
        <pt x="391" y="1304" on="0"/>
        <pt x="391" y="1167" on="1"/>
        <pt x="391" y="1096" on="1"/>
        <pt x="670" y="1096" on="1"/>
        <pt x="670" y="967" on="1"/>
        <pt x="391" y="967" on="1"/>
        <pt x="391" y="0" on="1"/>
        <pt x="225" y="0" on="1"/>
        <pt x="225" y="967" on="1"/>
        <pt x="29" y="967" on="1"/>
        <pt x="29" y="1042" on="1"/>
        <pt x="225" y="1102" on="1"/>
      </contour>
    </TTGlyph>
    <TTGlyph name="finalkafdageshhb" xMin="43" yMin="-492" xMax="818" yMax="1310">
      <contour>
        <pt x="243" y="1310" on="0"/>
        <pt x="411" y="1310" on="0"/>
        <pt x="553" y="1270" on="0"/>
        <pt x="652" y="1203" on="0"/>
        <pt x="729" y="1110" on="0"/>
        <pt x="776" y="1011" on="0"/>
        <pt x="792" y="955" on="1"/>
        <pt x="818" y="859" on="0"/>
        <pt x="818" y="756" on="1"/>
        <pt x="818" y="-492" on="1"/>
        <pt x="652" y="-492" on="1"/>
        <pt x="652" y="736" on="1"/>
        <pt x="652" y="863" on="0"/>
        <pt x="624" y="948" on="1"/>
        <pt x="612" y="985" on="0"/>
        <pt x="563" y="1069" on="0"/>
        <pt x="497" y="1125" on="0"/>
        <pt x="392" y="1163" on="0"/>
        <pt x="245" y="1163" on="0"/>
        <pt x="103" y="1138" on="0"/>
        <pt x="73" y="1125" on="1"/>
        <pt x="43" y="1112" on="1"/>
        <pt x="43" y="1260" on="1"/>
        <pt x="54" y="1266" on="0"/>
        <pt x="96" y="1282" on="0"/>
      </contour>
      <contour>
        <pt x="316" y="752" on="1"/>
        <pt x="389" y="752" on="0"/>
        <pt x="389" y="579" on="0"/>
        <pt x="316" y="579" on="1"/>
        <pt x="246" y="579" on="0"/>
        <pt x="246" y="752" on="0"/>
      </contour>
    </TTGlyph>
    <TTGlyph name="finalpedageshhb" xMin="70" yMin="-492" xMax="1052" yMax="1310">
      <contour>
        <pt x="70" y="849" on="1"/>
        <pt x="70" y="959" on="0"/>
        <pt x="155" y="1139" on="0"/>
        <pt x="295" y="1250" on="0"/>
        <pt x="466" y="1310" on="0"/>
        <pt x="662" y="1310" on="0"/>
        <pt x="838" y="1231" on="0"/>
        <pt x="975" y="1074" on="0"/>
        <pt x="1052" y="814" on="0"/>
        <pt x="1052" y="645" on="1"/>
        <pt x="1052" y="-492" on="1"/>
        <pt x="887" y="-492" on="1"/>
        <pt x="887" y="645" on="1"/>
        <pt x="887" y="862" on="0"/>
        <pt x="820" y="1006" on="1"/>
        <pt x="784" y="1084" on="0"/>
        <pt x="650" y="1171" on="0"/>
        <pt x="483" y="1171" on="0"/>
        <pt x="365" y="1130" on="0"/>
        <pt x="292" y="1064" on="0"/>
        <pt x="268" y="1020" on="1"/>
        <pt x="223" y="941" on="0"/>
        <pt x="223" y="849" on="1"/>
        <pt x="223" y="715" on="0"/>
        <pt x="344" y="577" on="0"/>
        <pt x="475" y="553" on="1"/>
        <pt x="519" y="545" on="1"/>
        <pt x="492" y="422" on="1"/>
        <pt x="454" y="427" on="1"/>
        <pt x="279" y="450" on="0"/>
        <pt x="70" y="665" on="0"/>
      </contour>
      <contour>
        <pt x="546" y="946" on="1"/>
        <pt x="619" y="946" on="0"/>
        <pt x="619" y="773" on="0"/>
        <pt x="546" y="773" on="1"/>
        <pt x="476" y="773" on="0"/>
        <pt x="476" y="946" on="0"/>
      </contour>
    </TTGlyph>
    <TTGlyph name="five" xMin="133" yMin="-20" xMax="1053" yMax="1462">
      <contour>
        <pt x="950" y="1309" on="1"/>
        <pt x="365" y="1309" on="1"/>
        <pt x="328" y="870" on="1"/>
        <pt x="446" y="893" on="0"/>
        <pt x="557" y="893" on="1"/>
        <pt x="789" y="893" on="0"/>
        <pt x="920" y="778" on="1"/>
        <pt x="1053" y="664" on="0"/>
        <pt x="1053" y="465" on="1"/>
        <pt x="1053" y="238" on="0"/>
        <pt x="764" y="-20" on="0"/>
        <pt x="263" y="-20" on="0"/>
        <pt x="133" y="59" on="1"/>
        <pt x="133" y="219" on="1"/>
        <pt x="205" y="173" on="0"/>
        <pt x="408" y="123" on="0"/>
        <pt x="512" y="123" on="1"/>
        <pt x="689" y="123" on="0"/>
        <pt x="883" y="290" on="0"/>
        <pt x="883" y="446" on="1"/>
        <pt x="883" y="752" on="0"/>
        <pt x="508" y="752" on="1"/>
        <pt x="416" y="752" on="0"/>
        <pt x="254" y="723" on="1"/>
        <pt x="168" y="778" on="1"/>
        <pt x="223" y="1462" on="1"/>
        <pt x="950" y="1462" on="1"/>
      </contour>
    </TTGlyph>
    <TTGlyph name="florin" xMin="195" yMin="-492" xMax="1047" yMax="1483">
      <contour>
        <pt x="498" y="1110" on="1"/>
        <pt x="498" y="1306" on="0"/>
        <pt x="660" y="1483" on="0"/>
        <pt x="842" y="1483" on="1"/>
        <pt x="928" y="1483" on="0"/>
        <pt x="1047" y="1440" on="1"/>
        <pt x="1004" y="1311" on="1"/>
        <pt x="900" y="1343" on="0"/>
        <pt x="842" y="1343" on="1"/>
        <pt x="745" y="1343" on="0"/>
        <pt x="664" y="1238" on="0"/>
        <pt x="664" y="1114" on="1"/>
        <pt x="664" y="965" on="1"/>
        <pt x="946" y="965" on="1"/>
        <pt x="946" y="836" on="1"/>
        <pt x="668" y="836" on="1"/>
        <pt x="668" y="-133" on="1"/>
        <pt x="668" y="-318" on="0"/>
        <pt x="510" y="-492" on="0"/>
        <pt x="328" y="-492" on="1"/>
        <pt x="258" y="-492" on="0"/>
        <pt x="195" y="-473" on="1"/>
        <pt x="195" y="-334" on="1"/>
        <pt x="265" y="-352" on="0"/>
        <pt x="326" y="-352" on="1"/>
        <pt x="420" y="-352" on="0"/>
        <pt x="498" y="-252" on="0"/>
        <pt x="498" y="-137" on="1"/>
        <pt x="498" y="836" on="1"/>
        <pt x="276" y="836" on="1"/>
        <pt x="276" y="911" on="1"/>
        <pt x="498" y="970" on="1"/>
      </contour>
    </TTGlyph>
    <TTGlyph name="four" xMin="43" yMin="0" xMax="1130" yMax="1470">
      <contour>
        <pt x="913" y="487" on="1"/>
        <pt x="1130" y="487" on="1"/>
        <pt x="1130" y="336" on="1"/>
        <pt x="913" y="336" on="1"/>
        <pt x="913" y="0" on="1"/>
        <pt x="754" y="0" on="1"/>
        <pt x="754" y="336" on="1"/>
        <pt x="43" y="336" on="1"/>
        <pt x="43" y="481" on="1"/>
        <pt x="737" y="1470" on="1"/>
        <pt x="913" y="1470" on="1"/>
      </contour>
      <contour>
        <pt x="754" y="487" on="1"/>
        <pt x="754" y="972" on="1"/>
        <pt x="754" y="1125" on="0"/>
        <pt x="764" y="1296" on="1"/>
        <pt x="756" y="1296" on="1"/>
        <pt x="708" y="1200" on="0"/>
        <pt x="666" y="1137" on="1"/>
        <pt x="209" y="487" on="1"/>
      </contour>
    </TTGlyph>
    <TTGlyph name="g" xMin="39" yMin="-492" xMax="1073" yMax="1116">
      <contour>
        <pt x="496" y="174" on="1"/>
        <pt x="690" y="174" on="1"/>
        <pt x="868" y="174" on="0"/>
        <pt x="1059" y="24" on="0"/>
        <pt x="1059" y="-119" on="1"/>
        <pt x="1059" y="-301" on="0"/>
        <pt x="767" y="-492" on="0"/>
        <pt x="487" y="-492" on="1"/>
        <pt x="272" y="-492" on="0"/>
        <pt x="39" y="-332" on="0"/>
        <pt x="39" y="-186" on="1"/>
        <pt x="39" y="-86" on="0"/>
        <pt x="168" y="60" on="0"/>
        <pt x="283" y="86" on="1"/>
        <pt x="239" y="106" on="0"/>
        <pt x="184" y="186" on="0"/>
        <pt x="184" y="297" on="0"/>
        <pt x="247" y="388" on="0"/>
        <pt x="317" y="430" on="1"/>
        <pt x="233" y="464" on="0"/>
        <pt x="178" y="549" on="1"/>
        <pt x="125" y="634" on="0"/>
        <pt x="125" y="741" on="1"/>
        <pt x="125" y="920" on="0"/>
        <pt x="341" y="1116" on="0"/>
        <pt x="539" y="1116" on="1"/>
        <pt x="623" y="1116" on="0"/>
        <pt x="694" y="1096" on="1"/>
        <pt x="1073" y="1096" on="1"/>
        <pt x="1073" y="990" on="1"/>
        <pt x="870" y="967" on="1"/>
        <pt x="942" y="876" on="0"/>
        <pt x="942" y="748" on="1"/>
        <pt x="942" y="587" on="0"/>
        <pt x="722" y="395" on="0"/>
        <pt x="530" y="395" on="1"/>
        <pt x="484" y="395" on="0"/>
        <pt x="438" y="403" on="1"/>
        <pt x="332" y="348" on="0"/>
        <pt x="332" y="262" on="1"/>
        <pt x="332" y="216" on="0"/>
        <pt x="408" y="174" on="0"/>
      </contour>
      <contour>
        <pt x="532" y="994" on="1"/>
        <pt x="414" y="994" on="0"/>
        <pt x="289" y="868" on="0"/>
        <pt x="289" y="631" on="0"/>
        <pt x="418" y="512" on="0"/>
        <pt x="535" y="512" on="1"/>
        <pt x="778" y="512" on="0"/>
        <pt x="778" y="748" on="1"/>
        <pt x="778" y="994" on="0"/>
      </contour>
      <contour>
        <pt x="637" y="25" on="1"/>
        <pt x="438" y="25" on="1"/>
        <pt x="324" y="25" on="0"/>
        <pt x="199" y="-83" on="0"/>
        <pt x="199" y="-178" on="1"/>
        <pt x="199" y="-365" on="0"/>
        <pt x="489" y="-365" on="1"/>
        <pt x="694" y="-365" on="0"/>
        <pt x="899" y="-243" on="0"/>
        <pt x="899" y="-133" on="1"/>
        <pt x="899" y="-43" on="0"/>
        <pt x="789" y="25" on="0"/>
      </contour>
    </TTGlyph>
    <TTGlyph name="gereshhb" xMin="25" yMin="789" xMax="324" yMax="1290">
      <contour>
        <pt x="324" y="1268" on="1"/>
        <pt x="269" y="1053" on="0"/>
        <pt x="147" y="789" on="1"/>
        <pt x="25" y="789" on="1"/>
        <pt x="95" y="1070" on="0"/>
        <pt x="127" y="1290" on="1"/>
        <pt x="309" y="1290" on="1"/>
      </contour>
    </TTGlyph>
    <TTGlyph name="germandbls" xMin="176" yMin="-20" xMax="1180" yMax="1567">
      <contour>
        <pt x="176" y="0" on="1"/>
        <pt x="176" y="1202" on="1"/>
        <pt x="176" y="1381" on="0"/>
        <pt x="398" y="1567" on="0"/>
        <pt x="824" y="1567" on="0"/>
        <pt x="1049" y="1410" on="0"/>
        <pt x="1049" y="1132" on="0"/>
        <pt x="906" y="1016" on="1"/>
        <pt x="819" y="947" on="0"/>
        <pt x="762" y="879" on="0"/>
        <pt x="762" y="814" on="0"/>
        <pt x="788" y="773" on="0"/>
        <pt x="861" y="715" on="0"/>
        <pt x="938" y="664" on="1"/>
        <pt x="1076" y="571" on="0"/>
        <pt x="1180" y="414" on="0"/>
        <pt x="1180" y="311" on="1"/>
        <pt x="1180" y="151" on="0"/>
        <pt x="986" y="-20" on="0"/>
        <pt x="618" y="-20" on="0"/>
        <pt x="512" y="49" on="1"/>
        <pt x="512" y="203" on="1"/>
        <pt x="576" y="164" on="0"/>
        <pt x="732" y="117" on="0"/>
        <pt x="803" y="117" on="1"/>
        <pt x="1018" y="117" on="0"/>
        <pt x="1018" y="299" on="1"/>
        <pt x="1018" y="374" on="0"/>
        <pt x="936" y="481" on="0"/>
        <pt x="698" y="633" on="0"/>
        <pt x="602" y="756" on="0"/>
        <pt x="602" y="840" on="1"/>
        <pt x="602" y="902" on="0"/>
        <pt x="670" y="1008" on="0"/>
        <pt x="818" y="1120" on="0"/>
        <pt x="881" y="1209" on="0"/>
        <pt x="881" y="1262" on="1"/>
        <pt x="881" y="1342" on="0"/>
        <pt x="745" y="1427" on="0"/>
        <pt x="618" y="1427" on="1"/>
        <pt x="342" y="1427" on="0"/>
        <pt x="342" y="1204" on="1"/>
        <pt x="342" y="0" on="1"/>
      </contour>
    </TTGlyph>
    <TTGlyph name="gershayimhb" xMin="25" yMin="789" xMax="692" yMax="1290">
      <contour>
        <pt x="324" y="1268" on="1"/>
        <pt x="269" y="1053" on="0"/>
        <pt x="147" y="789" on="1"/>
        <pt x="25" y="789" on="1"/>
        <pt x="95" y="1070" on="0"/>
        <pt x="127" y="1290" on="1"/>
        <pt x="309" y="1290" on="1"/>
      </contour>
      <contour>
        <pt x="391" y="789" on="1"/>
        <pt x="468" y="1092" on="0"/>
        <pt x="496" y="1290" on="1"/>
        <pt x="678" y="1290" on="1"/>
        <pt x="692" y="1268" on="1"/>
        <pt x="669" y="1180" on="0"/>
        <pt x="574" y="916" on="0"/>
        <pt x="516" y="789" on="1"/>
      </contour>
    </TTGlyph>
    <TTGlyph name="gimeldageshhb" xMin="70" yMin="-20" xMax="703" yMax="1310">
      <contour>
        <pt x="334" y="1176" on="1"/>
        <pt x="280" y="1176" on="0"/>
        <pt x="212" y="1158" on="1"/>
        <pt x="212" y="1289" on="1"/>
        <pt x="292" y="1310" on="0"/>
        <pt x="391" y="1310" on="1"/>
        <pt x="703" y="1310" on="0"/>
        <pt x="703" y="967" on="1"/>
        <pt x="703" y="0" on="1"/>
        <pt x="566" y="0" on="1"/>
        <pt x="547" y="218" on="1"/>
        <pt x="539" y="218" on="1"/>
        <pt x="534" y="206" on="0"/>
        <pt x="497" y="146" on="0"/>
        <pt x="461" y="101" on="0"/>
        <pt x="403" y="47" on="0"/>
        <pt x="340" y="7" on="0"/>
        <pt x="255" y="-20" on="0"/>
        <pt x="210" y="-20" on="1"/>
        <pt x="116" y="-20" on="0"/>
        <pt x="70" y="-7" on="1"/>
        <pt x="94" y="145" on="1"/>
        <pt x="136" y="132" on="0"/>
        <pt x="231" y="132" on="1"/>
        <pt x="301" y="132" on="0"/>
        <pt x="380" y="190" on="1"/>
        <pt x="474" y="261" on="0"/>
        <pt x="514" y="380" on="1"/>
        <pt x="537" y="449" on="0"/>
        <pt x="537" y="530" on="1"/>
        <pt x="537" y="953" on="1"/>
        <pt x="537" y="1074" on="0"/>
        <pt x="484" y="1127" on="1"/>
        <pt x="435" y="1176" on="0"/>
      </contour>
      <contour>
        <pt x="331" y="752" on="1"/>
        <pt x="404" y="752" on="0"/>
        <pt x="404" y="579" on="0"/>
        <pt x="331" y="579" on="1"/>
        <pt x="261" y="579" on="0"/>
        <pt x="261" y="752" on="0"/>
      </contour>
    </TTGlyph>
    <TTGlyph name="grave" xMin="393" yMin="1241" xMax="786" yMax="1569">
      <contour>
        <pt x="393" y="1569" on="1"/>
        <pt x="596" y="1569" on="1"/>
        <pt x="628" y="1500" on="0"/>
        <pt x="742" y="1319" on="0"/>
        <pt x="786" y="1266" on="1"/>
        <pt x="786" y="1241" on="1"/>
        <pt x="676" y="1241" on="1"/>
        <pt x="610" y="1293" on="0"/>
        <pt x="432" y="1486" on="0"/>
        <pt x="393" y="1548" on="1"/>
      </contour>
    </TTGlyph>
    <TTGlyph name="greater" xMin="104" yMin="242" xMax="1065" yMax="1241">
      <contour>
        <pt x="1065" y="762" on="1"/>
        <pt x="1065" y="664" on="1"/>
        <pt x="104" y="242" on="1"/>
        <pt x="104" y="393" on="1"/>
        <pt x="887" y="719" on="1"/>
        <pt x="104" y="1092" on="1"/>
        <pt x="104" y="1241" on="1"/>
      </contour>
    </TTGlyph>
    <TTGlyph name="guillemotleft" xMin="82" yMin="117" xMax="938" yMax="958">
      <contour>
        <pt x="543" y="889" on="1"/>
        <pt x="254" y="539" on="1"/>
        <pt x="543" y="188" on="1"/>
        <pt x="424" y="117" on="1"/>
        <pt x="82" y="524" on="1"/>
        <pt x="82" y="551" on="1"/>
        <pt x="424" y="958" on="1"/>
      </contour>
      <contour>
        <pt x="938" y="889" on="1"/>
        <pt x="651" y="539" on="1"/>
        <pt x="938" y="188" on="1"/>
        <pt x="821" y="117" on="1"/>
        <pt x="477" y="524" on="1"/>
        <pt x="477" y="551" on="1"/>
        <pt x="821" y="958" on="1"/>
      </contour>
    </TTGlyph>
    <TTGlyph name="guillemotright" xMin="80" yMin="117" xMax="936" yMax="958">
      <contour>
        <pt x="541" y="551" on="1"/>
        <pt x="541" y="524" on="1"/>
        <pt x="197" y="117" on="1"/>
        <pt x="80" y="188" on="1"/>
        <pt x="367" y="539" on="1"/>
        <pt x="80" y="889" on="1"/>
        <pt x="197" y="958" on="1"/>
      </contour>
      <contour>
        <pt x="936" y="551" on="1"/>
        <pt x="936" y="524" on="1"/>
        <pt x="592" y="117" on="1"/>
        <pt x="475" y="188" on="1"/>
        <pt x="762" y="539" on="1"/>
        <pt x="475" y="889" on="1"/>
        <pt x="592" y="958" on="1"/>
      </contour>
    </TTGlyph>
    <TTGlyph name="guilsinglleft" xMin="82" yMin="117" xMax="543" yMax="958">
      <contour>
        <pt x="543" y="889" on="1"/>
        <pt x="254" y="539" on="1"/>
        <pt x="543" y="188" on="1"/>
        <pt x="424" y="117" on="1"/>
        <pt x="82" y="524" on="1"/>
        <pt x="82" y="551" on="1"/>
        <pt x="424" y="958" on="1"/>
      </contour>
    </TTGlyph>
    <TTGlyph name="guilsinglright" xMin="80" yMin="117" xMax="541" yMax="958">
      <contour>
        <pt x="541" y="551" on="1"/>
        <pt x="541" y="524" on="1"/>
        <pt x="197" y="117" on="1"/>
        <pt x="80" y="188" on="1"/>
        <pt x="367" y="539" on="1"/>
        <pt x="80" y="889" on="1"/>
        <pt x="197" y="958" on="1"/>
      </contour>
    </TTGlyph>
    <TTGlyph name="h" xMin="176" yMin="0" xMax="1092" yMax="1556">
      <contour>
        <pt x="342" y="1556" on="1"/>
        <pt x="342" y="1085" on="1"/>
        <pt x="342" y="1002" on="0"/>
        <pt x="334" y="944" on="1"/>
        <pt x="344" y="944" on="1"/>
        <pt x="393" y="1024" on="0"/>
        <pt x="575" y="1114" on="0"/>
        <pt x="690" y="1114" on="1"/>
        <pt x="893" y="1114" on="0"/>
        <pt x="1092" y="920" on="0"/>
        <pt x="1092" y="715" on="1"/>
        <pt x="1092" y="0" on="1"/>
        <pt x="926" y="0" on="1"/>
        <pt x="926" y="709" on="1"/>
        <pt x="926" y="844" on="0"/>
        <pt x="803" y="974" on="0"/>
        <pt x="674" y="974" on="1"/>
        <pt x="499" y="974" on="0"/>
        <pt x="342" y="787" on="0"/>
        <pt x="342" y="573" on="1"/>
        <pt x="342" y="0" on="1"/>
        <pt x="176" y="0" on="1"/>
        <pt x="176" y="1556" on="1"/>
      </contour>
    </TTGlyph>
    <TTGlyph name="hedageshhb" xMin="160" yMin="0" xMax="1103" yMax="1310">
      <contour>
        <pt x="1078" y="1059" on="1"/>
        <pt x="1103" y="989" on="0"/>
        <pt x="1103" y="900" on="1"/>
        <pt x="1103" y="0" on="1"/>
        <pt x="937" y="0" on="1"/>
        <pt x="937" y="902" on="1"/>
        <pt x="937" y="1169" on="0"/>
        <pt x="579" y="1169" on="1"/>
        <pt x="421" y="1169" on="0"/>
        <pt x="230" y="1158" on="1"/>
        <pt x="160" y="1154" on="1"/>
        <pt x="160" y="1295" on="1"/>
        <pt x="393" y="1310" on="0"/>
        <pt x="780" y="1310" on="0"/>
        <pt x="1030" y="1193" on="0"/>
      </contour>
      <contour>
        <pt x="160" y="0" on="1"/>
        <pt x="160" y="823" on="1"/>
        <pt x="326" y="823" on="1"/>
        <pt x="326" y="0" on="1"/>
      </contour>
      <contour>
        <pt x="627" y="752" on="1"/>
        <pt x="700" y="752" on="0"/>
        <pt x="700" y="579" on="0"/>
        <pt x="627" y="579" on="1"/>
        <pt x="557" y="579" on="0"/>
        <pt x="557" y="752" on="0"/>
      </contour>
    </TTGlyph>
    <TTGlyph name="hungarumlaut" xMin="231" yMin="1241" xMax="950" yMax="1569">
      <contour>
        <pt x="594" y="1569" on="1"/>
        <pt x="594" y="1548" on="1"/>
        <pt x="558" y="1486" on="0"/>
        <pt x="387" y="1290" on="0"/>
        <pt x="328" y="1241" on="1"/>
        <pt x="231" y="1241" on="1"/>
        <pt x="231" y="1266" on="1"/>
        <pt x="269" y="1316" on="0"/>
        <pt x="378" y="1503" on="0"/>
        <pt x="408" y="1569" on="1"/>
      </contour>
      <contour>
        <pt x="950" y="1569" on="1"/>
        <pt x="950" y="1548" on="1"/>
        <pt x="914" y="1486" on="0"/>
        <pt x="743" y="1290" on="0"/>
        <pt x="684" y="1241" on="1"/>
        <pt x="588" y="1241" on="1"/>
        <pt x="588" y="1266" on="1"/>
        <pt x="635" y="1331" on="0"/>
        <pt x="736" y="1508" on="0"/>
        <pt x="764" y="1569" on="1"/>
      </contour>
    </TTGlyph>
    <TTGlyph name="hyphen" xMin="84" yMin="473" xMax="575" yMax="625">
      <contour>
        <pt x="575" y="473" on="1"/>
        <pt x="84" y="473" on="1"/>
        <pt x="84" y="625" on="1"/>
        <pt x="575" y="625" on="1"/>
      </contour>
    </TTGlyph>
    <TTGlyph name="i" xMin="162" yMin="0" xMax="358" yMax="1503">
      <contour>
        <pt x="162" y="1448" on="0"/>
        <pt x="216" y="1503" on="0"/>
        <pt x="302" y="1503" on="0"/>
        <pt x="358" y="1447" on="0"/>
        <pt x="358" y="1339" on="0"/>
        <pt x="302" y="1282" on="0"/>
        <pt x="216" y="1282" on="0"/>
        <pt x="162" y="1339" on="0"/>
      </contour>
      <contour>
        <pt x="342" y="0" on="1"/>
        <pt x="176" y="0" on="1"/>
        <pt x="176" y="1096" on="1"/>
        <pt x="342" y="1096" on="1"/>
      </contour>
    </TTGlyph>
    <TTGlyph name="iacute" xMin="169" yMin="0" xMax="562" yMax="1569">
      <contour>
        <pt x="562" y="1569" on="1"/>
        <pt x="562" y="1548" on="1"/>
        <pt x="517" y="1482" on="0"/>
        <pt x="343" y="1292" on="0"/>
        <pt x="280" y="1241" on="1"/>
        <pt x="169" y="1241" on="1"/>
        <pt x="169" y="1266" on="1"/>
        <pt x="217" y="1328" on="0"/>
        <pt x="328" y="1504" on="0"/>
        <pt x="360" y="1569" on="1"/>
      </contour>
      <contour>
        <pt x="342" y="0" on="1"/>
        <pt x="176" y="0" on="1"/>
        <pt x="176" y="1096" on="1"/>
        <pt x="342" y="1096" on="1"/>
      </contour>
    </TTGlyph>
    <TTGlyph name="icircumflex" xMin="-77" yMin="0" xMax="597" yMax="1569">
      <contour>
        <pt x="597" y="1241" on="1"/>
        <pt x="478" y="1241" on="1"/>
        <pt x="392" y="1295" on="0"/>
        <pt x="257" y="1427" on="1"/>
        <pt x="120" y="1294" on="0"/>
        <pt x="38" y="1241" on="1"/>
        <pt x="-77" y="1241" on="1"/>
        <pt x="-77" y="1264" on="1"/>
        <pt x="52" y="1403" on="0"/>
        <pt x="154" y="1531" on="0"/>
        <pt x="175" y="1569" on="1"/>
        <pt x="341" y="1569" on="1"/>
        <pt x="365" y="1524" on="0"/>
        <pt x="418" y="1461" on="1"/>
        <pt x="464" y="1403" on="0"/>
        <pt x="597" y="1264" on="1"/>
      </contour>
      <contour>
        <pt x="342" y="0" on="1"/>
        <pt x="176" y="0" on="1"/>
        <pt x="176" y="1096" on="1"/>
        <pt x="342" y="1096" on="1"/>
      </contour>
    </TTGlyph>
    <TTGlyph name="idieresis" xMin="-20" yMin="0" xMax="543" yMax="1491">
      <contour>
        <pt x="-20" y="1442" on="0"/>
        <pt x="30" y="1491" on="0"/>
        <pt x="111" y="1491" on="0"/>
        <pt x="163" y="1442" on="0"/>
        <pt x="163" y="1345" on="0"/>
        <pt x="111" y="1294" on="0"/>
        <pt x="31" y="1294" on="0"/>
        <pt x="-20" y="1345" on="0"/>
      </contour>
      <contour>
        <pt x="411" y="1491" on="0"/>
        <pt x="491" y="1491" on="0"/>
        <pt x="543" y="1442" on="0"/>
        <pt x="543" y="1345" on="0"/>
        <pt x="490" y="1294" on="0"/>
        <pt x="412" y="1294" on="0"/>
        <pt x="361" y="1345" on="0"/>
        <pt x="361" y="1442" on="0"/>
      </contour>
      <contour>
        <pt x="342" y="0" on="1"/>
        <pt x="176" y="0" on="1"/>
        <pt x="176" y="1096" on="1"/>
        <pt x="342" y="1096" on="1"/>
      </contour>
    </TTGlyph>
    <TTGlyph name="igrave" xMin="-38" yMin="0" xMax="355" yMax="1569">
      <contour>
        <pt x="-38" y="1569" on="1"/>
        <pt x="165" y="1569" on="1"/>
        <pt x="197" y="1500" on="0"/>
        <pt x="311" y="1319" on="0"/>
        <pt x="355" y="1266" on="1"/>
        <pt x="355" y="1241" on="1"/>
        <pt x="245" y="1241" on="1"/>
        <pt x="179" y="1293" on="0"/>
        <pt x="1" y="1486" on="0"/>
        <pt x="-38" y="1548" on="1"/>
      </contour>
      <contour>
        <pt x="342" y="0" on="1"/>
        <pt x="176" y="0" on="1"/>
        <pt x="176" y="1096" on="1"/>
        <pt x="342" y="1096" on="1"/>
      </contour>
    </TTGlyph>
    <TTGlyph name="j" xMin="-111" yMin="-492" xMax="358" yMax="1503">
      <contour>
        <pt x="162" y="1448" on="0"/>
        <pt x="216" y="1503" on="0"/>
        <pt x="302" y="1503" on="0"/>
        <pt x="358" y="1447" on="0"/>
        <pt x="358" y="1339" on="0"/>
        <pt x="302" y="1282" on="0"/>
        <pt x="216" y="1282" on="0"/>
        <pt x="162" y="1339" on="0"/>
      </contour>
      <contour>
        <pt x="342" y="1096" on="1"/>
        <pt x="342" y="-168" on="1"/>
        <pt x="342" y="-492" on="0"/>
        <pt x="43" y="-492" on="1"/>
        <pt x="-54" y="-492" on="0"/>
        <pt x="-111" y="-467" on="1"/>
        <pt x="-111" y="-332" on="1"/>
        <pt x="-40" y="-352" on="0"/>
        <pt x="32" y="-352" on="1"/>
        <pt x="176" y="-352" on="0"/>
        <pt x="176" y="-180" on="1"/>
        <pt x="176" y="1096" on="1"/>
      </contour>
    </TTGlyph>
    <TTGlyph name="k" xMin="176" yMin="0" xMax="1053" yMax="1556">
      <contour>
        <pt x="340" y="1556" on="1"/>
        <pt x="340" y="731" on="1"/>
        <pt x="340" y="684" on="0"/>
        <pt x="332" y="561" on="1"/>
        <pt x="340" y="561" on="1"/>
        <pt x="386" y="625" on="0"/>
        <pt x="471" y="721" on="1"/>
        <pt x="825" y="1096" on="1"/>
        <pt x="1022" y="1096" on="1"/>
        <pt x="578" y="629" on="1"/>
        <pt x="1053" y="0" on="1"/>
        <pt x="852" y="0" on="1"/>
        <pt x="465" y="518" on="1"/>
        <pt x="340" y="410" on="1"/>
        <pt x="340" y="0" on="1"/>
        <pt x="176" y="0" on="1"/>
        <pt x="176" y="1556" on="1"/>
      </contour>
    </TTGlyph>
    <TTGlyph name="kafdageshhb" xMin="66" yMin="-20" xMax="841" yMax="1310">
      <contour>
        <pt x="266" y="1310" on="0"/>
        <pt x="434" y="1310" on="0"/>
        <pt x="576" y="1270" on="0"/>
        <pt x="675" y="1203" on="0"/>
        <pt x="752" y="1110" on="0"/>
        <pt x="799" y="1011" on="0"/>
        <pt x="814" y="955" on="1"/>
        <pt x="841" y="859" on="0"/>
        <pt x="841" y="756" on="1"/>
        <pt x="841" y="537" on="1"/>
        <pt x="841" y="477" on="0"/>
        <pt x="819" y="338" on="0"/>
        <pt x="784" y="239" on="0"/>
        <pt x="709" y="119" on="0"/>
        <pt x="608" y="37" on="0"/>
        <pt x="444" y="-20" on="0"/>
        <pt x="262" y="-20" on="0"/>
        <pt x="123" y="-2" on="0"/>
        <pt x="94" y="8" on="1"/>
        <pt x="66" y="17" on="1"/>
        <pt x="66" y="167" on="1"/>
        <pt x="197" y="125" on="0"/>
        <pt x="353" y="125" on="1"/>
        <pt x="414" y="125" on="0"/>
        <pt x="513" y="160" on="0"/>
        <pt x="578" y="214" on="0"/>
        <pt x="628" y="292" on="0"/>
        <pt x="654" y="366" on="0"/>
        <pt x="662" y="408" on="1"/>
        <pt x="675" y="471" on="0"/>
        <pt x="675" y="540" on="1"/>
        <pt x="675" y="736" on="1"/>
        <pt x="675" y="863" on="0"/>
        <pt x="647" y="948" on="1"/>
        <pt x="635" y="985" on="0"/>
        <pt x="586" y="1069" on="0"/>
        <pt x="520" y="1125" on="0"/>
        <pt x="415" y="1163" on="0"/>
        <pt x="268" y="1163" on="0"/>
        <pt x="126" y="1138" on="0"/>
        <pt x="96" y="1125" on="1"/>
        <pt x="66" y="1112" on="1"/>
        <pt x="66" y="1260" on="1"/>
        <pt x="77" y="1266" on="0"/>
        <pt x="119" y="1282" on="0"/>
      </contour>
      <contour>
        <pt x="340" y="752" on="1"/>
        <pt x="413" y="752" on="0"/>
        <pt x="413" y="579" on="0"/>
        <pt x="340" y="579" on="1"/>
        <pt x="270" y="579" on="0"/>
        <pt x="270" y="752" on="0"/>
      </contour>
    </TTGlyph>
    <TTGlyph name="l" xMin="176" yMin="0" xMax="342" yMax="1556">
      <contour>
        <pt x="342" y="0" on="1"/>
        <pt x="176" y="0" on="1"/>
        <pt x="176" y="1556" on="1"/>
        <pt x="342" y="1556" on="1"/>
      </contour>
    </TTGlyph>
    <TTGlyph name="lameddageshhb" xMin="70" yMin="0" xMax="915" yMax="1554">
      <contour>
        <pt x="915" y="1290" on="1"/>
        <pt x="915" y="1161" on="1"/>
        <pt x="742" y="501" on="1"/>
        <pt x="638" y="0" on="1"/>
        <pt x="470" y="0" on="1"/>
        <pt x="574" y="501" on="1"/>
        <pt x="749" y="1161" on="1"/>
        <pt x="70" y="1161" on="1"/>
        <pt x="70" y="1554" on="1"/>
        <pt x="236" y="1554" on="1"/>
        <pt x="236" y="1290" on="1"/>
      </contour>
      <contour>
        <pt x="292" y="752" on="1"/>
        <pt x="365" y="752" on="0"/>
        <pt x="365" y="579" on="0"/>
        <pt x="292" y="579" on="1"/>
        <pt x="222" y="579" on="0"/>
        <pt x="222" y="752" on="0"/>
      </contour>
    </TTGlyph>
    <TTGlyph name="less" xMin="104" yMin="242" xMax="1065" yMax="1241">
      <contour>
        <pt x="1065" y="1092" on="1"/>
        <pt x="283" y="721" on="1"/>
        <pt x="1065" y="393" on="1"/>
        <pt x="1065" y="242" on="1"/>
        <pt x="104" y="664" on="1"/>
        <pt x="104" y="762" on="1"/>
        <pt x="1065" y="1241" on="1"/>
      </contour>
    </TTGlyph>
    <TTGlyph name="logicalnot" xMin="104" yMin="264" xMax="1065" yMax="791">
      <contour>
        <pt x="1065" y="264" on="1"/>
        <pt x="928" y="264" on="1"/>
        <pt x="928" y="653" on="1"/>
        <pt x="104" y="653" on="1"/>
        <pt x="104" y="791" on="1"/>
        <pt x="1065" y="791" on="1"/>
      </contour>
    </TTGlyph>
    <TTGlyph name="m" xMin="176" yMin="0" xMax="1739" yMax="1116">
      <contour>
        <pt x="1368" y="1116" on="1"/>
        <pt x="1556" y="1116" on="0"/>
        <pt x="1739" y="922" on="0"/>
        <pt x="1739" y="715" on="1"/>
        <pt x="1739" y="0" on="1"/>
        <pt x="1573" y="0" on="1"/>
        <pt x="1573" y="713" on="1"/>
        <pt x="1573" y="845" on="0"/>
        <pt x="1460" y="974" on="0"/>
        <pt x="1343" y="974" on="1"/>
        <pt x="1188" y="974" on="0"/>
        <pt x="1040" y="797" on="0"/>
        <pt x="1040" y="612" on="1"/>
        <pt x="1040" y="0" on="1"/>
        <pt x="874" y="0" on="1"/>
        <pt x="874" y="713" on="1"/>
        <pt x="874" y="845" on="0"/>
        <pt x="761" y="974" on="0"/>
        <pt x="643" y="974" on="1"/>
        <pt x="486" y="974" on="0"/>
        <pt x="342" y="788" on="0"/>
        <pt x="342" y="575" on="1"/>
        <pt x="342" y="0" on="1"/>
        <pt x="176" y="0" on="1"/>
        <pt x="176" y="1096" on="1"/>
        <pt x="311" y="1096" on="1"/>
        <pt x="338" y="946" on="1"/>
        <pt x="346" y="946" on="1"/>
        <pt x="393" y="1026" on="0"/>
        <pt x="564" y="1116" on="0"/>
        <pt x="670" y="1116" on="1"/>
        <pt x="926" y="1116" on="0"/>
        <pt x="1006" y="930" on="1"/>
        <pt x="1014" y="930" on="1"/>
        <pt x="1063" y="1017" on="0"/>
        <pt x="1250" y="1116" on="0"/>
      </contour>
    </TTGlyph>
    <TTGlyph name="memdageshhb" xMin="102" yMin="0" xMax="1074" yMax="1310">
      <contour>
        <pt x="696" y="1310" on="1"/>
        <pt x="885" y="1310" on="0"/>
        <pt x="1074" y="1082" on="0"/>
        <pt x="1074" y="882" on="1"/>
        <pt x="1074" y="0" on="1"/>
        <pt x="634" y="0" on="1"/>
        <pt x="634" y="129" on="1"/>
        <pt x="908" y="129" on="1"/>
        <pt x="908" y="875" on="1"/>
        <pt x="908" y="1170" on="0"/>
        <pt x="638" y="1170" on="1"/>
        <pt x="591" y="1170" on="0"/>
        <pt x="500" y="1137" on="0"/>
        <pt x="469" y="1114" on="1"/>
        <pt x="403" y="1063" on="0"/>
        <pt x="376" y="1026" on="1"/>
        <pt x="364" y="1010" on="1"/>
        <pt x="269" y="0" on="1"/>
        <pt x="102" y="0" on="1"/>
        <pt x="196" y="992" on="1"/>
        <pt x="196" y="996" on="0"/>
        <pt x="196" y="1032" on="0"/>
        <pt x="168" y="1180" on="0"/>
        <pt x="147" y="1228" on="1"/>
        <pt x="121" y="1290" on="1"/>
        <pt x="288" y="1290" on="1"/>
        <pt x="315" y="1245" on="0"/>
        <pt x="334" y="1154" on="1"/>
        <pt x="341" y="1154" on="1"/>
        <pt x="393" y="1216" on="0"/>
        <pt x="466" y="1256" on="1"/>
        <pt x="504" y="1276" on="0"/>
        <pt x="628" y="1310" on="0"/>
      </contour>
      <contour>
        <pt x="612" y="752" on="1"/>
        <pt x="685" y="752" on="0"/>
        <pt x="685" y="579" on="0"/>
        <pt x="612" y="579" on="1"/>
        <pt x="542" y="579" on="0"/>
        <pt x="542" y="752" on="0"/>
      </contour>
    </TTGlyph>
    <TTGlyph name="mu" xMin="176" yMin="-492" xMax="1092" yMax="1096">
      <contour>
        <pt x="1092" y="0" on="1"/>
        <pt x="956" y="0" on="1"/>
        <pt x="930" y="147" on="1"/>
        <pt x="920" y="147" on="1"/>
        <pt x="809" y="-20" on="0"/>
        <pt x="580" y="-20" on="1"/>
        <pt x="431" y="-20" on="0"/>
        <pt x="342" y="72" on="1"/>
        <pt x="332" y="72" on="1"/>
        <pt x="342" y="-8" on="0"/>
        <pt x="342" y="-172" on="1"/>
        <pt x="342" y="-492" on="1"/>
        <pt x="176" y="-492" on="1"/>
        <pt x="176" y="1096" on="1"/>
        <pt x="342" y="1096" on="1"/>
        <pt x="342" y="381" on="1"/>
        <pt x="342" y="119" on="0"/>
        <pt x="596" y="119" on="1"/>
        <pt x="768" y="119" on="0"/>
        <pt x="926" y="309" on="0"/>
        <pt x="926" y="520" on="1"/>
        <pt x="926" y="1096" on="1"/>
        <pt x="1092" y="1096" on="1"/>
      </contour>
    </TTGlyph>
    <TTGlyph name="multiply" xMin="133" yMin="272" xMax="1036" yMax="1176">
      <contour>
        <pt x="1036" y="1077" on="1"/>
        <pt x="684" y="723" on="1"/>
        <pt x="1034" y="371" on="1"/>
        <pt x="938" y="272" on="1"/>
        <pt x="584" y="623" on="1"/>
        <pt x="236" y="272" on="1"/>
        <pt x="135" y="371" on="1"/>
        <pt x="485" y="723" on="1"/>
        <pt x="133" y="1075" on="1"/>
        <pt x="233" y="1176" on="1"/>
        <pt x="586" y="821" on="1"/>
        <pt x="940" y="1176" on="1"/>
      </contour>
    </TTGlyph>
    <TTGlyph name="n" xMin="176" yMin="0" xMax="1092" yMax="1116">
      <contour>
        <pt x="694" y="1116" on="1"/>
        <pt x="894" y="1116" on="0"/>
        <pt x="1092" y="922" on="0"/>
        <pt x="1092" y="715" on="1"/>
        <pt x="1092" y="0" on="1"/>
        <pt x="926" y="0" on="1"/>
        <pt x="926" y="709" on="1"/>
        <pt x="926" y="844" on="0"/>
        <pt x="803" y="974" on="0"/>
        <pt x="674" y="974" on="1"/>
        <pt x="501" y="974" on="0"/>
        <pt x="342" y="788" on="0"/>
        <pt x="342" y="575" on="1"/>
        <pt x="342" y="0" on="1"/>
        <pt x="176" y="0" on="1"/>
        <pt x="176" y="1096" on="1"/>
        <pt x="311" y="1096" on="1"/>
        <pt x="338" y="946" on="1"/>
        <pt x="346" y="946" on="1"/>
        <pt x="397" y="1027" on="0"/>
        <pt x="580" y="1116" on="0"/>
      </contour>
    </TTGlyph>
    <TTGlyph name="nine" xMin="106" yMin="-20" xMax="1061" yMax="1483">
      <contour>
        <pt x="528" y="551" on="1"/>
        <pt x="334" y="551" on="0"/>
        <pt x="106" y="782" on="0"/>
        <pt x="106" y="990" on="1"/>
        <pt x="106" y="1220" on="0"/>
        <pt x="360" y="1483" on="0"/>
        <pt x="569" y="1483" on="1"/>
        <pt x="574" y="1483" on="0"/>
        <pt x="579" y="1483" on="1"/>
        <pt x="796" y="1483" on="0"/>
        <pt x="1061" y="1139" on="0"/>
        <pt x="1061" y="847" on="1"/>
        <pt x="1061" y="842" on="0"/>
        <pt x="1061" y="838" on="1"/>
        <pt x="1061" y="-20" on="0"/>
        <pt x="397" y="-20" on="1"/>
        <pt x="282" y="-20" on="0"/>
        <pt x="213" y="0" on="1"/>
        <pt x="213" y="143" on="1"/>
        <pt x="294" y="117" on="0"/>
        <pt x="395" y="117" on="1"/>
        <pt x="635" y="117" on="0"/>
        <pt x="880" y="414" on="0"/>
        <pt x="891" y="721" on="1"/>
        <pt x="879" y="721" on="1"/>
        <pt x="825" y="638" on="0"/>
        <pt x="643" y="551" on="0"/>
      </contour>
      <contour>
        <pt x="426" y="1341" on="0"/>
        <pt x="270" y="1158" on="0"/>
        <pt x="270" y="846" on="0"/>
        <pt x="417" y="684" on="0"/>
        <pt x="561" y="684" on="1"/>
        <pt x="567" y="684" on="0"/>
        <pt x="573" y="684" on="1"/>
        <pt x="700" y="684" on="0"/>
        <pt x="893" y="847" on="0"/>
        <pt x="893" y="950" on="1"/>
        <pt x="893" y="953" on="0"/>
        <pt x="893" y="956" on="1"/>
        <pt x="894" y="1060" on="0"/>
        <pt x="812" y="1238" on="0"/>
        <pt x="664" y="1341" on="0"/>
        <pt x="576" y="1341" on="1"/>
        <pt x="572" y="1341" on="0"/>
        <pt x="569" y="1341" on="1"/>
      </contour>
    </TTGlyph>
    <TTGlyph name="ntilde" xMin="176" yMin="0" xMax="1092" yMax="1501">
      <contour>
        <pt x="802" y="1243" on="1"/>
        <pt x="742" y="1243" on="0"/>
        <pt x="638" y="1303" on="1"/>
        <pt x="600" y="1325" on="0"/>
        <pt x="584" y="1334" on="1"/>
        <pt x="530" y="1362" on="0"/>
        <pt x="442" y="1362" on="0"/>
        <pt x="391" y="1304" on="0"/>
        <pt x="376" y="1241" on="1"/>
        <pt x="278" y="1241" on="1"/>
        <pt x="291" y="1362" on="0"/>
        <pt x="406" y="1499" on="0"/>
        <pt x="497" y="1499" on="1"/>
        <pt x="566" y="1499" on="0"/>
        <pt x="668" y="1440" on="1"/>
        <pt x="683" y="1430" on="0"/>
        <pt x="703" y="1420" on="0"/>
        <pt x="724" y="1408" on="0"/>
        <pt x="733" y="1404" on="0"/>
        <pt x="752" y="1394" on="0"/>
        <pt x="763" y="1390" on="0"/>
        <pt x="779" y="1384" on="0"/>
        <pt x="785" y="1383" on="1"/>
        <pt x="803" y="1380" on="0"/>
        <pt x="811" y="1380" on="1"/>
        <pt x="858" y="1380" on="0"/>
        <pt x="907" y="1436" on="0"/>
        <pt x="923" y="1501" on="1"/>
        <pt x="1022" y="1501" on="1"/>
        <pt x="1009" y="1379" on="0"/>
        <pt x="895" y="1243" on="0"/>
      </contour>
      <contour>
        <pt x="694" y="1116" on="1"/>
        <pt x="895" y="1116" on="0"/>
        <pt x="1092" y="922" on="0"/>
        <pt x="1092" y="715" on="1"/>
        <pt x="1092" y="0" on="1"/>
        <pt x="926" y="0" on="1"/>
        <pt x="926" y="709" on="1"/>
        <pt x="926" y="844" on="0"/>
        <pt x="803" y="975" on="0"/>
        <pt x="674" y="975" on="1"/>
        <pt x="501" y="975" on="0"/>
        <pt x="342" y="787" on="0"/>
        <pt x="342" y="575" on="1"/>
        <pt x="342" y="0" on="1"/>
        <pt x="176" y="0" on="1"/>
        <pt x="176" y="1096" on="1"/>
        <pt x="311" y="1096" on="1"/>
        <pt x="338" y="946" on="1"/>
        <pt x="346" y="946" on="1"/>
        <pt x="397" y="1027" on="0"/>
        <pt x="580" y="1116" on="0"/>
      </contour>
    </TTGlyph>
    <TTGlyph name="numbersign" xMin="51" yMin="0" xMax="1270" yMax="1462">
      <contour>
        <pt x="1270" y="1026" on="1"/>
        <pt x="1270" y="899" on="1"/>
        <pt x="980" y="899" on="1"/>
        <pt x="915" y="559" on="1"/>
        <pt x="1198" y="559" on="1"/>
        <pt x="1198" y="430" on="1"/>
        <pt x="891" y="430" on="1"/>
        <pt x="807" y="0" on="1"/>
        <pt x="670" y="0" on="1"/>
        <pt x="754" y="430" on="1"/>
        <pt x="451" y="430" on="1"/>
        <pt x="369" y="0" on="1"/>
        <pt x="233" y="0" on="1"/>
        <pt x="313" y="430" on="1"/>
        <pt x="51" y="430" on="1"/>
        <pt x="51" y="559" on="1"/>
        <pt x="338" y="559" on="1"/>
        <pt x="406" y="899" on="1"/>
        <pt x="129" y="899" on="1"/>
        <pt x="129" y="1026" on="1"/>
        <pt x="428" y="1026" on="1"/>
        <pt x="510" y="1462" on="1"/>
        <pt x="649" y="1462" on="1"/>
        <pt x="567" y="1026" on="1"/>
        <pt x="872" y="1026" on="1"/>
        <pt x="956" y="1462" on="1"/>
        <pt x="1090" y="1462" on="1"/>
        <pt x="1006" y="1026" on="1"/>
      </contour>
      <contour>
        <pt x="541" y="899" on="1"/>
        <pt x="475" y="559" on="1"/>
        <pt x="778" y="559" on="1"/>
        <pt x="844" y="899" on="1"/>
      </contour>
    </TTGlyph>
    <TTGlyph name="nundageshhb" xMin="92" yMin="0" xMax="725" yMax="1310">
      <contour>
        <pt x="356" y="1176" on="1"/>
        <pt x="302" y="1176" on="0"/>
        <pt x="234" y="1158" on="1"/>
        <pt x="234" y="1289" on="1"/>
        <pt x="314" y="1310" on="0"/>
        <pt x="413" y="1310" on="1"/>
        <pt x="725" y="1310" on="0"/>
        <pt x="725" y="967" on="1"/>
        <pt x="725" y="315" on="1"/>
        <pt x="725" y="234" on="0"/>
        <pt x="706" y="76" on="0"/>
        <pt x="696" y="38" on="1"/>
        <pt x="686" y="0" on="1"/>
        <pt x="92" y="0" on="1"/>
        <pt x="92" y="129" on="1"/>
        <pt x="538" y="129" on="1"/>
        <pt x="558" y="204" on="0"/>
        <pt x="558" y="315" on="1"/>
        <pt x="558" y="953" on="1"/>
        <pt x="558" y="1073" on="0"/>
        <pt x="506" y="1127" on="1"/>
        <pt x="458" y="1176" on="0"/>
      </contour>
      <contour>
        <pt x="280" y="752" on="1"/>
        <pt x="353" y="752" on="0"/>
        <pt x="353" y="579" on="0"/>
        <pt x="280" y="579" on="1"/>
        <pt x="210" y="579" on="0"/>
        <pt x="210" y="752" on="0"/>
      </contour>
    </TTGlyph>
    <TTGlyph name="o" xMin="115" yMin="-20" xMax="1122" yMax="1116">
      <contour>
        <pt x="115" y="549" on="1"/>
        <pt x="115" y="817" on="0"/>
        <pt x="382" y="1116" on="0"/>
        <pt x="851" y="1116" on="0"/>
        <pt x="985" y="963" on="1"/>
        <pt x="1122" y="811" on="0"/>
        <pt x="1122" y="281" on="0"/>
        <pt x="852" y="-20" on="0"/>
        <pt x="614" y="-20" on="1"/>
        <pt x="610" y="-20" on="0"/>
        <pt x="606" y="-20" on="1"/>
        <pt x="389" y="-20" on="0"/>
        <pt x="115" y="288" on="0"/>
        <pt x="115" y="535" on="1"/>
        <pt x="115" y="542" on="0"/>
      </contour>
      <contour>
        <pt x="616" y="974" on="1"/>
        <pt x="287" y="974" on="0"/>
        <pt x="287" y="549" on="1"/>
        <pt x="287" y="339" on="0"/>
        <pt x="456" y="119" on="0"/>
        <pt x="781" y="119" on="0"/>
        <pt x="950" y="338" on="0"/>
        <pt x="950" y="758" on="0"/>
        <pt x="781" y="974" on="0"/>
      </contour>
    </TTGlyph>
    <TTGlyph name="oacute" xMin="115" yMin="-20" xMax="1122" yMax="1569">
      <contour>
        <pt x="872" y="1569" on="1"/>
        <pt x="872" y="1548" on="1"/>
        <pt x="827" y="1482" on="0"/>
        <pt x="653" y="1292" on="0"/>
        <pt x="590" y="1241" on="1"/>
        <pt x="479" y="1241" on="1"/>
        <pt x="479" y="1266" on="1"/>
        <pt x="527" y="1328" on="0"/>
        <pt x="638" y="1504" on="0"/>
        <pt x="670" y="1569" on="1"/>
      </contour>
      <contour>
        <pt x="115" y="816" on="0"/>
        <pt x="383" y="1116" on="0"/>
        <pt x="851" y="1116" on="0"/>
        <pt x="1122" y="810" on="0"/>
        <pt x="1122" y="282" on="0"/>
        <pt x="852" y="-20" on="0"/>
        <pt x="614" y="-20" on="1"/>
        <pt x="467" y="-20" on="0"/>
        <pt x="239" y="118" on="0"/>
        <pt x="115" y="377" on="0"/>
        <pt x="115" y="549" on="1"/>
      </contour>
      <contour>
        <pt x="616" y="975" on="1"/>
        <pt x="287" y="975" on="0"/>
        <pt x="287" y="549" on="1"/>
        <pt x="287" y="339" on="0"/>
        <pt x="456" y="119" on="0"/>
        <pt x="781" y="119" on="0"/>
        <pt x="950" y="338" on="0"/>
        <pt x="950" y="759" on="0"/>
        <pt x="781" y="975" on="0"/>
      </contour>
    </TTGlyph>
    <TTGlyph name="ocircumflex" xMin="115" yMin="-20" xMax="1122" yMax="1569">
      <contour>
        <pt x="956" y="1241" on="1"/>
        <pt x="837" y="1241" on="1"/>
        <pt x="751" y="1295" on="0"/>
        <pt x="616" y="1427" on="1"/>
        <pt x="480" y="1294" on="0"/>
        <pt x="397" y="1241" on="1"/>
        <pt x="282" y="1241" on="1"/>
        <pt x="282" y="1264" on="1"/>
        <pt x="411" y="1403" on="0"/>
        <pt x="513" y="1531" on="0"/>
        <pt x="534" y="1569" on="1"/>
        <pt x="700" y="1569" on="1"/>
        <pt x="724" y="1524" on="0"/>
        <pt x="777" y="1461" on="1"/>
        <pt x="823" y="1403" on="0"/>
        <pt x="956" y="1264" on="1"/>
      </contour>
      <contour>
        <pt x="115" y="816" on="0"/>
        <pt x="383" y="1116" on="0"/>
        <pt x="851" y="1116" on="0"/>
        <pt x="1122" y="810" on="0"/>
        <pt x="1122" y="282" on="0"/>
        <pt x="852" y="-20" on="0"/>
        <pt x="614" y="-20" on="1"/>
        <pt x="467" y="-20" on="0"/>
        <pt x="239" y="118" on="0"/>
        <pt x="115" y="377" on="0"/>
        <pt x="115" y="549" on="1"/>
      </contour>
      <contour>
        <pt x="616" y="975" on="1"/>
        <pt x="287" y="975" on="0"/>
        <pt x="287" y="549" on="1"/>
        <pt x="287" y="339" on="0"/>
        <pt x="456" y="119" on="0"/>
        <pt x="781" y="119" on="0"/>
        <pt x="950" y="338" on="0"/>
        <pt x="950" y="759" on="0"/>
        <pt x="781" y="975" on="0"/>
      </contour>
    </TTGlyph>
    <TTGlyph name="odieresis" xMin="115" yMin="-20" xMax="1122" yMax="1491">
      <contour>
        <pt x="336" y="1442" on="0"/>
        <pt x="386" y="1491" on="0"/>
        <pt x="467" y="1491" on="0"/>
        <pt x="519" y="1442" on="0"/>
        <pt x="519" y="1345" on="0"/>
        <pt x="467" y="1294" on="0"/>
        <pt x="387" y="1294" on="0"/>
        <pt x="336" y="1345" on="0"/>
      </contour>
      <contour>
        <pt x="767" y="1491" on="0"/>
        <pt x="847" y="1491" on="0"/>
        <pt x="899" y="1442" on="0"/>
        <pt x="899" y="1345" on="0"/>
        <pt x="846" y="1294" on="0"/>
        <pt x="768" y="1294" on="0"/>
        <pt x="717" y="1345" on="0"/>
        <pt x="717" y="1442" on="0"/>
      </contour>
      <contour>
        <pt x="115" y="816" on="0"/>
        <pt x="383" y="1116" on="0"/>
        <pt x="851" y="1116" on="0"/>
        <pt x="1122" y="810" on="0"/>
        <pt x="1122" y="282" on="0"/>
        <pt x="852" y="-20" on="0"/>
        <pt x="614" y="-20" on="1"/>
        <pt x="467" y="-20" on="0"/>
        <pt x="239" y="118" on="0"/>
        <pt x="115" y="377" on="0"/>
        <pt x="115" y="549" on="1"/>
      </contour>
      <contour>
        <pt x="616" y="975" on="1"/>
        <pt x="287" y="975" on="0"/>
        <pt x="287" y="549" on="1"/>
        <pt x="287" y="339" on="0"/>
        <pt x="456" y="119" on="0"/>
        <pt x="781" y="119" on="0"/>
        <pt x="950" y="338" on="0"/>
        <pt x="950" y="759" on="0"/>
        <pt x="781" y="975" on="0"/>
      </contour>
    </TTGlyph>
    <TTGlyph name="oe" xMin="113" yMin="-20" xMax="1823" yMax="1114">
      <contour>
        <pt x="1430" y="-20" on="1"/>
        <pt x="1136" y="-20" on="0"/>
        <pt x="1012" y="215" on="1"/>
        <pt x="950" y="99" on="0"/>
        <pt x="742" y="-20" on="0"/>
        <pt x="604" y="-20" on="1"/>
        <pt x="380" y="-20" on="0"/>
        <pt x="113" y="286" on="0"/>
        <pt x="113" y="814" on="0"/>
        <pt x="376" y="1114" on="0"/>
        <pt x="610" y="1114" on="1"/>
        <pt x="742" y="1114" on="0"/>
        <pt x="946" y="995" on="0"/>
        <pt x="1008" y="881" on="1"/>
        <pt x="1066" y="994" on="0"/>
        <pt x="1259" y="1114" on="0"/>
        <pt x="1384" y="1114" on="1"/>
        <pt x="1585" y="1114" on="0"/>
        <pt x="1823" y="849" on="0"/>
        <pt x="1823" y="623" on="1"/>
        <pt x="1823" y="518" on="1"/>
        <pt x="1094" y="518" on="1"/>
        <pt x="1102" y="125" on="0"/>
        <pt x="1432" y="125" on="1"/>
        <pt x="1609" y="125" on="0"/>
        <pt x="1774" y="199" on="1"/>
        <pt x="1774" y="51" on="1"/>
        <pt x="1686" y="12" on="0"/>
        <pt x="1533" y="-20" on="0"/>
      </contour>
      <contour>
        <pt x="922" y="763" on="0"/>
        <pt x="767" y="975" on="0"/>
        <pt x="439" y="975" on="0"/>
        <pt x="287" y="763" on="0"/>
        <pt x="287" y="334" on="0"/>
        <pt x="441" y="119" on="0"/>
        <pt x="767" y="119" on="0"/>
        <pt x="922" y="330" on="0"/>
      </contour>
      <contour>
        <pt x="1642" y="653" on="1"/>
        <pt x="1642" y="811" on="0"/>
        <pt x="1510" y="975" on="0"/>
        <pt x="1255" y="975" on="0"/>
        <pt x="1110" y="811" on="0"/>
        <pt x="1098" y="653" on="1"/>
      </contour>
    </TTGlyph>
    <TTGlyph name="ogonek" xMin="37" yMin="-446" xMax="369" yMax="0">
      <contour>
        <pt x="178" y="-238" on="1"/>
        <pt x="178" y="-332" on="0"/>
        <pt x="272" y="-332" on="1"/>
        <pt x="316" y="-332" on="0"/>
        <pt x="369" y="-319" on="1"/>
        <pt x="369" y="-428" on="1"/>
        <pt x="304" y="-446" on="0"/>
        <pt x="244" y="-446" on="1"/>
        <pt x="37" y="-446" on="0"/>
        <pt x="37" y="-258" on="1"/>
        <pt x="37" y="-190" on="0"/>
        <pt x="121" y="-54" on="0"/>
        <pt x="195" y="0" on="1"/>
        <pt x="315" y="0" on="1"/>
        <pt x="243" y="-70" on="0"/>
        <pt x="178" y="-178" on="0"/>
      </contour>
    </TTGlyph>
    <TTGlyph name="ograve" xMin="115" yMin="-20" xMax="1122" yMax="1569">
      <contour>
        <pt x="349" y="1569" on="1"/>
        <pt x="552" y="1569" on="1"/>
        <pt x="584" y="1500" on="0"/>
        <pt x="698" y="1319" on="0"/>
        <pt x="742" y="1266" on="1"/>
        <pt x="742" y="1241" on="1"/>
        <pt x="632" y="1241" on="1"/>
        <pt x="566" y="1293" on="0"/>
        <pt x="388" y="1486" on="0"/>
        <pt x="349" y="1548" on="1"/>
      </contour>
      <contour>
        <pt x="115" y="816" on="0"/>
        <pt x="383" y="1116" on="0"/>
        <pt x="851" y="1116" on="0"/>
        <pt x="1122" y="810" on="0"/>
        <pt x="1122" y="282" on="0"/>
        <pt x="852" y="-20" on="0"/>
        <pt x="614" y="-20" on="1"/>
        <pt x="467" y="-20" on="0"/>
        <pt x="239" y="118" on="0"/>
        <pt x="115" y="377" on="0"/>
        <pt x="115" y="549" on="1"/>
      </contour>
      <contour>
        <pt x="616" y="975" on="1"/>
        <pt x="287" y="975" on="0"/>
        <pt x="287" y="549" on="1"/>
        <pt x="287" y="339" on="0"/>
        <pt x="456" y="119" on="0"/>
        <pt x="781" y="119" on="0"/>
        <pt x="950" y="338" on="0"/>
        <pt x="950" y="759" on="0"/>
        <pt x="781" y="975" on="0"/>
      </contour>
    </TTGlyph>
    <TTGlyph name="one" xMin="188" yMin="0" xMax="715" yMax="1462">
      <contour>
        <pt x="715" y="0" on="1"/>
        <pt x="553" y="0" on="1"/>
        <pt x="553" y="1042" on="1"/>
        <pt x="553" y="1165" on="0"/>
        <pt x="561" y="1288" on="1"/>
        <pt x="540" y="1266" on="0"/>
        <pt x="501" y="1232" on="0"/>
        <pt x="276" y="1049" on="1"/>
        <pt x="188" y="1163" on="1"/>
        <pt x="575" y="1462" on="1"/>
        <pt x="715" y="1462" on="1"/>
      </contour>
    </TTGlyph>
    <TTGlyph name="onehalf" xMin="46" yMin="0" xMax="1499" yMax="1462">
      <contour>
        <pt x="451" y="586" on="1"/>
        <pt x="318" y="586" on="1"/>
        <pt x="318" y="1165" on="1"/>
        <pt x="318" y="1256" on="0"/>
        <pt x="324" y="1346" on="1"/>
        <pt x="299" y="1321" on="0"/>
        <pt x="248" y="1278" on="0"/>
        <pt x="113" y="1184" on="1"/>
        <pt x="46" y="1280" on="1"/>
        <pt x="308" y="1462" on="1"/>
        <pt x="451" y="1462" on="1"/>
      </contour>
      <contour>
        <pt x="327" y="0" on="1"/>
        <pt x="184" y="0" on="1"/>
        <pt x="1087" y="1462" on="1"/>
        <pt x="1230" y="1462" on="1"/>
      </contour>
      <contour>
        <pt x="1190" y="896" on="1"/>
        <pt x="1321" y="896" on="0"/>
        <pt x="1469" y="766" on="0"/>
        <pt x="1469" y="654" on="1"/>
        <pt x="1469" y="574" on="0"/>
        <pt x="1381" y="424" on="0"/>
        <pt x="1233" y="285" on="1"/>
        <pt x="1059" y="120" on="1"/>
        <pt x="1499" y="120" on="1"/>
        <pt x="1499" y="0" on="1"/>
        <pt x="895" y="0" on="1"/>
        <pt x="895" y="105" on="1"/>
        <pt x="1131" y="335" on="1"/>
        <pt x="1223" y="424" on="0"/>
        <pt x="1302" y="518" on="0"/>
        <pt x="1335" y="595" on="0"/>
        <pt x="1335" y="714" on="0"/>
        <pt x="1257" y="785" on="0"/>
        <pt x="1139" y="785" on="0"/>
        <pt x="1044" y="747" on="0"/>
        <pt x="972" y="697" on="1"/>
        <pt x="907" y="785" on="1"/>
        <pt x="1036" y="896" on="0"/>
      </contour>
    </TTGlyph>
    <TTGlyph name="onequarter" xMin="75" yMin="0" xMax="1489" yMax="1462">
      <contour>
        <pt x="480" y="586" on="1"/>
        <pt x="347" y="586" on="1"/>
        <pt x="347" y="1165" on="1"/>
        <pt x="347" y="1256" on="0"/>
        <pt x="353" y="1346" on="1"/>
        <pt x="328" y="1321" on="0"/>
        <pt x="277" y="1278" on="0"/>
        <pt x="142" y="1184" on="1"/>
        <pt x="75" y="1280" on="1"/>
        <pt x="337" y="1462" on="1"/>
        <pt x="480" y="1462" on="1"/>
      </contour>
      <contour>
        <pt x="395" y="0" on="1"/>
        <pt x="252" y="0" on="1"/>
        <pt x="1155" y="1462" on="1"/>
        <pt x="1298" y="1462" on="1"/>
      </contour>
      <contour>
        <pt x="1364" y="320" on="1"/>
        <pt x="1489" y="320" on="1"/>
        <pt x="1489" y="203" on="1"/>
        <pt x="1364" y="203" on="1"/>
        <pt x="1364" y="0" on="1"/>
        <pt x="1219" y="0" on="1"/>
        <pt x="1219" y="203" on="1"/>
        <pt x="817" y="203" on="1"/>
        <pt x="817" y="304" on="1"/>
        <pt x="1225" y="883" on="1"/>
        <pt x="1364" y="883" on="1"/>
      </contour>
      <contour>
        <pt x="1219" y="320" on="1"/>
        <pt x="1219" y="515" on="1"/>
        <pt x="1219" y="649" on="0"/>
        <pt x="1225" y="724" on="1"/>
        <pt x="1215" y="701" on="0"/>
        <pt x="1132" y="577" on="0"/>
        <pt x="1125" y="566" on="1"/>
        <pt x="957" y="320" on="1"/>
      </contour>
    </TTGlyph>
    <TTGlyph name="onesuperior" xMin="76" yMin="586" xMax="481" yMax="1462">
      <contour>
        <pt x="481" y="586" on="1"/>
        <pt x="348" y="586" on="1"/>
        <pt x="348" y="1165" on="1"/>
        <pt x="348" y="1256" on="0"/>
        <pt x="354" y="1346" on="1"/>
        <pt x="329" y="1321" on="0"/>
        <pt x="278" y="1278" on="0"/>
        <pt x="143" y="1184" on="1"/>
        <pt x="76" y="1280" on="1"/>
        <pt x="338" y="1462" on="1"/>
        <pt x="481" y="1462" on="1"/>
      </contour>
    </TTGlyph>
    <TTGlyph name="oslash" xMin="115" yMin="-68" xMax="1122" yMax="1159">
      <contour>
        <pt x="995" y="950" on="1"/>
        <pt x="1122" y="799" on="0"/>
        <pt x="1122" y="282" on="0"/>
        <pt x="852" y="-20" on="0"/>
        <pt x="614" y="-20" on="1"/>
        <pt x="461" y="-20" on="0"/>
        <pt x="348" y="49" on="1"/>
        <pt x="264" y="-68" on="1"/>
        <pt x="150" y="10" on="1"/>
        <pt x="244" y="141" on="1"/>
        <pt x="115" y="292" on="0"/>
        <pt x="115" y="816" on="0"/>
        <pt x="383" y="1116" on="0"/>
        <pt x="621" y="1116" on="1"/>
        <pt x="776" y="1116" on="0"/>
        <pt x="891" y="1040" on="1"/>
        <pt x="975" y="1159" on="1"/>
        <pt x="1092" y="1083" on="1"/>
      </contour>
      <contour>
        <pt x="616" y="975" on="1"/>
        <pt x="287" y="975" on="0"/>
        <pt x="287" y="549" on="1"/>
        <pt x="287" y="379" on="0"/>
        <pt x="340" y="276" on="1"/>
        <pt x="805" y="922" on="1"/>
        <pt x="729" y="975" on="0"/>
      </contour>
      <contour>
        <pt x="618" y="119" on="1"/>
        <pt x="781" y="119" on="0"/>
        <pt x="950" y="338" on="0"/>
        <pt x="950" y="549" on="1"/>
        <pt x="950" y="712" on="0"/>
        <pt x="899" y="813" on="1"/>
        <pt x="434" y="170" on="1"/>
        <pt x="504" y="119" on="0"/>
      </contour>
    </TTGlyph>
    <TTGlyph name="otilde" xMin="115" yMin="-20" xMax="1122" yMax="1501">
      <contour>
        <pt x="773" y="1243" on="1"/>
        <pt x="713" y="1243" on="0"/>
        <pt x="609" y="1303" on="1"/>
        <pt x="571" y="1325" on="0"/>
        <pt x="555" y="1334" on="1"/>
        <pt x="501" y="1362" on="0"/>
        <pt x="413" y="1362" on="0"/>
        <pt x="362" y="1304" on="0"/>
        <pt x="347" y="1241" on="1"/>
        <pt x="249" y="1241" on="1"/>
        <pt x="262" y="1362" on="0"/>
        <pt x="377" y="1499" on="0"/>
        <pt x="468" y="1499" on="1"/>
        <pt x="537" y="1499" on="0"/>
        <pt x="639" y="1440" on="1"/>
        <pt x="654" y="1430" on="0"/>
        <pt x="674" y="1420" on="0"/>
        <pt x="695" y="1408" on="0"/>
        <pt x="704" y="1404" on="0"/>
        <pt x="723" y="1394" on="0"/>
        <pt x="734" y="1390" on="0"/>
        <pt x="750" y="1384" on="0"/>
        <pt x="756" y="1383" on="1"/>
        <pt x="774" y="1380" on="0"/>
        <pt x="782" y="1380" on="1"/>
        <pt x="829" y="1380" on="0"/>
        <pt x="878" y="1436" on="0"/>
        <pt x="894" y="1501" on="1"/>
        <pt x="993" y="1501" on="1"/>
        <pt x="980" y="1379" on="0"/>
        <pt x="866" y="1243" on="0"/>
      </contour>
      <contour>
        <pt x="115" y="816" on="0"/>
        <pt x="383" y="1116" on="0"/>
        <pt x="851" y="1116" on="0"/>
        <pt x="1122" y="810" on="0"/>
        <pt x="1122" y="282" on="0"/>
        <pt x="852" y="-20" on="0"/>
        <pt x="614" y="-20" on="1"/>
        <pt x="467" y="-20" on="0"/>
        <pt x="239" y="118" on="0"/>
        <pt x="115" y="377" on="0"/>
        <pt x="115" y="549" on="1"/>
      </contour>
      <contour>
        <pt x="616" y="975" on="1"/>
        <pt x="287" y="975" on="0"/>
        <pt x="287" y="549" on="1"/>
        <pt x="287" y="339" on="0"/>
        <pt x="456" y="119" on="0"/>
        <pt x="781" y="119" on="0"/>
        <pt x="950" y="338" on="0"/>
        <pt x="950" y="759" on="0"/>
        <pt x="781" y="975" on="0"/>
      </contour>
    </TTGlyph>
    <TTGlyph name="overscore" xMin="-6" yMin="1556" xMax="1030" yMax="1683">
      <contour>
        <pt x="1030" y="1556" on="1"/>
        <pt x="-6" y="1556" on="1"/>
        <pt x="-6" y="1683" on="1"/>
        <pt x="1030" y="1683" on="1"/>
      </contour>
    </TTGlyph>
    <TTGlyph name="p" xMin="176" yMin="-492" xMax="1141" yMax="1116">
      <contour>
        <pt x="342" y="946" on="1"/>
        <pt x="462" y="1116" on="0"/>
        <pt x="903" y="1116" on="0"/>
        <pt x="1141" y="818" on="0"/>
        <pt x="1141" y="278" on="0"/>
        <pt x="900" y="-20" on="0"/>
        <pt x="460" y="-20" on="0"/>
        <pt x="342" y="141" on="1"/>
        <pt x="330" y="141" on="1"/>
        <pt x="342" y="45" on="0"/>
        <pt x="342" y="-41" on="1"/>
        <pt x="342" y="-492" on="1"/>
        <pt x="176" y="-492" on="1"/>
        <pt x="176" y="1096" on="1"/>
        <pt x="311" y="1096" on="1"/>
        <pt x="334" y="946" on="1"/>
      </contour>
      <contour>
        <pt x="342" y="549" on="1"/>
        <pt x="342" y="319" on="0"/>
        <pt x="419" y="218" on="1"/>
        <pt x="496" y="119" on="0"/>
        <pt x="666" y="119" on="1"/>
        <pt x="809" y="119" on="0"/>
        <pt x="968" y="348" on="0"/>
        <pt x="968" y="755" on="0"/>
        <pt x="809" y="974" on="0"/>
        <pt x="662" y="974" on="1"/>
        <pt x="493" y="974" on="0"/>
        <pt x="343" y="788" on="0"/>
        <pt x="342" y="586" on="1"/>
      </contour>
    </TTGlyph>
    <TTGlyph name="paragraph" xMin="113" yMin="-260" xMax="1120" yMax="1556">
      <contour>
        <pt x="1120" y="-260" on="1"/>
        <pt x="1006" y="-260" on="1"/>
        <pt x="1006" y="1452" on="1"/>
        <pt x="793" y="1452" on="1"/>
        <pt x="793" y="-260" on="1"/>
        <pt x="678" y="-260" on="1"/>
        <pt x="678" y="559" on="1"/>
        <pt x="616" y="541" on="0"/>
        <pt x="532" y="541" on="1"/>
        <pt x="317" y="541" on="0"/>
        <pt x="113" y="789" on="0"/>
        <pt x="113" y="1303" on="0"/>
        <pt x="332" y="1556" on="0"/>
        <pt x="563" y="1556" on="1"/>
        <pt x="1120" y="1556" on="1"/>
      </contour>
    </TTGlyph>
    <TTGlyph name="parenleft" xMin="82" yMin="-324" xMax="545" yMax="1462">
      <contour>
        <pt x="403" y="1271" on="0"/>
        <pt x="256" y="810" on="0"/>
        <pt x="256" y="326" on="0"/>
        <pt x="404" y="-135" on="0"/>
        <pt x="543" y="-324" on="1"/>
        <pt x="383" y="-324" on="1"/>
        <pt x="236" y="-153" on="0"/>
        <pt x="82" y="300" on="0"/>
        <pt x="82" y="826" on="0"/>
        <pt x="237" y="1288" on="0"/>
        <pt x="383" y="1462" on="1"/>
        <pt x="545" y="1462" on="1"/>
      </contour>
    </TTGlyph>
    <TTGlyph name="parenright" xMin="61" yMin="-324" xMax="524" yMax="1462">
      <contour>
        <pt x="223" y="1462" on="1"/>
        <pt x="371" y="1285" on="0"/>
        <pt x="524" y="822" on="0"/>
        <pt x="524" y="298" on="0"/>
        <pt x="370" y="-155" on="0"/>
        <pt x="223" y="-324" on="1"/>
        <pt x="63" y="-324" on="1"/>
        <pt x="202" y="-137" on="0"/>
        <pt x="350" y="325" on="0"/>
        <pt x="350" y="810" on="0"/>
        <pt x="203" y="1271" on="0"/>
        <pt x="61" y="1462" on="1"/>
      </contour>
    </TTGlyph>
    <TTGlyph name="pedageshhb" xMin="92" yMin="-20" xMax="1081" yMax="1310">
      <contour>
        <pt x="92" y="849" on="1"/>
        <pt x="92" y="959" on="0"/>
        <pt x="177" y="1139" on="0"/>
        <pt x="317" y="1250" on="0"/>
        <pt x="488" y="1310" on="0"/>
        <pt x="662" y="1310" on="0"/>
        <pt x="810" y="1262" on="0"/>
        <pt x="938" y="1157" on="0"/>
        <pt x="1029" y="1004" on="0"/>
        <pt x="1081" y="781" on="0"/>
        <pt x="1081" y="509" on="0"/>
        <pt x="1029" y="286" on="0"/>
        <pt x="938" y="133" on="0"/>
        <pt x="874" y="80" on="1"/>
        <pt x="751" y="-20" on="0"/>
        <pt x="578" y="-20" on="1"/>
        <pt x="408" y="-20" on="0"/>
        <pt x="252" y="0" on="1"/>
        <pt x="202" y="7" on="1"/>
        <pt x="202" y="150" on="1"/>
        <pt x="203" y="149" on="0"/>
        <pt x="251" y="142" on="1"/>
        <pt x="409" y="119" on="0"/>
        <pt x="577" y="119" on="1"/>
        <pt x="653" y="119" on="0"/>
        <pt x="771" y="178" on="0"/>
        <pt x="844" y="276" on="0"/>
        <pt x="868" y="346" on="1"/>
        <pt x="909" y="468" on="0"/>
        <pt x="909" y="645" on="1"/>
        <pt x="909" y="862" on="0"/>
        <pt x="842" y="1006" on="1"/>
        <pt x="806" y="1084" on="0"/>
        <pt x="672" y="1171" on="0"/>
        <pt x="505" y="1171" on="0"/>
        <pt x="387" y="1130" on="0"/>
        <pt x="314" y="1065" on="0"/>
        <pt x="290" y="1022" on="1"/>
        <pt x="245" y="942" on="0"/>
        <pt x="245" y="849" on="1"/>
        <pt x="245" y="715" on="0"/>
        <pt x="366" y="577" on="0"/>
        <pt x="497" y="553" on="1"/>
        <pt x="541" y="545" on="1"/>
        <pt x="514" y="422" on="1"/>
        <pt x="476" y="427" on="1"/>
        <pt x="301" y="450" on="0"/>
        <pt x="92" y="665" on="0"/>
      </contour>
      <contour>
        <pt x="585" y="934" on="1"/>
        <pt x="658" y="934" on="0"/>
        <pt x="658" y="761" on="0"/>
        <pt x="585" y="761" on="1"/>
        <pt x="515" y="761" on="0"/>
        <pt x="515" y="934" on="0"/>
      </contour>
    </TTGlyph>
    <TTGlyph name="percent" xMin="104" yMin="-20" xMax="1581" yMax="1483">
      <contour>
        <pt x="399" y="1483" on="1"/>
        <pt x="544" y="1483" on="0"/>
        <pt x="700" y="1245" on="0"/>
        <pt x="700" y="798" on="0"/>
        <pt x="547" y="565" on="0"/>
        <pt x="258" y="565" on="0"/>
        <pt x="104" y="804" on="0"/>
        <pt x="104" y="1026" on="1"/>
        <pt x="104" y="1483" on="0"/>
      </contour>
      <contour>
        <pt x="512" y="0" on="1"/>
        <pt x="365" y="0" on="1"/>
        <pt x="1176" y="1462" on="1"/>
        <pt x="1323" y="1462" on="1"/>
      </contour>
      <contour>
        <pt x="399" y="1364" on="1"/>
        <pt x="317" y="1364" on="0"/>
        <pt x="242" y="1199" on="0"/>
        <pt x="242" y="853" on="0"/>
        <pt x="317" y="686" on="0"/>
        <pt x="399" y="686" on="1"/>
        <pt x="563" y="686" on="0"/>
        <pt x="563" y="1364" on="0"/>
      </contour>
      <contour>
        <pt x="984" y="667" on="0"/>
        <pt x="1134" y="897" on="0"/>
        <pt x="1423" y="897" on="0"/>
        <pt x="1581" y="660" on="0"/>
        <pt x="1581" y="213" on="0"/>
        <pt x="1428" y="-20" on="0"/>
        <pt x="1138" y="-20" on="0"/>
        <pt x="984" y="218" on="0"/>
      </contour>
      <contour>
        <pt x="1444" y="611" on="0"/>
        <pt x="1364" y="776" on="0"/>
        <pt x="1197" y="776" on="0"/>
        <pt x="1122" y="613" on="0"/>
        <pt x="1122" y="266" on="0"/>
        <pt x="1197" y="99" on="0"/>
        <pt x="1364" y="99" on="0"/>
        <pt x="1444" y="266" on="0"/>
      </contour>
    </TTGlyph>
    <TTGlyph name="period" xMin="152" yMin="-29" xMax="393" yMax="242">
      <contour>
        <pt x="152" y="172" on="0"/>
        <pt x="213" y="242" on="0"/>
        <pt x="328" y="242" on="0"/>
        <pt x="393" y="172" on="0"/>
        <pt x="393" y="41" on="0"/>
        <pt x="328" y="-29" on="0"/>
        <pt x="216" y="-29" on="0"/>
        <pt x="152" y="37" on="0"/>
      </contour>
    </TTGlyph>
    <TTGlyph name="periodcentered" xMin="152" yMin="588" xMax="393" yMax="858">
      <contour>
        <pt x="152" y="789" on="0"/>
        <pt x="213" y="858" on="0"/>
        <pt x="328" y="858" on="0"/>
        <pt x="393" y="788" on="0"/>
        <pt x="393" y="658" on="0"/>
        <pt x="328" y="588" on="0"/>
        <pt x="216" y="588" on="0"/>
        <pt x="152" y="654" on="0"/>
      </contour>
    </TTGlyph>
</ttFont>
